DBRep_DrawableShape

CASCADE Topology V1, (c) Matra-Datavision
Locations 63
1
              1               0               0               0 
              0               1               0               0 
              0               0               1               0 
1
              1               0               0    848.52813742 
              0               1               0              -0 
              0               0               1              -0 
1
              1               0               0               0 
              0               1               0               0 
              0               0               1             225 
2  1 1 2 1 3 1 0
1
              1               0               0               0 
              0               1               0               0 
              0               0               1             -50 
1
              1               0               0               0 
              0               1               0               0 
              0               0               1             205 
1
              1               0               0 848.528137420001 
              0               1               0               0 
              0               0               1               0 
1
              1               0               0               0 
              0               1               0               0 
              0               0               1             115 
2  7 -1 0
1
              1               0               0              -0 
              0               1               0              -0 
              0               0               1              -0 
2  1 1 10 1 3 1 0
2  1 1 2 1 3 1 7 -1 0
1
              1               0               0   -848.52813742 
              0               1               0               0 
              0               0               1               0 
1
              1               0               0 -848.528137420001 
              0               1               0               0 
              0               0               1               0 
1
              1               0               0               0 
              0               1               0   2545.58441227 
              0               0               1               0 
1
              1               0               0              -0 
              0               1               0  -2545.58441227 
              0               0               1              -0 
2  5 1 15 1 16 1 7 1 0
2  6 1 15 -1 5 -1 0
2  6 1 16 -1 15 -1 5 -1 0
2  5 1 16 -1 15 -1 5 -1 0
2  6 1 7 -1 16 -1 15 -1 5 -1 0
2  16 -1 15 -1 5 -1 0
2  15 -1 5 -1 0
2  5 1 7 1 0
2  6 1 5 -1 0
2  6 1 7 -1 5 -1 0
2  16 1 5 -1 0
2  5 -1 0
2  6 1 7 -1 0
1
              1               0               0               0 
              0               1               0  -2545.58441227 
              0               0               1               0 
1
              1               0               0              -0 
              0               1               0   2545.58441227 
              0               0               1              -0 
2  5 1 30 1 31 1 14 1 0
2  6 1 30 -1 5 -1 0
2  5 1 31 -1 30 -1 5 -1 0
2  6 1 31 -1 30 -1 5 -1 0
2  6 1 14 -1 31 -1 30 -1 5 -1 0
2  31 -1 30 -1 5 -1 0
2  30 -1 5 -1 0
2  5 1 14 1 0
2  6 1 14 -1 5 -1 0
2  31 1 5 -1 0
2  6 1 14 -1 0
1
              1               0               0   -848.52813742 
              0               1               0              -0 
              0               0               1              -0 
2  1 1 43 1 3 1 0
2  1 1 10 1 3 1 13 1 0
2  1 1 10 1 3 1 14 -1 0
2  1 1 10 1 3 1 7 -1 0
2  5 1 15 1 16 1 14 1 0
2  5 1 14 -1 16 -1 15 -1 5 -1 0
2  5 1 7 -1 16 -1 15 -1 5 -1 0
2  5 1 15 1 16 1 0
2  5 1 7 -1 0
2  5 1 30 1 31 1 0
2  5 1 14 -1 0
2  5 1 7 1 14 -1 31 -1 30 -1 5 -1 0
2  8 1 13 1 0
2  1 1 10 1 3 1 14 1 0
2  14 1 7 -1 0
2  8 1 14 -1 0
2  8 1 7 -1 0
2  5 1 30 1 31 1 7 1 0
2  13 1 14 1 0
2  8 1 14 1 0
Curve2ds 186
8 -120000825.00071925 119999174.99928075
1 825.00071925112559 110 1 0 
1 56.56413696968275 -1110.1630691628172 -0.70710678118654757 0.70710678118654746 
8 -120000825.00071925 119999174.99928075
1 56.56413696968275 -1110.1630691628172 -0.70710678118654757 0.70710678118654746 
8 -120000000 120000000
1 -294.9971229862046 -0 0 -1 
8 -120000000 120000000
1 5.0000000000000409 0 0 1 
8 -120000000 120000000
1 -4.9999999999998792 -0 0 1 
8 -120000000 120000000
1 295.00551109696448 0 0 -1 
8 -119999925.00071925 120000074.99928075
1 -74.99928074831891 20 1 0 
1 692.96024003718298 799.02524003968279 -0.70710678118654757 0.70710678118654746 
8 -119999925.00071925 120000074.99928075
1 692.96024003718276 799.02524003968279 -0.70710678118654757 0.70710678118654746 
8 517.59748750923836 2027.9869247607623
1 848.52813742000012 0 0 1 
8 517.59748750923836 2027.9869247607623
1 165 0 0 -1 
1 1697.0562748400009 -2545.58441227 0 1 
8 18.5 126.5
1 1205.008388105306 -137.5 0 1 
8 18.5 126.5
1 137.5 -1491.9973426568661 1 0 
1 1205.0083881053067 -137.5 0 1 
8 -126.5 -18.499999999999986
1 -1194.9999999945471 -137.5 0 -1 
8 -126.5 -18.499999999999986
1 137.5 -1902.1152070331357 -1 -0 
1 -1194.9999999945476 -137.5 -0 -1 
1 255 0 0 -1 
1 848.52813742000035 0 0 1 
1 848.52813742000012 2545.58441227 0 1 
1 848.52813742000012 0 0 1 
1 255 0 0 -1 
1 1697.0562748400009 0 0 1 
1 848.52813742000035 0 0 1 
1 848.52813742000012 0 0 1 
1 255 0 0 -1 
1 1697.0562748400009 0 0 1 
8 -120000524.9965252 119999475.0034748
1 -524.99652519710912 -20 -1 0 
1 473.75806915781749 268.69913697468269 -0.70710678118654746 -0.70710678118654757 
8 -120000524.9965252 119999475.0034748
1 473.75806915781732 268.69913697468269 -0.70710678118654746 -0.70710678118654757 
1 1322.2862065778181 268.69913697468269 -0.70710678118654746 -0.70710678118654757 
8 -119999925.00071925 120000074.99928075
1 -74.99928074831891 20 1 0 
1 692.96024003718298 799.02524003968279 -0.70710678118654757 0.70710678118654746 
8 -119999925.00071925 120000074.99928075
1 692.96024003718276 799.02524003968279 -0.70710678118654757 0.70710678118654746 
1 1541.4883774571836 799.02524003968279 -0.70710678118654757 0.70710678118654746 
8 -119999325.00071925 120000674.99928075
1 674.99928074559136 -20 -1 0 
1 374.7671026146827 579.82603480781722 0.70710678118654757 0.70710678118654757 
8 -119999325.00071925 120000674.99928075
1 374.76710261468253 579.82603480781722 0.70710678118654757 0.70710678118654757 
1 1223.2952400346833 579.82603480781722 0.70710678118654757 0.70710678118654757 
1 848.52813742000035 0 0 1 
1 848.52813742000012 0 0 1 
1 255 0 0 -1 
1 1697.0562748400009 0 0 1 
1 848.52813742000012 2545.58441227 2.6501696614937613e-16 -1 
1 255 -2545.58441227 0 1 
1 1697.0562748400009 2545.58441227 2.6501696614937613e-16 -1 
1 255 0 0 -1 
1 0 0 0 1 
1 -1.7053025658242404e-13 -2545.58441227 0 1 
1 255 0 0 -1 
1 -1.7053025658242404e-13 0 0 1 
1 -848.5281374200008 0 0 1 
1 0 0 0 1 
1 255 0 0 -1 
1 -1.7053025658242404e-13 0 0 1 
1 -848.5281374200008 0 0 1 
8 -120000674.99928075 119999325.00071925
1 674.99928074559148 -20 1 0 
1 -473.76103480531742 1428.3541722278173 -0.70710678118654757 -0.70710678118654757 
8 -120000674.99928075 119999325.00071925
1 -473.76103480531759 1428.3541722278173 -0.70710678118654757 -0.70710678118654757 
1 -1322.2891722253182 1428.3541722278173 -0.70710678118654757 -0.70710678118654757 
8 -119999474.99928075 120000525.00071925
1 525.00071925248926 20 -1 0 
1 579.83196609531751 1322.2951035178173 -0.70710678118654757 0.70710678118654746 
8 -119999474.99928075 120000525.00071925
1 579.83196609531728 1322.2951035178173 -0.70710678118654757 0.70710678118654746 
1 -268.69617132468341 1322.2951035178173 -0.70710678118654757 0.70710678118654746 
8 -120000075.0034748 119999924.9965252
1 75.003474800163673 -20 1 0 
1 -799.03413697218298 692.96320568468286 0.70710678118654746 0.70710678118654757 
8 -120000075.0034748 119999924.9965252
1 -799.03413697218321 692.96320568468286 0.70710678118654746 0.70710678118654757 
1 -1647.5622743921838 692.96320568468286 0.70710678118654746 0.70710678118654757 
1 0 0 0 1 
1 255 0 0 -1 
1 -1.7053025658242404e-13 0 0 1 
1 -848.5281374200008 0 0 1 
8 -119999474.99928075 120000525.00071925
1 525.00071925248926 20 -1 0 
1 579.83196609531751 1322.2951035178173 -0.70710678118654757 0.70710678118654746 
8 -119999474.99928075 120000525.00071925
1 579.83196609531728 1322.2951035178173 -0.70710678118654757 0.70710678118654746 
1 -1.7053025658242404e-13 643.46920523686526 0 -1 
1 255 -643.46920523686526 0 1 
1 -848.5281374200008 643.46920523686526 0 -1 
8 -119999925.00071925 120000074.99928075
1 -74.99928074831891 20 1 0 
1 692.96024003718298 799.02524003968279 -0.70710678118654757 0.70710678118654746 
8 -119999925.00071925 120000074.99928075
1 692.96024003718276 799.02524003968279 -0.70710678118654757 0.70710678118654746 
1 -155.56789738281788 799.02524003968279 -0.70710678118654757 0.70710678118654746 
8 -119999474.99928075 120000525.00071925
1 525.00071925248926 20 -1 0 
1 579.83196609531751 1322.2951035178173 -0.70710678118654757 0.70710678118654746 
8 -119999474.99928075 120000525.00071925
1 579.83196609531728 1322.2951035178173 -0.70710678118654757 0.70710678118654746 
1 1428.3601035153181 1322.2951035178173 -0.70710678118654757 0.70710678118654746 
8 -120000000 120000000
1 -294.9971229862046 -0 0 -1 
8 -120000000 120000000
1 5.0000000000000409 0 0 1 
1 4.9999999999995577 0 0 1 
8 -120000000 120000000
1 1495.0138992022707 0 0 1 
8 -120000000 120000000
1 -5.0000000000003819 0 0 -1 
1 1495.0138992022712 0 0 1 
1 0 0 1 0 
1 0 0 1 0 
1 0 0 1 0 
1 0 0 1 0 
1 0 -848.52813742000069 1 0 
1 0 0 1 0 
1 0 848.52813742000035 1 0 
1 0 848.52813742000035 1 0 
1 0 0 1 0 
1 0 1697.0562748400012 1 0 
1 0 0 0 -1 
1 848.52813742000035 0 0 1 
1 1697.0562748400012 0 0 1 
1 0 -2545.58441227 1 0 
1 0 848.52813742000035 1 0 
1 0 -2545.58441227 1 0 
1 0 848.52813742000035 1 0 
8 -126.5 -18.499999999999986
1 4.9999999999990559 -137.5 0 -1 
8 -126.5 -18.499999999999986
1 137.5 -1053.5870696131351 -1 -0 
8 -755.69412549676122 760.68819420676141
1 848.52813742000012 -1272.792206135 0 1 
8 -755.69412549676122 760.68819420676141
1 165 -1272.792206135 0 -1 
8 18.5 126.5
1 5.0083881107606185 -137.5 0 1 
8 18.5 126.5
1 137.5 -643.46920523686572 1 0 
1 0 0 0 -1 
1 0 0 0 1 
1 -848.52813742000069 0 0 1 
1 0 -2545.58441227 1 0 
1 0 0 1 0 
1 0 0 1 0 
1 0 -2545.58441227 1 0 
1 0 -1697.0562748400014 1 0 
8 -126.5 -18.499999999999986
1 4.9999999999994778 -137.5 0 -1 
8 -126.5 -18.499999999999986
1 137.5 -1902.115207033135 -1 -0 
8 512.10401192823861 2028.4863316317617
1 848.52813742000012 0 0 1 
8 512.10401192823861 2028.4863316317617
1 165 0 0 -1 
8 18.5 126.5
1 1205.008388105306 -137.5 0 1 
8 18.5 126.5
1 137.5 -1491.9973426568658 1 0 
8 -126.5 -18.499999999999986
1 137.5 -1053.5870696131349 -1 -0 
8 -126.5 -18.499999999999986
1 4.9999999999991367 -137.5 0 -1 
8 517.59748750923836 2027.9869247607623
1 165 0 0 -1 
8 517.59748750923836 2027.9869247607623
1 -1.7053025658242404e-13 0 0 1 
8 18.5 126.5
1 137.5 -643.46920523686526 1 0 
8 18.5 126.5
1 5.0083881107600554 -137.5 0 1 
8 -120000000 120000000
1 1495.0138992022707 0 0 1 
8 -120000000 120000000
1 -5.0000000000003819 0 0 -1 
1 1495.0138992022712 0 0 1 
8 -120000000 120000000
1 -4.9999999999998792 -0 0 1 
8 -120000000 120000000
1 295.00551109696448 0 0 -1 
8 -120000000 120000000
1 4.9916118892394623 0 -0 -1 
8 -120000000 120000000
1 -294.99712298620483 0 0 1 
1 -1195.0083881053072 0 -0 -1 
8 -120000825.00071925 119999174.99928075
1 825.00071925112559 110 1 0 
8 -120000825.00071925 119999174.99928075
1 56.56413696968275 -1110.1630691628172 -0.70710678118654757 0.70710678118654746 
1 56.56413696968275 -1110.1630691628172 -0.70710678118654757 0.70710678118654746 
1 -791.96400045031794 1435.4213431071828 -0.70710678118654757 0.70710678118654746 
8 -119999774.99928075 120000225.00071925
1 1216.2280691603175 1534.4271378728174 -0.70710678118654757 0.70710678118654746 
8 -119999774.99928075 120000225.00071925
1 225.00071925385276 110 -1 0 
1 367.6999317403172 1534.4271378728174 -0.70710678118654757 0.70710678118654746 
1 1216.228069160318 1534.4271378728174 -0.70710678118654757 0.70710678118654746 
8 -120000000 120000000
1 -4.9999999999998792 -0 0 1 
8 -120000000 120000000
1 295.00551109696448 0 0 -1 
8 -119999774.99928075 120000225.00071925
1 1011.1632056821827 -1329.362274394683 -0.70710678118654757 -0.70710678118654757 
8 -119999774.99928075 120000225.00071925
1 -225.00071925385322 -110.00000000000001 1 0 
1 1011.1632056821827 -1329.362274394683 -0.70710678118654757 -0.70710678118654757 
8 -120000825.00071925 119999174.99928075
1 825.00071925112559 110 1 0 
8 -120000825.00071925 119999174.99928075
1 56.56413696968275 -1110.1630691628172 -0.70710678118654757 0.70710678118654746 
1 56.56413696968275 -1110.1630691628172 -0.70710678118654757 0.70710678118654746 
8 -120000000 120000000
1 -294.9971229862046 -0 0 -1 
8 -120000000 120000000
1 5.0000000000000409 0 0 1 
8 -119999624.9965252 120000375.0034748
1 375.00347480233552 -110 -1 0 
8 -119999624.9965252 120000375.0034748
1 1110.1541722253173 -1640.4891722278171 -0.70710678118654746 -0.70710678118654757 
1 1110.1541722253173 -1640.4891722278171 -0.70710678118654746 -0.70710678118654757 
8 -120000974.99928075 119999025.00071925
1 162.63506825968261 1216.2221378728173 -0.70710678118654757 -0.70710678118654757 
8 -120000974.99928075 119999025.00071925
1 974.99928074422792 -110.00000000000001 1 0 
1 -685.89306916031774 1216.2221378728173 -0.70710678118654757 -0.70710678118654757 
8 -120000000 120000000
1 4.9916118892394623 0 -0 -1 
8 -120000000 120000000
1 -294.99712298620483 0 0 1 
8 -119999774.99928075 120000225.00071925
1 1216.2280691603175 1534.4271378728174 -0.70710678118654757 0.70710678118654746 
8 -119999774.99928075 120000225.00071925
1 225.00071925385276 110 -1 0 
1 367.6999317403172 1534.4271378728174 -0.70710678118654757 0.70710678118654746 
8 -120000224.9965252 119999775.0034748
1 -224.99652519847263 -110 -1 0 
8 -120000224.9965252 119999775.0034748
1 -162.63803390718272 480.83117132968277 -0.70710678118654746 -0.70710678118654757 
1 -1011.1661713271831 480.83117132968277 -0.70710678118654746 -0.70710678118654757 
8 -120000000 120000000
1 1495.0138992022707 0 0 1 
8 -120000000 120000000
1 -5.0000000000003819 0 0 -1 
8 -120000000 120000000
1 4.9916118892394623 0 -0 -1 
8 -120000000 120000000
1 -294.99712298620483 0 0 1 
1 -1195.0083881053069 0 -0 -1 
8 -119999774.99928075 120000225.00071925
1 1216.2280691603175 1534.4271378728174 -0.70710678118654757 0.70710678118654746 
8 -119999774.99928075 120000225.00071925
1 225.00071925385276 110 -1 0 
1 367.6999317403172 1534.4271378728174 -0.70710678118654757 0.70710678118654746 
1 1216.228069160318 1534.4271378728174 -0.70710678118654757 0.70710678118654746 
Curves 54
1 -367.69993174031725 162.62913697218272 115 -0.70710678118654757 0.70710678118654746 0 
1 424.25813742000003 -629.32893218813444 225 0 0 1 
1 219.19920523186545 -424.26999999999987 225 -0 0 -1 
1 268.69617132718281 -473.76696609531717 205 -0.70710678118654757 0.70710678118654746 0 
8 0 1200.0083881053065
1 424.25813742000003 -629.32893218813444 115 0.70710678118654791 0.70710678118654724 0 
1 424.26406871000017 -1272.792206135 115 -0 1 0 
8 0 1490.0055110915114
1 1272.7922061300007 629.32300089813521 114.99999999999999 -0.70710678118654768 -0.70710678118654735 9.5374511096886925e-18 
1 424.26406871000017 219.205136521866 87.5 0 0 1 
8 0 1200.0083881053065
1 1272.792206130001 219.20513652186565 205 -0.70710678118654791 -0.70710678118654724 0 
8 0 1490.0055110915116
1 219.19920523186545 -424.26999999999987 205 0.70710678118654757 0.70710678118654757 0 
1 424.2640687100004 629.32300089813566 87.5 -0 0 -1 
8 0 2545.584412260002
1 -1272.792206130001 -1272.792206135 205 1 0 0 
1 424.26406871000017 -1272.792206135 255 0 1 0 
1 49.494000447817314 -1004.0930691603173 205 -0.70710678118654746 -0.70710678118654757 0 
1 -49.496966095317475 -692.96617132718279 205 0.70710678118654757 0.70710678118654757 -0 
8 0 643.46920523686435
1 424.26406871000017 1272.792206135 205 2.6501696614937613e-16 -1 0 
8 0 2545.584412260002
1 1272.792206130001 1272.792206135 205 -1 0 0 
1 -424.26406871000017 -1272.792206135 255 -0 1 0 
1 -898.0251035153176 155.56196609281739 205 -0.70710678118654757 -0.70710678118654757 0 
1 155.56789738531728 49.502897382817309 205 -0.70710678118654757 0.70710678118654746 0 
1 -1223.2982056821832 -579.82900045031715 205 0.70710678118654746 0.70710678118654757 -0 
8 0 1200.0083881053058
1 -1272.7922061300007 -219.20513652186492 205 0.70710678118654779 0.70710678118654724 0 
8 0 1490.0055110915114
1 -219.19920523186585 424.27000000000044 205 -0.70710678118654746 -0.70710678118654746 0 
8 0 643.46920523686526
1 -424.26406871000017 -629.32300089813475 205 0 -1 0 
8 0 1490.0138992022717
1 629.32893218813479 424.27000000000044 205 -0.70710678118654768 -0.70710678118654724 0 
8 0 1490.0138992022717
1 -629.32893218813524 -424.26999999999987 205 0.70710678118654791 0.70710678118654724 0 
8 0 1490.0138992022717
1 -424.27000000000066 -629.32893218813444 115 0.70710678118654768 0.70710678118654724 0 
1 -219.19920523186582 424.27000000000021 225 -0 0 1 
8 0 2545.584412260002
1 1272.792206130001 -1272.792206135 -50 -1 0 0 
1 -424.26406871000017 -1272.792206135 0 0 0 1 
1 424.26406871000017 -1272.792206135 0 0 0 1 
8 0 2545.58441227
1 424.26406871000017 -1272.792206135 -50 0 1 0 
1 424.26406871000017 1272.792206135 0 0 0 1 
1 424.26406871000017 -219.20513652186497 87.5 -0 0 -1 
1 424.26406871000017 0 115 -0 1 0 
1 424.26406871000017 -629.3230008981343 87.5 0 0 1 
8 0 2545.58441227
1 -424.26406871000017 -1272.792206135 -50 0 1 0 
1 -424.26406871000017 1272.792206135 0 0 0 1 
1 -424.26406871000017 629.32300089813498 87.5 -0 0 -1 
1 -424.26406871000017 -1272.792206135 115 -0 1 0 
1 -424.26406871000017 219.20513652186582 87.5 0 0 1 
1 -424.26406871000017 -219.20513652186509 87.5 -0 0 -1 
1 -424.26406871000017 -1272.792206135 115 -0 1 0 
1 -424.26406871000017 -629.32300089813475 87.5 0 0 1 
8 0 1490.0055110915109
1 -1272.792206130001 -629.32300089813475 115 0.70710678118654757 0.70710678118654757 0 
1 -424.25813742000025 629.32893218813456 225 0 0 -1 
8 0 1490.0138992022717
1 424.27000000000049 629.32893218813479 115 -0.70710678118654791 -0.70710678118654724 0 
1 -56.564136969682806 261.63493173781745 115 -0.70710678118654757 0.70710678118654746 0 
8 0 2545.584412260002
1 1272.792206130001 1272.792206135 -50 -1 0 0 
1 586.89913697218265 -56.570068259682941 114.99999999999999 -0.70710678118654757 -0.70710678118654757 0 
1 685.89010351531738 -367.69696609281721 115 -0.70710678118654746 -0.70710678118654757 0 
1 -1110.1571378703177 -56.570068262182758 114.99999999999999 -0.70710678118654757 -0.70710678118654757 0 
1 -1435.430240037183 -791.96103480531724 115 -0.70710678118654746 -0.70710678118654757 0 
8 0 1200.008388105306
1 -424.2581374200002 629.32893218813479 115 -0.70710678118654802 -0.70710678118654713 -1.184229615064569e-17 
Polygon3D 0
PolygonOnTriangulations 0
Surfaces 20
1 -632.86446609406721 -420.73446609406722 0 -0.70710678118654746 -0.70710678118654757 0 -0.70710678118654757 0.70710678118654746 0 -0 0 -1 
1 -424.26406871 1272.792206135 115 0 0 1 1 0 -0 -0 1 0 
1 -424.26406871 1272.792206135 115 0 0 1 1 0 -0 -0 1 0 
1 -427.80553390593275 -632.86446609406721 0 0.70710678118654757 -0.70710678118654746 0 0.70710678118654746 0.70710678118654757 0 -0 0 1 
1 427.79960261593237 -215.66960261593303 225 -0.70710678118654757 0.70710678118654757 0 -0.70710678118654757 -0.70710678118654757 0 0 0 1 
1 -424.26406871000017 -1272.792206135 255 0 0 1 1 0 -0 -0 1 0 
1 -424.26406871 -1272.792206135 0 0 0 1 1 0 -0 -0 1 0 
1 -424.26406871 -1272.792206135 0 0 0 1 1 0 -0 -0 1 0 
1 424.26406871000017 -1272.792206135 0 1 0 -0 0 0 1 0 -1 0 
1 -427.80553390593275 -632.86446609406721 0 0.70710678118654757 -0.70710678118654746 0 0.70710678118654746 0.70710678118654757 0 -0 0 1 
1 427.79960261593237 -215.66960261593303 225 -0.70710678118654757 0.70710678118654757 0 -0.70710678118654757 -0.70710678118654757 0 0 0 1 
1 -424.26406871000017 -1272.792206135 0 1 0 -0 0 0 1 0 -1 0 
1 427.79960261593271 632.85853480406718 225 -0.70710678118654757 0.70710678118654757 0 -0.70710678118654757 -0.70710678118654757 0 0 0 1 
1 632.86446609406721 420.73446609406722 0 0.70710678118654746 0.70710678118654757 0 0.70710678118654757 -0.70710678118654746 0 0 0 -1 
1 -427.80553390593275 -632.86446609406721 0 0.70710678118654757 -0.70710678118654746 0 0.70710678118654746 0.70710678118654757 0 -0 0 1 
1 -424.26406871000017 -1272.792206135 0 -0 1 0 0 0 1 1 0 -0 
1 -424.26406871000017 -1272.792206135 0 0 0 1 1 0 -0 -0 1 0 
1 -424.26406871000017 1272.792206135 0 -0 1 0 0 0 1 1 0 -0 
1 -424.26406871 -1272.792206135 0 0 0 1 1 0 -0 -0 1 0 
1 -424.26406871 -1272.792206135 0 0 0 1 1 0 -0 -0 1 0 
Triangulations 0

TShapes 166
Ve
1.02469507659596e-07
219.199205231865 -424.27 115
0 0

0101101
*
Ve
1.02469507659596e-07
424.25813742 -629.328932188134 115
0 0

0101101
*
Ed
 1e-07 1 1 0
1  1 0 -1119.99784223733 -830.000719251125
2  1 1 4 -1119.99784223733 -830.000719251125
2  2 2 0 -1119.99784223733 -830.000719251125
2  3 3 0 -1119.99784223733 -830.000719251125
0

0101000
-166 0 +165 0 *
Ve
1.02469507659596e-07
424.25813742 -629.328932188134 205
0 0

0101101
*
Ed
 1e-07 1 1 0
1  2 0 -110 -20
2  4 1 4 -110 -20
2  5 4 4 -110 -20
0

0101000
-163 0 +165 0 *
Ve
1.02469507659596e-07
219.199205231865 -424.27 205
0 0

0101101
*
Ed
 1e-07 1 1 0
1  3 0 20 110
2  6 1 4 20 110
2  7 5 0 20 110
0

0101000
-166 0 +161 0 *
Ed
 1e-07 1 1 0
1  4 0 -219.997842237886 69.999280748319
2  8 1 4 -219.997842237886 69.999280748319
2  9 6 5 -219.997842237886 69.999280748319
2  10 7 6 -219.997842237886 69.999280748319
0

0101000
+163 0 -161 0 *
Wi

0101100
-164 0 +162 0 +160 0 +159 0 *
Fa
0  1e-07 1 4

0101000
+158 0 *
Ve
2.00001e-07
424.26406871 219.205136521866 115
0 0

0101101
*
Ed
 1e-07 1 1 0
1  5 0 0 1200.00838810531
0

0101000
+165 0 -156 7 *
Ve
2.00001e-07
424.26406871 629.323000898135 115
0 0

0101101
*
Ed
 1e-07 1 1 0
1  6 0 1491.99734265687 1902.11520703314
2  11 8 8 1491.99734265687 1902.11520703314
2  12 9 5 1491.99734265687 1902.11520703314
2  13 3 9 1491.99734265687 1902.11520703314
0

0101000
+156 0 -154 0 *
Ed
 1e-07 1 1 0
1  7 0 0 1490.00551109151
0

0101000
+154 7 -166 0 *
Wi

0101100
-164 0 +155 0 +153 7 +152 0 *
Fa
0  1e-07 3 0

0111000
+151 0 *
Ve
1.00000056843419e-07
424.26406871 219.205136521866 205
0 0

0101101
*
Ed
 1e-07 1 1 0
1  8 0 27.5 117.5
2  14 10 11 27.5 117.5
2  15 9 5 27.5 117.5
2  16 4 12 27.5 117.5
0

0101000
+156 0 -149 0 *
Ed
 1e-07 1 1 0
1  9 0 0 1200.00838810531
0

0101000
+149 7 -163 0 *
Wi

0101100
-162 0 +155 0 +148 7 +147 0 *
Fa
0  1e-07 4 4

0111000
+146 0 *
Ve
1.00000170530257e-07
424.26406871 629.323000898136 205
0 0

0101101
*
Ed
 1e-07 1 1 0
1  10 0 0 1490.00551109151
0

0101000
+161 0 -144 7 *
Ed
 1e-07 1 1 0
1  11 0 -117.5 -27.5
2  17 11 13 -117.5 -27.5
2  18 9 5 -117.5 -27.5
2  19 5 9 -117.5 -27.5
0

0101000
+144 0 -154 0 *
Wi

0101100
-160 0 +143 0 +142 7 +152 0 *
Fa
0  1e-07 5 0

0111000
+141 0 *
Ve
1e-07
-424.26406871 -1272.792206135 205
0 0

0101101
*
Ve
1e-07
424.26406871 -1272.792206135 205
0 0

0101101
*
Ed
 1e-07 1 1 0
1  12 0 0 2545.58441226
0

0101000
+139 14 -138 7 *
Ve
1e-07
424.26406871 1277.792206135 205
0 0

0101101
*
Ed
 1e-07 1 1 0
1  13 0 0 5
2  20 9 0 0 5
2  21 6 0 0 5
2  22 7 18 0 5
2  23 7 19 0 5
2  24 9 20 0 5
2  25 7 21 0 5
0

0101000
+138 22 -136 23 *
Ve
1.00000063552874e-07
424.26406871 -629.323000898135 205
0 0

0101101
*
Ed
 1e-07 1 1 0
1  13 0 5 643.469205236865
2  26 6 0 5 643.469205236865
2  27 7 25 5 643.469205236865
2  28 9 0 5 643.469205236865
2  29 7 26 5 643.469205236865
0

0101000
+136 27 -134 28 *
Ed
 1e-07 1 1 0
1  14 0 -530.00491330787 -529.996525197109
2  30 4 4 -530.00491330787 -529.996525197109
2  31 6 5 -530.00491330787 -529.996525197109
2  32 7 6 -530.00491330787 -529.996525197109
2  33 7 29 -530.00491330787 -529.996525197109
0

0101000
+134 0 -163 0 *
Ed
 1e-07 1 1 0
1  4 0 -219.997842237886 69.999280748319
2  34 1 4 -219.997842237886 69.999280748319
2  35 6 5 -219.997842237886 69.999280748319
2  36 7 6 -219.997842237886 69.999280748319
2  37 7 29 -219.997842237886 69.999280748319
0

0101000
+163 0 -161 0 *
Ve
1.00000113686838e-07
424.26406871 -219.205136521865 205
0 0

0101101
*
Ed
 1e-07 1 1 0
1  15 0 379.993769648627 669.999280745592
2  38 5 0 379.993769648627 669.999280745592
2  39 6 5 379.993769648627 669.999280745592
2  40 7 6 379.993769648627 669.999280745592
2  41 7 29 379.993769648627 669.999280745592
0

0101000
+161 0 -130 0 *
Ed
 1e-07 1 1 0
1  13 0 1053.58706961314 1491.99734265687
2  42 6 0 1053.58706961314 1491.99734265687
2  43 7 25 1053.58706961314 1491.99734265687
2  44 9 0 1053.58706961314 1491.99734265687
2  45 7 26 1053.58706961314 1491.99734265687
0

0101000
+130 28 -149 28 *
Ve
1e-07
424.26406871 1272.792206135 205
0 0

0101101
*
Ed
 1e-07 1 1 0
1  16 0 0 643.469205236864
2  46 7 6 0 643.469205236864
2  47 9 5 0 643.469205236864
2  48 7 29 0 643.469205236864
0

0101000
-144 0 +127 0 *
Ve
1e-07
-424.26406871 1272.792206135 205
0 0

0101101
*
Ed
 1e-07 1 1 0
1  17 0 0 2545.58441226
0

0101000
+127 7 -125 14 *
Ve
1e-07
-424.26406871 -1277.792206135 205
0 0

0101101
*
Ed
 1e-07 1 1 0
1  18 0 2540.58441227 2545.58441227
2  49 12 0 2540.58441227 2545.58441227
2  50 6 0 2540.58441227 2545.58441227
2  51 7 33 2540.58441227 2545.58441227
2  52 12 34 2540.58441227 2545.58441227
2  53 7 35 2540.58441227 2545.58441227
2  54 7 36 2540.58441227 2545.58441227
0

0101000
-125 37 +123 38 *
Ve
1.00000056843419e-07
-424.26406871 629.323000898135 205
0 0

0101101
*
Ed
 1e-07 1 1 0
1  18 0 1902.11520703313 2540.58441227
2  55 6 0 1902.11520703313 2540.58441227
2  56 12 0 1902.11520703313 2540.58441227
2  57 7 25 1902.11520703313 2540.58441227
2  58 7 40 1902.11520703313 2540.58441227
0

0101000
-123 41 +121 28 *
Ve
1.02469507659596e-07
-424.25813742 629.328932188135 205
0 0

0101101
*
Ed
 1e-07 1 1 0
1  19 0 -670.007668856352 -669.999280745592
2  59 13 13 -670.007668856352 -669.999280745592
2  60 6 5 -670.007668856352 -669.999280745592
2  61 7 6 -670.007668856352 -669.999280745592
2  62 7 42 -670.007668856352 -669.999280745592
0

0101000
-121 0 +119 0 *
Ve
1.02469507659596e-07
-219.199205231866 424.27 205
0 0

0101101
*
Ed
 1e-07 1 1 0
1  20 0 530.00071925249 819.997842238694
2  63 14 44 530.00071925249 819.997842238694
2  64 6 5 530.00071925249 819.997842238694
2  65 7 6 530.00071925249 819.997842238694
2  66 7 42 530.00071925249 819.997842238694
0

0101000
-119 0 +117 0 *
Ve
1.00000056843419e-07
-424.26406871 219.205136521866 205
0 0

0101101
*
Ed
 1e-07 1 1 0
1  21 0 1130.00491330514 1420.01042440211
2  67 15 45 1130.00491330514 1420.01042440211
2  68 6 5 1130.00491330514 1420.01042440211
2  69 7 6 1130.00491330514 1420.01042440211
2  70 7 42 1130.00491330514 1420.01042440211
0

0101000
-117 0 +115 0 *
Ve
1.00000056843419e-07
-424.26406871 -219.205136521865 205
0 0

0101101
*
Ed
 1e-07 1 1 0
1  18 0 1053.58706961314 1491.99734265687
2  71 6 0 1053.58706961314 1491.99734265687
2  72 12 0 1053.58706961314 1491.99734265687
2  73 7 25 1053.58706961314 1491.99734265687
2  74 7 40 1053.58706961314 1491.99734265687
0

0101000
-115 28 +113 28 *
Ed
 1e-07 1 1 0
1  22 0 0 1200.00838810531
0

0101000
+113 14 -119 0 *
Ed
 1e-07 1 1 0
1  20 0 530.00071925249 819.997842238694
2  75 14 44 530.00071925249 819.997842238694
2  76 6 5 530.00071925249 819.997842238694
2  77 7 6 530.00071925249 819.997842238694
0

0101000
-119 0 +117 0 *
Ve
1e-07
-424.26406871 -629.323000898135 205
0 0

0101101
*
Ed
 1e-07 1 1 0
1  23 0 0 1490.00551109151
0

0101000
+117 0 -109 14 *
Ed
 1e-07 1 1 0
1  24 0 0 643.469205236865
2  78 7 6 0 643.469205236865
2  79 12 5 0 643.469205236865
2  80 7 42 0 643.469205236865
0

0101000
+109 0 -139 0 *
Wi

0101100
+137 0 +135 17 +133 24 +132 7 +131 7 +129 7 +128 24 +147 0 +159 0 +143 0 
-126 7 +124 0 -122 32 -120 39 -118 14 -116 14 -114 14 -112 39 +111 0 -110 0 
+108 0 +107 14 *
Ed
 1e-07 1 1 0
1  25 0 0 1490.01389920227
0

0101000
+117 7 -163 14 *
Ed
 1e-07 1 1 0
1  4 0 -219.997842237886 69.999280748319
2  81 1 4 -219.997842237886 69.999280748319
2  82 6 5 -219.997842237886 69.999280748319
2  83 7 6 -219.997842237886 69.999280748319
2  84 7 42 -219.997842237886 69.999280748319
0

0101000
+163 0 -161 0 *
Ed
 1e-07 1 1 0
1  26 0 0 1490.01389920227
0

0101000
+161 14 -119 7 *
Ed
 1e-07 1 1 0
1  20 0 530.00071925249 819.997842238694
2  85 14 44 530.00071925249 819.997842238694
2  86 6 5 530.00071925249 819.997842238694
2  87 7 6 530.00071925249 819.997842238694
2  88 7 29 530.00071925249 819.997842238694
0

0101000
-119 0 +117 0 *
Wi

0101100
+105 0 +104 14 +103 0 -102 7 *
Fa
0  1e-07 7 6

0111000
+106 0 +101 0 *
Ed
 1e-07 1 1 0
1  2 0 -110 -20
2  89 1 4 -110 -20
2  90 4 4 -110 -20
2  91 10 46 -110 -20
0

0101000
-163 0 +165 0 *
Ve
1.02469507659596e-07
-219.199205231866 424.27 115
0 0

0101101
*
Ed
 1e-07 1 1 0
1  27 0 0 1490.01389920227
0

0101000
+165 14 -98 7 *
Ed
 1e-07 1 1 0
1  28 0 -110 -20
2  92 15 45 -110 -20
2  93 14 44 -110 -20
2  94 10 47 -110 -20
0

0101000
+98 0 -117 0 *
Wi

0101100
+105 0 -99 14 +97 0 +96 7 *
Fa
0  1e-07 10 11

0111000
+95 0 *
Ve
1e-07
424.26406871 -1272.792206135 -50
0 0

0101101
*
Ve
1e-07
-424.26406871 -1272.792206135 -50
0 0

0101101
*
Ed
 1e-07 1 1 0
1  29 0 0 2545.58441226
0

0101000
+93 7 -92 14 *
Ed
 1e-07 1 1 0
1  30 0 0 255
2  95 12 0 0 255
2  96 16 0 0 255
2  97 16 20 0 255
2  98 12 20 0 255
2  99 16 49 0 255
0

0101000
+92 22 -139 22 *
Ed
 1e-07 1 1 0
1  31 0 0 255
2  100 9 0 0 255
2  101 16 0 0 255
2  102 16 20 0 255
2  103 9 20 0 255
2  104 16 50 0 255
0

0101000
-138 22 +93 22 *
Wi

0101100
+91 0 +90 48 +137 0 -89 17 *
Fa
0  1e-07 16 5

0111000
+88 0 *
Ve
1e-07
424.26406871 1272.792206135 -50
0 0

0101101
*
Ed
 1e-07 1 1 0
1  32 0 0 2545.58441227
2  105 9 5 0 2545.58441227
2  106 17 5 0 2545.58441227
2  107 17 52 0 2545.58441227
0

0101000
+93 0 -86 0 *
Ed
 1e-07 1 1 0
1  33 0 0 255
2  108 9 0 0 255
2  109 18 0 0 255
2  110 9 34 0 255
2  111 18 34 0 255
0

0101000
-127 37 +86 37 *
Ve
2.00001e-07
424.26406871 -219.205136521865 115
0 0

0101101
*
Ed
 1e-07 1 1 0
1  34 0 -117.5 -27.5
2  112 5 0 -117.5 -27.5
2  113 9 5 -117.5 -27.5
0

0101000
+130 0 -83 0 *
Ve
2.00001e-07
424.26406871 -629.323000898134 115
0 0

0101101
*
Ed
 1e-07 1 1 0
1  35 0 -629.323000898134 -219.205136521865
2  114 3 0 -629.323000898134 -219.205136521865
2  115 9 5 -629.323000898134 -219.205136521865
0

0101000
-83 0 +81 0 *
Ed
 1e-07 1 1 0
1  36 0 27.5 117.5
2  116 4 4 27.5 117.5
2  117 9 5 27.5 117.5
0

0101000
+81 0 -134 0 *
Wi

0101100
-133 5 -135 51 -89 51 +85 0 +84 53 +126 0 +142 0 -153 0 +148 0 -128 5 
+82 0 -80 0 +79 0 *
Fa
0  1e-07 9 5

0101000
+78 0 *
Ve
1e-07
-424.26406871 1272.792206135 -50
0 0

0101101
*
Ed
 1e-07 1 1 0
1  37 0 0 2545.58441227
2  118 12 5 0 2545.58441227
2  119 17 5 0 2545.58441227
2  120 17 54 0 2545.58441227
0

0101000
-76 0 +92 0 *
Ed
 1e-07 1 1 0
1  38 0 0 255
2  121 12 0 0 255
2  122 18 0 0 255
2  123 18 34 0 255
2  124 12 34 0 255
2  125 18 55 0 255
0

0101000
+76 37 -125 37 *
Ve
2.00001e-07
-424.26406871 629.323000898135 115
0 0

0101101
*
Ed
 1e-07 1 1 0
1  39 0 -117.5 -27.5
2  126 13 13 -117.5 -27.5
2  127 12 5 -117.5 -27.5
0

0101000
+121 0 -73 0 *
Ve
2.00001e-07
-424.26406871 219.205136521866 115
0 0

0101101
*
Ed
 1e-07 1 1 0
1  40 0 1491.99734265687 1902.11520703313
2  128 19 56 1491.99734265687 1902.11520703313
2  129 12 5 1491.99734265687 1902.11520703313
0

0101000
-73 0 +71 0 *
Ed
 1e-07 1 1 0
1  41 0 27.5 117.5
2  130 15 45 27.5 117.5
2  131 12 5 27.5 117.5
0

0101000
+71 0 -115 0 *
Ve
2.00001e-07
-424.26406871 -219.205136521865 115
0 0

0101101
*
Ed
 1e-07 1 1 0
1  42 0 -117.5 -27.5
2  132 12 5 -117.5 -27.5
2  133 11 13 -117.5 -27.5
0

0101000
-68 0 +113 0 *
Ve
2.00001e-07
-424.26406871 -629.323000898135 115
0 0

0101101
*
Ed
 1e-07 1 1 0
1  43 0 643.469205236865 1053.58706961314
2  134 12 5 643.469205236865 1053.58706961314
2  135 8 8 643.469205236865 1053.58706961314
0

0101000
-68 0 +66 0 *
Ed
 1e-07 1 1 0
1  44 0 27.5 117.5
2  136 12 5 27.5 117.5
2  137 10 11 27.5 117.5
0

0101000
-109 0 +66 0 *
Wi

0101100
+107 0 -90 51 +75 0 +74 53 -122 53 -120 5 +72 0 -70 0 +69 0 -112 5 
+67 0 -65 0 +64 0 *
Fa
0  1e-07 12 5

0101000
+63 0 *
Ed
 1e-07 1 1 0
1  45 0 0 1490.00551109151
0

0101000
+66 14 -98 0 *
Ed
 1e-07 1 1 0
1  28 0 -110 -20
2  138 15 45 -110 -20
2  139 14 44 -110 -20
2  140 10 57 -110 -20
0

0101000
+98 0 -117 0 *
Wi

0101100
-64 14 +61 0 +60 0 +108 0 *
Fa
0  1e-07 10 57

0111000
+59 0 *
Ed
 1e-07 1 1 0
1  3 0 20 110
2  141 1 4 20 110
2  142 5 0 20 110
0

0101000
-166 0 +161 0 *
Ve
1.02469507659596e-07
-424.25813742 629.328932188135 115
0 0

0101101
*
Ed
 1e-07 1 1 0
1  46 0 20 110
2  143 13 13 20 110
2  144 14 44 20 110
2  145 5 58 20 110
0

0101000
+119 0 -56 0 *
Ed
 1e-07 1 1 0
1  47 0 0 1490.01389920227
0

0101000
+56 7 -166 14 *
Wi

0101100
-57 14 +103 0 +55 7 +54 0 *
Fa
0  1e-07 5 14

0111000
+53 0 *
Ed
 1e-07 1 1 0
1  1 0 -1119.99784223733 -830.000719251125
2  146 1 4 -1119.99784223733 -830.000719251125
2  147 3 0 -1119.99784223733 -830.000719251125
2  148 2 0 -1119.99784223733 -830.000719251125
2  149 8 59 -1119.99784223733 -830.000719251125
0

0101000
-166 0 +165 0 *
Wi

0101100
-51 0 +99 0 +57 0 +104 0 *
Fa
0  1e-07 1 4

0101000
+50 0 *
Ed
 1e-07 1 1 0
1  48 0 230.000719253853 519.997842240058
2  150 19 56 230.000719253853 519.997842240058
2  151 14 44 230.000719253853 519.997842240058
2  152 20 8 230.000719253853 519.997842240058
2  153 8 60 230.000719253853 519.997842240058
0

0101000
+98 0 -56 0 *
Wi

0101100
-51 14 +97 0 +48 7 +54 0 *
Fa
0  1e-07 8 8

0111000
+47 0 *
Ed
 1e-07 1 1 0
1  49 0 0 2545.58441226
0

0101000
+86 7 -76 14 *
Wi

0101100
-91 0 +85 7 +45 0 -75 14 *
Fa
0  1e-07 17 5

0111000
+44 0 *
Wi

0101100
-102 0 -96 0 -55 0 +48 0 *
Fa
0  1e-07 14 44

0101000
+42 0 *
Wi

0101100
+45 0 +74 32 -124 0 -84 61 *
Fa
0  1e-07 18 24

0111000
+40 0 *
Ed
 1e-07 1 1 0
1  3 0 20 110
2  154 1 4 20 110
2  155 5 0 20 110
0

0101000
+161 0 -166 0 *
Ed
 1e-07 1 1 0
1  50 0 230.000719253853 520.006230350818
2  156 3 0 230.000719253853 520.006230350818
2  157 5 0 230.000719253853 520.006230350818
2  158 2 0 230.000719253853 520.006230350818
0

0101000
+83 0 -166 0 *
Wi

0101100
-38 0 +37 0 +82 0 +129 0 *
Fa
0  1e-07 5 0

0101000
+36 0 *
Ed
 1e-07 1 1 0
1  1 0 -1119.99784223733 -830.000719251125
2  159 1 4 -1119.99784223733 -830.000719251125
2  160 3 0 -1119.99784223733 -830.000719251125
2  161 2 0 -1119.99784223733 -830.000719251125
0

0101000
+165 0 -166 0 *
Ed
 1e-07 1 1 0
1  2 0 -110 -20
2  162 1 4 -110 -20
2  163 4 4 -110 -20
0

0101000
+165 0 -163 0 *
Wi

0101100
-34 0 +33 0 +38 0 +131 0 *
Fa
0  1e-07 1 4

0101000
+32 0 *
Ed
 1e-07 1 1 0
1  51 0 369.995086691575 370.003474802335
2  164 4 4 369.995086691575 370.003474802335
2  165 3 0 369.995086691575 370.003474802335
2  166 2 0 369.995086691575 370.003474802335
0

0101000
+81 0 -165 0 *
Wi

0101100
-33 0 +132 0 +79 0 -30 0 *
Fa
0  1e-07 4 4

0101000
+29 0 *
Wi

0101100
-34 0 +37 0 +80 0 -30 0 *
Fa
0  1e-07 3 0

0111000
+27 0 *
Ed
 1e-07 1 1 0
1  52 0 -970.007668854989 -969.999280744228
2  167 19 56 -970.007668854989 -969.999280744228
2  168 13 13 -970.007668854989 -969.999280744228
2  169 20 8 -970.007668854989 -969.999280744228
0

0101000
+56 0 -73 0 *
Ed
 1e-07 1 1 0
1  46 0 20 110
2  170 13 13 20 110
2  171 14 44 20 110
0

0101000
+119 0 -56 0 *
Wi

0101100
-118 0 -72 0 +25 0 +24 0 *
Fa
0  1e-07 13 13

0101000
+23 0 *
Ed
 1e-07 1 1 0
1  48 0 230.000719253853 519.997842240058
2  172 19 56 230.000719253853 519.997842240058
2  173 14 44 230.000719253853 519.997842240058
2  174 20 8 230.000719253853 519.997842240058
0

0101000
+98 0 -56 0 *
Ed
 1e-07 1 1 0
1  53 0 -1720.01042440074 -1430.00491330378
2  175 15 45 -1720.01042440074 -1430.00491330378
2  176 19 56 -1720.01042440074 -1430.00491330378
2  177 20 8 -1720.01042440074 -1430.00491330378
0

0101000
+98 0 -71 0 *
Wi

0101100
+21 0 -20 0 -70 0 +25 0 *
Fa
0  1e-07 19 56

0111000
+19 0 *
Ed
 1e-07 1 1 0
1  28 0 -110 -20
2  178 15 45 -110 -20
2  179 14 44 -110 -20
0

0101000
+98 0 -117 0 *
Wi

0101100
-114 0 +17 0 -20 0 -69 0 *
Fa
0  1e-07 15 45

0101000
+16 0 *
Ed
 1e-07 1 1 0
1  46 0 20 110
2  180 13 13 20 110
2  181 14 44 20 110
2  182 11 62 20 110
0

0101000
+119 0 -56 0 *
Ed
 1e-07 1 1 0
1  54 0 0 1200.00838810531
0

0101000
+56 0 -68 14 *
Wi

0101100
+111 0 +14 0 +13 0 -67 14 *
Fa
0  1e-07 11 62

0111000
+12 0 *
Ed
 1e-07 1 1 0
1  48 0 230.000719253853 519.997842240058
2  183 19 56 230.000719253853 519.997842240058
2  184 14 44 230.000719253853 519.997842240058
2  185 20 8 230.000719253853 519.997842240058
2  186 8 63 230.000719253853 519.997842240058
0

0101000
+98 0 -56 0 *
Wi

0101100
-65 14 +61 0 +10 0 +13 0 *
Fa
0  1e-07 8 63

0111000
+9 0 *
Wi

0101100
-110 0 -60 0 -14 0 +10 0 *
Fa
0  1e-07 14 44

0101000
+7 0 *
Wi

0101100
-116 0 -17 0 -24 0 +21 0 *
Fa
0  1e-07 14 44

0101000
+5 0 *
Sh

0101100
-157 0 +150 0 -145 0 -140 0 +100 0 -94 0 -87 0 +77 7 -62 14 -58 0 
-52 0 -49 14 +46 0 -43 0 -41 7 +39 0 -35 7 -31 7 -28 7 +26 7 
-22 14 +18 14 -15 14 -11 0 +8 0 -6 0 -4 14 *
So

0100000
+3 0 *
Co

1100000
+2 0 *

+1 0 