DBRep_DrawableShape

CASCADE Topology V1, (c) Matra-Datavision
Locations 9
1
              1              -0               0              -0 
              0               1               0               0 
             -0               0               1        9.500001 
1
              1               0               0               0 
              0               1               0               0 
              0               0               1 -9.999999992516e-07 
2  1 1 2 1 0
1
              1               0               0               0 
              0               1               0               0 
              0               0               1             3.5 
2  1 1 2 1 4 1 0
2  2 -1 1 -1 0
2  4 -1 2 -1 1 -1 0
2  1 -1 0
2  2 1 4 1 0
Curve2ds 90
1 4.6308932044917173 0 0 -1 
1 4.6746467394208064 0 0 -1 
1 4.9439189919095679 0 0 -1 
1 4.9901018202173892 0 0 -1 
1 0 0 1 0 
1 0 -3.5 1 0 
2 8.9755300206145474 8.9285317259289503 -1 0 0 1 8.2600866846295773
1 5.715393143128745 0 0 -1 
1 5.7146352620340819 0 0 -1 
1 0 0 1 0 
1 0 -3.5 1 0 
2 8.0277561851188466 4.212988425382429 -1 0 0 1 3.4565735632238592
1 6.0638242515412566 0 0 -1 
1 6.1075284929649731 0 0 -1 
1 0 0 1 0 
1 0 -3.5 1 0 
2 7.673405047113957 3.9896934262457346 -1 0 0 1 3.0377426253601252
1 6.3095547749942087 0 0 -1 
1 0 0 0 -1 
1 0 0 1 0 
1 0 -3.5 1 0 
2 19.052290754475806 5.8744926295711126 -1 0 0 1 14.568006884283697
1 6.1554140000000004 0 0 -1 
1 0 0 0 -1 
1 0 0 1 0 
1 0 -3.5 1 0 
1 4.4893485000000002 6.2585987000000003 0 1 
1 2.2828026000000001 0 0 -1 
1 0 0 0 -1 
1 0 0 1 0 
1 0 -3.5 1 0 
1 4.4893485000000002 12.414012700000001 1 0 
1 3.1249905649082805 0 0 -1 
1 6.2726115000000009 0 0 -1 
1 0 0 1 0 
1 0 -3.5 1 0 
1 6.7721511000000003 12.414012700000001 0 -1 
1 3.213736049082752 0 0 -1 
1 3.1683886633566658 0 0 -1 
1 0 0 1 0 
1 0 -3.5 1 0 
2 25.386130824733083 5.8323418620976559 1 0 -0 1 18.616545298930166
1 4.2076252762953574 0 0 -1 
1 4.3013796345861417 0 0 -1 
1 0 0 1 0 
1 0 -3.5 1 0 
2 8.7255357423185291 4.5415720888821181 1 0 -0 1 1.9082097735763295
1 5.1133566292951942 0 0 -1 
1 5.2077099995331642 0 0 -1 
1 0 0 1 0 
1 0 -3.5 1 0 
2 8.9577793548640248 5.5215690680947658 1 0 -0 1 2.8909997482346785
1 6.1318437117600109 0 0 -1 
1 6.1625452137566654 0 0 -1 
1 0 0 1 0 
1 0 -3.5 1 0 
2 9.3187586512638028 4.2803552654045536 1 0 -0 1 1.6145221166096331
1 6.3054592856032947 0 0 -1 
1 0 0 0 -1 
1 0 0 1 0 
1 0 -3.5 1 0 
2 -2.7760021013189529 5.6966651257046239 1 0 -0 1 13.791064541096638
1 6.4101911000000005 0 0 -1 
1 0 0 0 -1 
1 0 0 1 0 
1 0 -3.5 1 0 
1 11.0116415 6.0038216000000002 0 1 
1 2.2828026000000001 0 0 -1 
1 0 0 0 -1 
1 0 0 1 0 
1 0 -3.5 1 0 
1 11.0116415 12.414012700000001 1 0 
1 3.1122521616495828 0 0 -1 
1 6.0636943000000008 0 0 -1 
1 0 0 1 0 
1 0 -3.5 1 0 
1 13.2944441 12.414012700000001 0 -1 
1 3.295554975223681 0 0 -1 
1 3.31315151027888 0 0 -1 
1 0 0 1 0 
1 0 -3.5 1 0 
2 -2.7920680460672958 5.8781967346677479 -1 0 0 1 16.093438783940702
1 4.2181181401952035 0 0 -1 
1 4.2112218268273871 0 0 -1 
1 0 0 1 0 
1 0 -3.5 1 0 
2 10.06412395400026 3.9380997657158843 -1 0 0 1 3.0922757535328982
1 0 0 1 0 
1 0 -3.5 1 0 
2 9.4874464342852729 4.9463930079415031 -1 0 0 1 4.2535623987087172
Curves 36
1 9.6479473000000002 0.69585980000000003 9.5 0 0 1 
1 7.0801128999999996 0.88885349999999996 9.5 0 0 1 
2 8.9755300206145474 8.9285317259289503 0 0 0 -1 -1 0 -0 0 1 0 8.2600866846295773
1 5.1135523999999997 2.3541401 9.5 0 0 1 
2 8.0277561851188466 4.212988425382429 0 0 0 -1 -1 0 -0 0 1 0 3.4565735632238597
1 4.7084568000000004 3.3286623 9.5 0 0 1 
2 7.673405047113957 3.9896934262457346 0 0 0 -1 -1 0 -0 0 1 0 3.0377426253601247
1 4.4893485000000002 6.2585987000000003 9.5 0 0 1 
2 19.052290754475806 5.8744926295711126 0 0 0 -1 -1 0 -0 0 1 0 14.568006884283697
1 4.4893485000000002 12.414012700000001 9.5 0 0 1 
1 4.4893485000000002 6.2585987000000003 0 0 1 0 
1 6.7721511000000003 12.414012700000001 9.5 0 0 1 
1 4.4893485000000002 12.414012700000001 0 1 0 0 
1 6.7721511000000003 6.1414011999999998 9.5 0 0 1 
1 6.7721511000000003 12.414012700000001 0 0 -1 0 
1 6.8180110000000003 4.4904457999999998 9.5 0 0 1 
2 25.386130824733083 5.8323418620976559 0 0 0 1 1 0 -0 -0 1 0 18.61654529893017
1 7.8027243000000004 2.8713375000000001 9.5 0 0 1 
2 8.7255357423185291 4.5415720888821181 0 0 0 1 1 0 -0 -0 1 0 1.9082097735763297
1 10.0861638 2.8598726000000001 9.5 0 0 1 
2 8.9577793548640248 5.5215690680947658 0 0 0 1 1 0 -0 -0 1 0 2.8909997482346785
1 10.9148263 4.0369425999999997 9.5 0 0 1 
2 9.3187586512638028 4.2803552654045536 0 0 0 1 1 0 -0 -0 1 0 1.6145221166096329
1 11.0116415 6.0038216000000002 9.5 0 0 1 
2 -2.7760021013189529 5.6966651257046239 0 0 0 1 1 0 -0 -0 1 0 13.791064541096638
1 11.0116415 12.414012700000001 9.5 0 0 1 
1 11.0116415 6.0038216000000002 0 0 1 0 
1 13.2944441 12.414012700000001 9.5 0 0 1 
1 11.0116415 12.414012700000001 0 1 0 0 
1 13.2944441 6.3503183999999999 9.5 0 0 1 
1 13.2944441 12.414012700000001 0 0 -1 0 
1 13.111004599999999 3.4101910000000002 9.5 0 0 1 
2 -2.7920680460672958 5.8781967346677479 0 0 0 -1 -1 0 -0 0 1 0 16.093438783940702
1 11.531068299999999 1.2159234999999999 9.5 0 0 1 
2 10.06412395400026 3.9380997657158843 0 0 0 -1 -1 0 -0 0 1 0 3.0922757535328982
2 9.4874464342852729 4.9463930079415031 0 0 0 -1 -1 0 -0 0 1 0 4.2535623987087172
Polygon3D 0
PolygonOnTriangulations 108
2 1 2 
p 0.0401044242106365 1 0 3.5 
2 3 4 
p 0.0401044242106365 1 0 3.5 
2 3 4 
p 0.0401044242106365 1 0 3.5 
2 1 2 
p 0.0401044242106365 1 0 3.5 
4 2 7 8 4 
p 0.0401044242106365 1 4.63089320449172 4.735235133631 4.83957706277028 4.94391899190957 
4 1 5 6 3 
p 0.0401044242106365 1 4.63089320449172 4.735235133631 4.83957706277028 4.94391899190957 
4 1 3 4 2 
p 0.0401044242106365 1 4.63089320449172 4.735235133631 4.83957706277028 4.94391899190957 
4 11 12 13 10 
p 0.100000001490116 1 4.63089320449172 4.735235133631 4.83957706277028 4.94391899190957 
2 3 4 
p 0.0401044242106365 1 0 3.5 
2 1 2 
p 0.0401044242106365 1 0 3.5 
5 2 8 9 10 4 
p 0.0401044242106365 1 4.99010182021739 5.17142465094523 5.35274748167307 5.53407031240091 5.71539314312875 
5 1 5 6 7 3 
p 0.0401044242106365 1 4.99010182021739 5.17142465094523 5.35274748167307 5.53407031240091 5.71539314312875 
5 2 6 7 8 5 
p 0.0401044242106365 1 4.99010182021739 5.17142465094523 5.35274748167307 5.53407031240091 5.71539314312875 
5 17 18 19 20 16 
p 0.100000001490116 1 4.99010182021739 5.17142465094523 5.35274748167307 5.53407031240091 5.71539314312875 
2 3 4 
p 0.0401044242106365 1 0 3.5 
2 1 2 
p 0.0401044242106365 1 0 3.5 
4 1 5 6 3 
p 0.0401044242106365 1 5.71463526203408 5.83103159186981 5.94742792170553 6.06382425154126 
4 2 7 8 4 
p 0.0401044242106365 1 5.71463526203408 5.83103159186981 5.94742792170553 6.06382425154126 
4 5 10 11 9 
p 0.0401044242106365 1 5.71463526203408 5.83103159186981 5.94742792170553 6.06382425154126 
4 11 12 13 10 
p 0.100000001490116 1 5.71463526203408 5.83103159186981 5.94742792170553 6.06382425154126 
2 3 4 
p 0.0401044242106365 1 0 3.5 
2 1 2 
p 0.0401044242106365 1 0 3.5 
4 1 5 6 3 
p 0.0401044242106365 1 6.10752849296497 6.17487058697472 6.24221268098446 6.30955477499421 
4 2 7 8 4 
p 0.0401044242106365 1 6.10752849296497 6.17487058697472 6.24221268098446 6.30955477499421 
4 9 13 14 12 
p 0.0401044242106365 1 6.10752849296497 6.17487058697472 6.24221268098446 6.30955477499421 
4 10 11 12 9 
p 0.100000001490116 1 6.10752849296497 6.17487058697472 6.24221268098446 6.30955477499421 
2 3 4 
p 0.0401044242106365 1 0 3.5 
2 1 2 
p 0.0401044242106365 1 0 3.5 
2 1 3 
p 0.0401044242106365 1 0 6.155414 
2 2 4 
p 0.0401044242106365 1 0 6.155414 
2 12 15 
p 0.0401044242106365 1 0 6.155414 
2 4 3 
p 0.100000001490116 1 0 6.155414 
2 3 4 
p 0.0401044242106365 1 0 3.5 
2 1 2 
p 0.0401044242106365 1 0 3.5 
2 2 4 
p 0.0401044242106365 1 0 2.2828026 
2 1 3 
p 0.0401044242106365 1 0 2.2828026 
2 15 16 
p 0.0401044242106365 1 0 2.2828026 
2 4 3 
p 0.100000001490116 1 0 2.2828026 
2 1 2 
p 0.0401044242106365 1 0 3.5 
2 3 4 
p 0.0401044242106365 1 0 3.5 
2 2 4 
p 0.0401044242106365 1 0 6.2726115 
2 1 3 
p 0.0401044242106365 1 0 6.2726115 
2 16 17 
p 0.0401044242106365 1 0 6.2726115 
2 4 3 
p 0.100000001490116 1 0 6.2726115 
2 3 4 
p 0.0401044242106365 1 0 3.5 
2 1 2 
p 0.0401044242106365 1 0 3.5 
4 2 7 8 4 
p 0.0401044242106365 1 3.12499056490828 3.15457239296644 3.18415422102459 3.21373604908275 
4 1 5 6 3 
p 0.0401044242106365 1 3.12499056490828 3.15457239296644 3.18415422102459 3.21373604908275 
4 17 19 20 18 
p 0.0401044242106365 1 3.12499056490828 3.15457239296644 3.18415422102459 3.21373604908275 
4 10 11 12 9 
p 0.100000001490116 1 3.12499056490828 3.15457239296644 3.18415422102459 3.21373604908275 
2 3 4 
p 0.0401044242106365 1 0 3.5 
2 1 2 
p 0.0401044242106365 1 0 3.5 
6 1 5 6 7 8 3 
p 0.0401044242106365 1 3.16838866335667 3.3762359859444 3.58408330853214 3.79193063111988 3.99977795370762 4.20762527629536 
6 2 9 10 11 12 4 
p 0.0401044242106365 1 3.16838866335667 3.3762359859444 3.58408330853214 3.79193063111988 3.99977795370762 4.20762527629536 
6 18 22 23 24 25 21 
p 0.0401044242106365 1 3.16838866335667 3.3762359859444 3.58408330853214 3.79193063111988 3.99977795370762 4.20762527629536 
6 10 11 12 13 14 9 
p 0.100000001490116 1 3.16838866335667 3.3762359859444 3.58408330853214 3.79193063111988 3.99977795370762 4.20762527629536 
2 3 4 
p 0.0401044242106365 1 0 3.5 
2 1 2 
p 0.0401044242106365 1 0 3.5 
5 1 5 6 7 3 
p 0.0401044242106365 1 4.30137963458614 4.5043738832634 4.70736813194067 4.91036238061793 5.11335662929519 
5 2 8 9 10 4 
p 0.0401044242106365 1 4.30137963458614 4.5043738832634 4.70736813194067 4.91036238061793 5.11335662929519 
5 21 27 28 29 26 
p 0.0401044242106365 1 4.30137963458614 4.5043738832634 4.70736813194067 4.91036238061793 5.11335662929519 
5 15 16 17 18 14 
p 0.100000001490116 1 4.30137963458614 4.5043738832634 4.70736813194067 4.91036238061793 5.11335662929519 
2 3 4 
p 0.0401044242106365 1 0 3.5 
2 1 2 
p 0.0401044242106365 1 0 3.5 
5 1 5 6 7 3 
p 0.0401044242106365 1 5.20770999953316 5.43874342758988 5.66977685564659 5.9008102837033 6.13184371176001 
5 2 8 9 10 4 
p 0.0401044242106365 1 5.20770999953316 5.43874342758988 5.66977685564659 5.9008102837033 6.13184371176001 
5 26 31 32 33 30 
p 0.0401044242106365 1 5.20770999953316 5.43874342758988 5.66977685564659 5.9008102837033 6.13184371176001 
5 19 20 21 22 18 
p 0.100000001490116 1 5.20770999953316 5.43874342758988 5.66977685564659 5.9008102837033 6.13184371176001 
2 3 4 
p 0.0401044242106365 1 0 3.5 
2 1 2 
p 0.0401044242106365 1 0 3.5 
4 2 7 8 4 
p 0.0401044242106365 1 6.16254521375667 6.21018323770554 6.25782126165442 6.30545928560329 
4 1 5 6 3 
p 0.0401044242106365 1 6.16254521375667 6.21018323770554 6.25782126165442 6.30545928560329 
4 30 35 36 34 
p 0.0401044242106365 1 6.16254521375667 6.21018323770554 6.25782126165442 6.30545928560329 
4 11 12 13 10 
p 0.100000001490116 1 6.16254521375667 6.21018323770554 6.25782126165442 6.30545928560329 
2 3 4 
p 0.0401044242106365 1 0 3.5 
2 1 2 
p 0.0401044242106365 1 0 3.5 
2 2 4 
p 0.0401044242106365 1 0 6.4101911 
2 1 3 
p 0.0401044242106365 1 0 6.4101911 
2 34 37 
p 0.0401044242106365 1 0 6.4101911 
2 4 3 
p 0.100000001490116 1 0 6.4101911 
2 3 4 
p 0.0401044242106365 1 0 3.5 
2 1 2 
p 0.0401044242106365 1 0 3.5 
2 1 3 
p 0.0401044242106365 1 0 2.2828026 
2 2 4 
p 0.0401044242106365 1 0 2.2828026 
2 37 38 
p 0.0401044242106365 1 0 2.2828026 
2 4 3 
p 0.100000001490116 1 0 2.2828026 
2 1 2 
p 0.0401044242106365 1 0 3.5 
2 3 4 
p 0.0401044242106365 1 0 3.5 
2 2 4 
p 0.0401044242106365 1 0 6.0636943 
2 1 3 
p 0.0401044242106365 1 0 6.0636943 
2 38 39 
p 0.0401044242106365 1 0 6.0636943 
2 4 3 
p 0.100000001490116 1 0 6.0636943 
2 3 4 
p 0.0401044242106365 1 0 3.5 
2 1 2 
p 0.0401044242106365 1 0 3.5 
4 1 5 6 3 
p 0.0401044242106365 1 3.11225216164958 3.17335309950762 3.23445403736565 3.29555497522368 
4 2 7 8 4 
p 0.0401044242106365 1 3.11225216164958 3.17335309950762 3.23445403736565 3.29555497522368 
4 39 41 42 40 
p 0.0401044242106365 1 3.11225216164958 3.17335309950762 3.23445403736565 3.29555497522368 
4 11 12 13 10 
p 0.100000001490116 1 3.11225216164958 3.17335309950762 3.23445403736565 3.29555497522368 
2 3 4 
p 0.0401044242106365 1 0 3.5 
2 1 2 
p 0.0401044242106365 1 0 3.5 
5 1 5 6 7 3 
p 0.0401044242106365 1 3.31315151027888 3.53939316775796 3.76563482523704 3.99187648271612 4.2181181401952 
5 2 8 9 10 4 
p 0.0401044242106365 1 3.31315151027888 3.53939316775796 3.76563482523704 3.99187648271612 4.2181181401952 
5 40 44 45 46 43 
p 0.0401044242106365 1 3.31315151027888 3.53939316775796 3.76563482523704 3.99187648271612 4.2181181401952 
5 14 15 16 17 13 
p 0.100000001490116 1 3.31315151027888 3.53939316775796 3.76563482523704 3.99187648271612 4.2181181401952 
4 2 7 8 4 
p 0.0401044242106365 1 4.21122182682739 4.36569679769186 4.52017176855633 4.67464673942081 
4 1 5 6 3 
p 0.0401044242106365 1 4.21122182682739 4.36569679769186 4.52017176855633 4.67464673942081 
4 43 47 48 1 
p 0.0401044242106365 1 4.21122182682739 4.36569679769186 4.52017176855633 4.67464673942081 
4 10 11 12 9 
p 0.100000001490116 1 4.21122182682739 4.36569679769186 4.52017176855633 4.67464673942081 
Surfaces 19
2 8.9755300206145474 8.9285317259289503 9.5 0 0 -1 -1 0 0 0 1 0 8.2600866846295773
2 9.4874464342852729 4.9463930079415031 9.5 0 0 -1 -1 0 0 0 1 0 4.2535623987087172
2 8.0277561851188466 4.212988425382429 9.5 0 0 -1 -1 0 0 0 1 0 3.4565735632238597
1 0 0 9.5000009999999993 0 0 1 1 0 0 0 1 0 
2 7.673405047113957 3.9896934262457346 9.5 0 0 -1 -1 0 0 0 1 0 3.0377426253601247
2 19.052290754475806 5.8744926295711126 9.5 0 0 -1 -1 0 0 0 1 0 14.568006884283697
1 4.4893485000000002 6.2585987000000003 9.5 -1 0 0 0 1 0 0 0 -1 
1 4.4893485000000002 12.414012700000001 9.5 0 1 0 1 0 0 0 0 -1 
1 6.7721511000000003 12.414012700000001 9.5 1 0 -0 0 -1 0 0 -0 -1 
2 25.386130824733083 5.8323418620976559 9.5 -0 -0 -1 1 0 0 0 1 0 18.61654529893017
2 8.7255357423185291 4.5415720888821181 9.5 -0 -0 -1 1 0 0 0 1 0 1.9082097735763297
2 8.9577793548640248 5.5215690680947658 9.5 -0 -0 -1 1 0 0 0 1 0 2.8909997482346785
2 9.3187586512638028 4.2803552654045536 9.5 -0 -0 -1 1 0 0 0 1 0 1.6145221166096329
2 -2.7760021013189529 5.6966651257046239 9.5 -0 -0 -1 1 0 0 0 1 0 13.791064541096638
1 11.0116415 6.0038216000000002 9.5 -1 0 0 0 1 0 0 0 -1 
1 11.0116415 12.414012700000001 9.5 0 1 0 1 0 0 0 0 -1 
1 13.2944441 12.414012700000001 9.5 1 0 -0 0 -1 0 0 -0 -1 
2 -2.7920680460672958 5.8781967346677479 9.5 0 0 -1 -1 0 0 0 1 0 16.093438783940702
2 10.06412395400026 3.9380997657158843 9.5 0 0 -1 -1 0 0 0 1 0 3.0922757535328982
Triangulations 37
8 6 1 0.0112386419195865
9.6479473 0.6958598 9.5 9.6479473 0.6958598 13 7.0801129 0.8888535 9.5 7.0801129 0.8888535 13 8.7868352301604 0.670600610107609 9.5 7.92777566225988 0.735165943654632 9.5 8.7868352301604 0.670600610107609 13 7.92777566225988 0.735165943654632 13 4.63089320449172 0 4.63089320449172 -3.5 4.94391899190957 0 4.94391899190957 -3.5 4.735235133631 0 4.83957706277028 0 4.735235133631 -3.5 4.83957706277028 -3.5 5 1 2 5 2 7 6 7 8 6 5 7 3 8 4 3 6 8 
8 6 1 0.0126812817315017
11.5310683 1.2159235 9.5 11.5310683 1.2159235 13 9.6479473 0.6958598 9.5 9.6479473 0.6958598 13 10.932758718436 0.945909851997488 9.5 10.3000288763773 0.771168121242286 9.5 10.932758718436 0.945909851997488 13 10.3000288763773 0.771168121242286 13 4.21122182682739 0 4.21122182682739 -3.5 4.67464673942081 0 4.67464673942081 -3.5 4.36569679769186 0 4.52017176855633 0 4.36569679769186 -3.5 4.52017176855633 -3.5 5 1 2 5 2 7 6 7 8 6 5 7 3 8 4 3 6 8 
10 8 1 0.0141959121860549
7.0801129 0.8888535 9.5 7.0801129 0.8888535 13 5.1135524 2.3541401 9.5 5.1135524 2.3541401 13 6.49620439815176 1.11423869011564 9.5 5.96251239720645 1.44122564793063 9.5 5.4965355838395 1.85909312914746 9.5 6.49620439815176 1.11423869011564 13 5.96251239720645 1.44122564793063 13 5.4965355838395 1.85909312914746 13 4.99010182021739 0 4.99010182021739 -3.5 5.71539314312875 0 5.71539314312875 -3.5 5.17142465094523 0 5.35274748167307 0 5.53407031240091 0 5.17142465094523 -3.5 5.35274748167307 -3.5 5.53407031240091 -3.5 5 1 2 5 2 8 6 8 9 6 5 8 7 9 10 7 6 9 3 10 4 3 7 10 
48 46 1 1.0547118733939e-15
9.6479473 0.6958598 9.500001 7.0801129 0.8888535 9.500001 8.7868352301604 0.670600610107609 9.500001 7.92777566225988 0.735165943654632 9.500001 5.1135524 2.3541401 9.500001 6.49620439815176 1.11423869011564 9.500001 5.96251239720645 1.44122564793063 9.500001 5.4965355838395 1.85909312914746 9.500001 4.7084568 3.3286623 9.500001 4.94093057688168 2.6624920370592 9.500001 4.80528682956436 2.9888047470761 9.500001 4.4893485 6.2585987 9.500001 4.56965685532722 4.29964662955417 9.500001 4.49651022481768 5.2777701203906 9.500001 4.4893485 12.4140127 9.500001 6.7721511 12.4140127 9.500001 6.7721511 6.1414012 9.500001 6.818011 4.4904458 9.500001 6.77115370230854 5.59071074090293 9.500001 6.7864447956498 5.04023171404803 9.500001 7.8027243 2.8713375 9.500001 6.86961601712068 4.09792074650417 9.500001 7.00110948785495 3.72449275804029 9.500001 7.20683124819108 3.38623612065066 9.500001 7.47792596183149 3.09771116219793 9.500001 10.0861638 2.8598726 9.500001 8.36073530773357 2.69289129392552 9.500001 8.94326414426207 2.63060575927292 9.500001 9.52638905314097 2.68703867395213 9.500001 10.9148263 4.0369426 9.500001 10.3910413144707 3.07333763702976 9.500001 10.6389383217341 3.35094292273923 9.500001 10.8166817120367 3.67793666590214 9.500001 11.0116415 6.0038216 9.500001 10.9783303822074 4.6907828715088 9.500001 11.0106265416879 5.34690544175503 9.500001 11.0116415 12.4140127 9.500001 13.2944441 12.4140127 9.500001 13.2944441 6.3503184 9.500001 13.1110046 3.410191 9.500001 13.2932544857029 5.36714787069059 9.500001 13.2320318213764 4.38588465918336 9.500001 11.5310683 1.2159235 9.500001 12.9149402382062 2.74017829517054 9.500001 12.5735773765584 2.13122045156714 9.500001 12.1043143693378 1.61435442574156 9.500001 10.932758718436 0.945909851997488 9.500001 10.3000288763773 0.771168121242286 9.500001 9.6479473 0.6958598 7.0801129 0.8888535 8.7868352301604 0.670600610107609 7.92777566225988 0.735165943654632 5.1135524 2.3541401 6.49620439815176 1.11423869011564 5.96251239720645 1.44122564793063 5.4965355838395 1.85909312914746 4.7084568 3.3286623 4.94093057688168 2.6624920370592 4.80528682956436 2.9888047470761 4.4893485 6.2585987 4.56965685532722 4.29964662955417 4.49651022481768 5.2777701203906 4.4893485 12.4140127 6.7721511 12.4140127 6.7721511 6.1414012 6.818011 4.4904458 6.77115370230854 5.59071074090293 6.7864447956498 5.04023171404803 7.8027243 2.8713375 6.86961601712068 4.09792074650417 7.00110948785495 3.72449275804029 7.20683124819108 3.38623612065066 7.47792596183149 3.09771116219793 10.0861638 2.8598726 8.36073530773357 2.69289129392552 8.94326414426207 2.63060575927292 9.52638905314097 2.68703867395213 10.9148263 4.0369426 10.3910413144707 3.07333763702976 10.6389383217341 3.35094292273923 10.8166817120367 3.67793666590214 11.0116415 6.0038216 10.9783303822074 4.6907828715088 11.0106265416879 5.34690544175503 11.0116415 12.4140127 13.2944441 12.4140127 13.2944441 6.3503184 13.1110046 3.410191 13.2932544857029 5.36714787069059 13.2320318213764 4.38588465918336 11.5310683 1.2159235 12.9149402382062 2.74017829517054 12.5735773765584 2.13122045156714 12.1043143693378 1.61435442574156 10.932758718436 0.945909851997488 10.3000288763773 0.771168121242286 45 33 32 45 32 46 44 33 45 40 33 44 40 30 33 42 30 40 42 35 30 25 7 6 41 35 42 41 36 35 41 34 36 16 12 17 24 8 7 16 15 12 24 5 8 39 34 41 24 7 25 37 34 39 21 2 4 21 6 2 21 25 6 38 37 39 23 10 5 23 11 10 23 9 11 23 5 24 22 13 9 22 9 23 27 4 3 27 21 4 18 13 22 28 3 1 28 27 3 20 14 13 20 13 18 29 1 48 29 28 1 19 12 14 19 14 20 17 12 19 26 29 48 26 47 43 26 48 47 31 26 43 46 31 43 32 31 46 
13 11 1 0.0223743847516235
9.64794729738911 0.695859835190509 10 8.28011273044303 0.697770714325871 10 9.1921994690315 0.671287246823494 10 8.73579012508421 0.671924867171175 10 8.28011273044301 0.697770714325873 9.5 7.0801129 0.8888535 9.5 7.87714610022847 0.741799484000419 9.5 7.47682478302461 0.805544920054196 9.5 7.08011290153947 0.888853505412146 10 7.0801129 0.8888535 13 9.6479473 0.6958598 13 8.7868352301604 0.670600610107609 13 7.92777566225988 0.735165943654632 13 4.63089320449172 -0.5 4.79667882673796 -0.5 4.6861550785738 -0.5 4.74141695265588 -0.5 4.79667882673795 0 4.94391899190957 0 4.84575888179517 0 4.89483893685237 0 4.94391899190957 -0.5 4.94391899190957 -3.5 4.63089320449172 -3.5 4.735235133631 -3.5 4.83957706277028 -3.5 3 11 12 3 1 11 4 3 12 2 12 13 2 4 12 7 5 2 9 8 7 9 13 10 9 2 13 9 7 2 6 8 9 
8 6 1 0.00514300536351059
5.1135524 2.3541401 9.5 5.1135524 2.3541401 13 4.7084568 3.3286623 9.5 4.7084568 3.3286623 13 4.94093057688168 2.6624920370592 9.5 4.80528682956436 2.9888047470761 9.5 4.94093057688168 2.6624920370592 13 4.80528682956436 2.9888047470761 13 5.71463526203408 0 5.71463526203408 -3.5 6.06382425154126 0 6.06382425154126 -3.5 5.83103159186981 0 5.94742792170553 0 5.83103159186981 -3.5 5.94742792170553 -3.5 5 1 2 5 2 7 6 7 8 6 5 7 3 8 4 3 6 8 
21 19 1 0.0490661882317304
7.0801129 0.8888535 9.5 6.75377851547012 0.999753031699843 9.5 6.97012541265754 0.922195519847201 9.5 6.86130718334428 0.959175658145015 9.5 6.75377851547005 0.99975303169987 10 5.89316749632392 1.4942696227758 10 6.5708168798906 1.07846634716075 10 6.39269273587341 1.1675872506733 10 6.21999751096843 1.26681983312366 10 6.0533046070259 1.37583461147943 10 5.89316749632404 1.4942696227757 9.5 5.1135524 2.3541401 9.5 5.60154285595923 1.75099945721334 9.5 5.34057208324476 2.03883516477423 9.5 5.11355241347964 2.35414010844112 10 5.1135524 2.3541401 13 7.0801129 0.8888535 13 6.49620439815176 1.11423869011564 13 5.96251239720645 1.44122564793063 13 5.4965355838395 1.85909312914746 13 7.08011290153947 0.888853505412146 10 4.99010182021739 0 5.08985560985205 0 5.02335308342894 0 5.05660434664049 0 5.08985560985207 -0.5 5.37800618183765 -0.5 5.14748572424918 -0.5 5.2051158386463 -0.5 5.26274595304341 -0.5 5.32037606744053 -0.5 5.3780061818376 0 5.71539314312875 0 5.49046850226798 0 5.60293082269836 0 5.71539314312875 -0.5 5.71539314312875 -3.5 4.99010182021739 -3.5 5.17142465094523 -3.5 5.35274748167307 -3.5 5.53407031240091 -3.5 4.99010182021739 -0.5 5 17 18 5 21 17 3 1 21 4 21 5 4 3 21 7 5 18 2 4 5 8 7 18 9 18 19 9 8 18 10 9 19 6 19 20 6 10 19 13 11 6 14 13 6 15 20 16 15 6 20 15 14 6 12 14 15 
8 6 1 0.00825738155127858
4.7084568 3.3286623 9.5 4.7084568 3.3286623 13 4.4893485 6.2585987 9.5 4.4893485 6.2585987 13 4.56965685532722 4.29964662955417 9.5 4.49651022481768 5.2777701203906 9.5 4.56965685532722 4.29964662955417 13 4.49651022481768 5.2777701203906 13 6.10752849296497 0 6.10752849296497 -3.5 6.30955477499421 0 6.30955477499421 -3.5 6.17487058697472 0 6.24221268098446 0 6.17487058697472 -3.5 6.24221268098446 -3.5 5 1 2 5 2 7 6 7 8 6 5 7 3 8 4 3 6 8 
13 11 1 0.00491733176728697
5.11355241347964 2.35414010844112 10 4.80271040967612 2.99621843586326 10 4.99323539099668 2.55980851047173 10 4.88940845819519 2.77427446522099 10 4.80271040967623 2.99621843586295 9.5 4.70845683949045 3.32866236019108 9.5 4.76709503562981 3.10581426308098 9.5 4.73566208751406 3.21668206717587 9.5 4.70845687898089 3.32866242038217 10 4.7084568 3.3286623 13 5.1135524 2.3541401 13 4.94093057688168 2.6624920370592 13 4.80528682956436 2.9888047470761 13 5.71463526203408 -0.5 5.95001162145331 -0.5 5.79309404850716 -0.5 5.87155283498023 -0.5 5.95001162145337 0 6.06382425154126 0 5.98794916481589 0 6.02588670817857 0 6.06382425154126 -0.5 6.06382425154126 -3.5 5.71463526203408 -3.5 5.83103159186981 -3.5 5.94742792170553 -3.5 3 11 12 3 1 11 4 12 13 4 3 12 2 13 10 2 4 13 7 5 2 9 2 10 8 7 2 8 2 9 6 8 9 
4 2 1 0
4.4893485 6.2585987 9.5 4.4893485 6.2585987 13 4.4893485 12.4140127 9.5 4.4893485 12.4140127 13 0 0 0 -3.5 6.155414 0 6.155414 -3.5 3 1 2 3 2 4 
13 11 1 0.0131504860726324
4.70845683949045 3.32866236019108 9.5 4.5441259929431 4.55540967813931 9.5 4.64210159454591 3.73597142191937 9.5 4.58731000282315 4.14499662354645 9.5 4.5441259929431 4.55540967813932 10 4.48934859872611 6.25859872611465 10 4.50371677379159 5.12228274589804 10 4.4854483421895 5.69030056634861 10 4.4893485 6.2585987 13 4.7084568 3.3286623 13 4.56965685532722 4.29964662955417 13 4.49651022481768 5.2777701203906 13 4.70845687898089 3.32866242038217 10 6.10752849296497 0 6.192514558527 0 6.13585718148565 0 6.16418587000633 0 6.192514558527 -0.5 6.30955477499421 -0.5 6.23152796401607 -0.5 6.27054136950514 -0.5 6.30955477499421 -3.5 6.10752849296497 -3.5 6.17487058697472 -3.5 6.24221268098446 -3.5 6.10752849296497 -0.5 13 10 11 3 1 13 5 11 12 5 13 11 5 3 13 4 3 5 2 4 5 7 5 12 8 12 9 8 7 12 6 8 9 
4 2 1 1.11022302462516e-16
4.4893485 12.4140127 9.5 4.4893485 12.4140127 13 6.7721511 12.4140127 9.5 6.7721511 12.4140127 13 0 0 0 -3.5 2.2828026 0 2.2828026 -3.5 3 1 2 3 2 4 
4 2 1 6.58174095965099e-08
4.48934859872611 6.25859872611465 10 4.48934859872611 12.4140127388535 10 4.4893485 12.4140127 13 4.4893485 6.2585987 13 2.6114649109843e-08 -0.5 6.1554140388535 -0.5 6.155414 -3.5 0 -3.5 3 1 4 2 1 3 
4 2 1 2.22044604925031e-16
6.7721511 12.4140127 9.5 6.7721511 12.4140127 13 6.7721511 6.1414012 9.5 6.7721511 6.1414012 13 0 0 0 -3.5 6.2726115 0 6.2726115 -3.5 3 1 2 3 2 4 
4 2 1 2.59023344995057e-08
4.48934859872611 12.4140127388535 10 6.77215114649682 12.4140127388535 10 6.7721511 12.4140127 13 4.4893485 12.4140127 13 9.87261143947649e-08 -0.5 2.28280264649682 -0.5 2.2828026 -3.5 0 -3.5 1 4 3 2 1 3 
8 6 1 0.0020363442737724
6.7721511 6.1414012 9.5 6.7721511 6.1414012 13 6.818011 4.4904458 9.5 6.818011 4.4904458 13 6.77115370230854 5.59071074090293 9.5 6.7864447956498 5.04023171404803 9.5 6.77115370230854 5.59071074090293 13 6.7864447956498 5.04023171404803 13 3.12499056490828 0 3.12499056490828 -3.5 3.21373604908275 0 3.21373604908275 -3.5 3.15457239296644 0 3.18415422102459 0 3.15457239296644 -3.5 3.18415422102459 -3.5 5 1 2 5 2 7 6 7 8 6 5 7 3 8 4 3 6 8 
4 2 1 3.09978768579337e-08
6.77215114649682 12.4140127388535 10 6.77215114649682 6.14140127388535 10 6.7721511 6.1414012 13 6.7721511 12.4140127 13 -3.88535017492586e-08 -0.5 6.27261142611465 -0.5 6.2726115 -3.5 0 -3.5 2 4 3 2 1 4 
12 10 1 0.0102951835278887
6.818011 4.4904458 9.5 6.818011 4.4904458 13 7.8027243 2.8713375 9.5 7.8027243 2.8713375 13 6.86961601712068 4.09792074650417 9.5 7.00110948785495 3.72449275804029 9.5 7.20683124819108 3.38623612065066 9.5 7.47792596183149 3.09771116219793 9.5 6.86961601712068 4.09792074650417 13 7.00110948785495 3.72449275804029 13 7.20683124819108 3.38623612065066 13 7.47792596183149 3.09771116219793 13 3.16838866335667 0 3.16838866335667 -3.5 4.20762527629536 0 4.20762527629536 -3.5 3.3762359859444 0 3.58408330853214 0 3.79193063111988 0 3.99977795370762 0 3.3762359859444 -3.5 3.58408330853214 -3.5 3.79193063111988 -3.5 3.99977795370762 -3.5 5 1 2 5 2 9 6 9 10 6 5 9 7 10 11 7 6 10 8 11 12 8 7 11 3 12 4 3 8 12 
13 11 1 0.0102155668282164
6.77215114649682 6.14140127388535 9.5 6.79253339431109 4.90827830231204 9.5 6.76986549547438 5.73024358709093 9.5 6.77666069845293 5.31913577658666 9.5 6.7925333943111 4.90827830231183 10 6.81801101206611 4.49044580104861 10 6.80847458895789 4.62965834076622 10 6.79998189468474 4.76893844984909 10 6.818011 4.4904458 13 6.7721511 6.1414012 13 6.77115370230854 5.59071074090293 13 6.7864447956498 5.04023171404803 13 6.77215114649682 6.14140127388535 10 3.12499056490828 0 3.19124974182012 0 3.14707695721223 0 3.16916334951617 0 3.19124974182013 -0.5 3.21373604908275 -0.5 3.20624061332855 -0.5 3.19874517757434 -0.5 3.21373604908275 -3.5 3.12499056490828 -3.5 3.15457239296644 -3.5 3.18415422102459 -3.5 3.12499056490828 -0.5 13 10 11 3 1 13 5 11 12 5 13 11 8 12 9 8 5 12 4 3 13 4 13 5 7 8 9 6 7 9 2 4 5 
10 8 1 0.0148782780965657
7.8027243 2.8713375 9.5 7.8027243 2.8713375 13 10.0861638 2.8598726 9.5 10.0861638 2.8598726 13 8.36073530773357 2.69289129392552 9.5 8.94326414426207 2.63060575927292 9.5 9.52638905314097 2.68703867395213 9.5 8.36073530773357 2.69289129392552 13 8.94326414426207 2.63060575927292 13 9.52638905314097 2.68703867395213 13 4.30137963458614 0 4.30137963458614 -3.5 5.11335662929519 0 5.11335662929519 -3.5 4.5043738832634 0 4.70736813194067 0 4.91036238061793 0 4.5043738832634 -3.5 4.70736813194067 -3.5 4.91036238061793 -3.5 5 1 2 5 2 8 6 8 9 6 5 8 7 9 10 7 6 9 3 10 4 3 7 10 
15 13 1 0.010295189577815
6.818011 4.4904458 9.5 7.08807575225583 3.56178164143119 9.5 6.85445924877509 4.16695589157957 9.5 6.9453627079032 3.85436869285389 9.5 7.08807575225578 3.56178164143128 10 7.80272432621897 2.87133755077363 10 7.52511732063947 3.05824469654225 10 7.28443344418887 3.29077685931909 10 7.8027243 2.8713375 13 6.818011 4.4904458 13 6.86961601712068 4.09792074650417 13 7.00110948785495 3.72449275804029 13 7.20683124819108 3.38623612065066 13 7.47792596183149 3.09771116219793 13 6.81801101206611 4.49044580104861 10 3.16838866335667 0 3.68080534851297 0 3.33919422507543 0 3.5099997867942 0 3.68080534851292 -0.5 4.20762527629536 -0.5 4.03201863370121 -0.5 3.85641199110706 -0.5 4.20762527629536 -3.5 3.16838866335667 -3.5 3.3762359859444 -3.5 3.58408330853214 -3.5 3.79193063111988 -3.5 3.99977795370762 -3.5 3.16838866335667 -0.5 15 10 11 3 1 15 3 15 11 4 11 12 4 3 11 5 12 13 5 4 12 2 4 5 8 13 14 8 5 13 7 14 9 7 8 14 6 7 9 
10 8 1 0.0107602079069558
10.0861638 2.8598726 9.5 10.0861638 2.8598726 13 10.9148263 4.0369426 9.5 10.9148263 4.0369426 13 10.3910413144707 3.07333763702976 9.5 10.6389383217341 3.35094292273923 9.5 10.8166817120367 3.67793666590214 9.5 10.3910413144707 3.07333763702976 13 10.6389383217341 3.35094292273923 13 10.8166817120367 3.67793666590214 13 5.20770999953316 0 5.20770999953316 -3.5 6.13184371176001 0 6.13184371176001 -3.5 5.43874342758988 0 5.66977685564659 0 5.9008102837033 0 5.43874342758988 -3.5 5.66977685564659 -3.5 5.9008102837033 -3.5 5 1 2 5 2 8 6 8 9 6 5 8 7 9 10 7 6 9 3 10 4 3 7 10 
18 16 1 0.0103112912270498
8.95304286624204 2.63057324840764 10 7.80272432621897 2.87133755077363 10 8.55981343248647 2.65809169452969 10 8.17398283641949 2.7388469184781 10 8.95304286624204 2.63057324840764 9.5 8.98370731820083 2.63068558981167 9.5 8.96326446133683 2.63057452332303 9.5 8.97348598794235 2.63061198678582 9.5 8.98370627682087 2.63068558214988 10 10.0861638068368 2.85987258695256 10 9.82032113590797 2.76223921824961 10 9.54620127452596 2.69108515385778 10 9.26643474833788 2.64709322154944 10 10.0861638 2.8598726 13 7.8027243 2.8713375 13 8.36073530773357 2.69289129392552 13 8.94326414426207 2.63060575927292 13 9.52638905314097 2.68703867395213 13 4.71075062298832 -0.5 4.30137963458614 -0.5 4.57429362685426 -0.5 4.4378366307202 -0.5 4.71075062298832 0 4.72135761171981 0 4.71428628589881 0 4.71782194880931 0 4.72135761171994 -0.5 5.11335662929519 -0.5 5.01535678484541 -0.5 4.91735694039562 -0.5 4.81935709594584 -0.5 5.11335662929519 -3.5 4.30137963458614 -3.5 4.5043738832634 -3.5 4.70736813194067 -3.5 4.91036238061793 -3.5 4 15 16 4 2 15 3 16 17 3 4 16 1 3 17 9 1 17 7 5 1 8 1 9 8 7 1 6 8 9 13 17 18 13 9 17 12 13 18 11 18 14 11 12 18 10 11 14 
8 6 1 0.00391196308339913
10.9148263 4.0369426 9.5 10.9148263 4.0369426 13 11.0116415 6.0038216 9.5 11.0116415 6.0038216 13 10.9783303822074 4.6907828715088 9.5 11.0106265416879 5.34690544175503 9.5 10.9783303822074 4.6907828715088 13 11.0106265416879 5.34690544175503 13 6.16254521375667 0 6.16254521375667 -3.5 6.30545928560329 0 6.30545928560329 -3.5 6.21018323770554 0 6.25782126165442 0 6.21018323770554 -3.5 6.25782126165442 -3.5 5 1 2 5 2 7 6 7 8 6 5 7 3 8 4 3 6 8 
22 20 1 0.0160836803611573
10.3274799203133 3.01973515355929 10 10.0861638068368 2.85987258695256 10 10.2502800541978 2.96166290518644 10 10.1697452396128 2.9083117196409 10 10.3274799203134 3.01973515355933 9.5 10.7275622204878 3.49171455610569 9.5 10.4807502732139 3.15943727753063 9.5 10.6148485502312 3.31763379020192 9.5 10.727562220488 3.49171455610599 10 10.8902121106643 3.90992890300592 10 10.849049415838 3.76567882250043 10 10.7946763253082 3.62587174042861 10 10.8902121106644 3.90992890300654 9.5 10.9148263028662 4.03694263757962 9.5 10.8995471910944 3.95204252218282 9.5 10.9077538735701 3.99439049745322 9.5 10.9148263057325 4.03694267515923 10 10.9148263 4.0369426 13 10.0861638 2.8598726 13 10.3910413144707 3.07333763702976 13 10.6389383217341 3.35094292273923 13 10.8166817120367 3.67793666590214 13 5.38723883143263 -0.5 5.20770999953316 -0.5 5.32739588746614 -0.5 5.26755294349965 -0.5 5.38723883143263 0 5.77285332056374 0 5.51577699447636 0 5.64431515752005 0 5.77285332056395 -0.5 6.05168911598921 -0.5 5.95874385084728 -0.5 5.86579858570562 -0.5 6.05168911598934 0 6.13184371176001 0 6.07840731457956 0 6.10512551316979 0 6.13184371176001 -0.5 6.13184371176001 -3.5 5.20770999953316 -3.5 5.43874342758988 -3.5 5.66977685564659 -3.5 5.9008102837033 -3.5 4 2 19 3 19 20 3 4 19 1 20 21 1 3 20 7 5 1 7 1 21 8 7 21 9 21 22 9 8 21 6 8 9 12 9 22 11 12 22 10 22 18 10 11 22 17 10 18 15 13 10 15 10 17 16 15 17 14 16 17 
4 2 1 6.66133814775094e-16
11.0116415 6.0038216 9.5 11.0116415 6.0038216 13 11.0116415 12.4140127 9.5 11.0116415 12.4140127 13 0 0 0 -3.5 6.4101911 0 6.4101911 -3.5 3 1 2 3 2 4 
13 11 1 0.0126231013363859
10.9874383590218 4.82421577396672 10 10.9148263057325 4.03694267515923 10 10.9682515637886 4.56134474542784 10 10.9440445968676 4.29888839951694 10 10.9874383590218 4.8242157739663 9.5 11.0116415923567 6.00382165605096 9.5 11.0067230020281 5.21713420672096 9.5 11.0147929044627 5.61044282463945 9.5 11.0116415923567 6.00382165605096 10 11.0116415 6.0038216 13 10.9148263 4.0369426 13 10.9783303822074 4.6907828715088 13 11.0106265416879 5.34690544175503 13 6.21988110511387 -0.5 6.16254521375667 -0.5 6.20076914132814 -0.5 6.1816571775424 -0.5 6.21988110511387 0 6.30545928560329 0 6.248407165277 0 6.27693322544015 0 6.30545928560329 -0.5 6.30545928560329 -3.5 6.16254521375667 -3.5 6.21018323770554 -3.5 6.25782126165442 -3.5 4 11 12 4 2 11 3 4 12 1 12 13 1 3 12 7 5 1 9 13 10 9 1 13 8 7 1 8 1 9 6 8 9 
4 2 1 1.11022302462516e-16
11.0116415 12.4140127 9.5 11.0116415 12.4140127 13 13.2944441 12.4140127 9.5 13.2944441 12.4140127 13 0 0 0 -3.5 2.2828026 0 2.2828026 -3.5 3 1 2 3 2 4 
4 2 1 6.15711262715497e-08
11.0116415923567 6.00382165605096 10 11.0116415923567 12.4140127388535 10 11.0116415 12.4140127 13 11.0116415 6.0038216 13 5.60509549885069e-08 -0.5 6.4101911388535 -0.5 6.4101911 -3.5 0 -3.5 3 1 4 2 1 3 
4 2 1 2.22044604925031e-16
13.2944441 12.4140127 9.5 13.2944441 12.4140127 13 13.2944441 6.3503184 9.5 13.2944441 6.3503184 13 0 0 0 -3.5 6.0636943 0 6.0636943 -3.5 3 1 2 3 2 4 
4 2 1 2.59023344995057e-08
11.0116415923567 12.4140127388535 10 13.2944441401274 12.4140127388535 10 13.2944441 12.4140127 13 11.0116415 12.4140127 13 9.23566894073247e-08 -0.5 2.28280264012739 -0.5 2.2828026 -3.5 0 -3.5 1 4 3 2 1 3 
8 6 1 0.00750966976686293
13.2944441 6.3503184 9.5 13.2944441 6.3503184 13 13.1110046 3.410191 9.5 13.1110046 3.410191 13 13.2932544857029 5.36714787069059 9.5 13.2320318213764 4.38588465918336 9.5 13.2932544857029 5.36714787069059 13 13.2320318213764 4.38588465918336 13 3.11225216164958 0 3.11225216164958 -3.5 3.29555497522368 0 3.29555497522368 -3.5 3.17335309950762 0 3.23445403736565 0 3.17335309950762 -3.5 3.23445403736565 -3.5 5 1 2 5 2 7 6 7 8 6 5 7 3 8 4 3 6 8 
4 2 1 2.67515929408546e-08
13.2944441401274 12.4140127388535 10 13.2944441401274 6.35031847133758 10 13.2944441 6.3503184 13 13.2944441 12.4140127 13 -3.88535017492586e-08 -0.5 6.06369422866242 -0.5 6.0636943 -3.5 0 -3.5 2 4 3 2 1 4 
10 8 1 0.0197637891562207
13.1110046 3.410191 9.5 13.1110046 3.410191 13 11.5310683 1.2159235 9.5 11.5310683 1.2159235 13 12.9149402382062 2.74017829517054 9.5 12.5735773765584 2.13122045156714 9.5 12.1043143693378 1.61435442574156 9.5 12.9149402382062 2.74017829517054 13 12.5735773765584 2.13122045156714 13 12.1043143693378 1.61435442574156 13 3.31315151027888 0 3.31315151027888 -3.5 4.2181181401952 0 4.2181181401952 -3.5 3.53939316775796 0 3.76563482523704 0 3.99187648271612 0 3.53939316775796 -3.5 3.76563482523704 -3.5 3.99187648271612 -3.5 5 1 2 5 2 8 6 8 9 6 5 8 7 9 10 7 6 9 3 10 4 3 7 10 
13 11 1 0.010703328766576
13.2944441401274 6.35031847133758 10 13.2485844704485 4.57579943090781 10 13.3009247327557 5.75838307435949 10 13.2856312921497 5.16660985849341 10 13.2485844704485 4.57579943090761 9.5 13.1110046248408 3.41019104140127 9.5 13.212177415389 4.18618636179732 9.5 13.1663084191017 3.79757363367427 9.5 13.1110046496815 3.41019108280255 10 13.1110046 3.410191 13 13.2944441 6.3503184 13 13.2932544857029 5.36714787069059 13 13.2320318213764 4.38588465918336 13 3.11225216164958 -0.5 3.22260847256917 -0.5 3.14903759862278 -0.5 3.18582303559598 -0.5 3.22260847256918 0 3.29555497522368 0 3.24692397345402 0 3.27123947433885 0 3.29555497522368 -0.5 3.29555497522368 -3.5 3.11225216164958 -3.5 3.17335309950762 -3.5 3.23445403736565 -3.5 3 11 12 3 1 11 4 12 13 4 3 12 2 4 13 7 5 2 9 13 10 9 2 13 9 7 2 8 7 9 6 8 9 
17 15 1 0.0144381455491155
13.1110046496815 3.41019108280255 10 12.4434887261146 1.96305732484076 10 12.9738651987053 2.89140247196285 10 12.7491038016859 2.4041334840103 10 12.4434887261146 1.96305732484076 9.5 12.3167556159654 1.81965223712343 9.5 12.402233723171 1.91438732487953 9.5 12.3599833586895 1.86657884383566 9.5 12.3167556835361 1.8196523086688 10 11.5310682909908 1.21592351608858 10 12.0769928531005 1.59064835388171 10 11.8140895920122 1.38863127176172 10 11.5310683 1.2159235 13 13.1110046 3.410191 13 12.9149402382062 2.74017829517054 13 12.5735773765584 2.13122045156714 13 12.1043143693378 1.61435442574156 13 3.31315151027888 -0.5 3.83440271212657 -0.5 3.48690191089478 -0.5 3.66065231151067 -0.5 3.83440271212657 0 3.89630228433157 0 3.85503590286157 0 3.87566909359657 0 3.89630225250717 -0.5 4.2181181401952 -0.5 4.00357421506985 -0.5 4.11084617763253 -0.5 4.2181181401952 -3.5 3.31315151027888 -3.5 3.53939316775796 -3.5 3.76563482523704 -3.5 3.99187648271612 -3.5 3 14 15 3 1 14 4 15 16 4 3 15 2 4 16 9 16 17 9 2 16 7 5 2 7 2 9 8 7 9 6 8 9 11 9 17 12 17 13 12 11 17 10 12 13 
13 11 1 0.0234643417927141
11.5310683 1.2159235 9.5 10.7078222291754 0.871656697582896 9.5 11.2649237012439 1.08202143611332 9.5 10.9900588513487 0.967077865383011 9.5 10.7078222291753 0.87165669758287 10 9.64794729738911 0.695859835190509 10 10.359903643987 0.783267800005985 10 10.0057712706652 0.724529385830956 10 9.6479473 0.6958598 13 11.5310683 1.2159235 13 10.932758718436 0.945909851997488 13 10.3000288763773 0.771168121242286 13 11.5310682909908 1.21592351608858 10 4.21122182682739 0 4.42139270551701 0 4.28127878639059 0 4.3513357459538 0 4.42139270551703 -0.5 4.67464673942081 -0.5 4.50581071681829 -0.5 4.59022872811955 -0.5 4.67464673942081 -3.5 4.21122182682739 -3.5 4.36569679769186 -3.5 4.52017176855633 -3.5 4.21122182682739 -0.5 13 10 11 3 1 13 4 3 13 5 11 12 5 13 11 5 4 13 2 4 5 7 5 12 8 12 9 8 7 12 6 8 9 

TShapes 95
Ve
5e-06
9.6479473 0.6958598 0
0 0

0101101
*
Ed
 1e-07 1 1 0
1  1 0 0 3.5
2  1 1 0 0 3.5
2  2 2 0 0 3.5
6  1 1 0
6  2 2 0
0

0101000
+95 3 -95 5 *
Ve
1.93155256983206e-05
7.0801129 0.8888535 0
0 0

0101101
*
Ed
 1e-07 1 1 0
1  2 0 0 3.5
2  3 1 0 0 3.5
2  4 3 0 0 3.5
6  3 1 0
6  4 3 0
0

0101000
+93 3 -93 5 *
Ed
 1e-07 1 1 0
1  3 0 4.63089320449172 4.94391899190957
2  5 1 6 4.63089320449172 4.94391899190957
2  6 1 7 4.63089320449172 4.94391899190957
6  5 1 7
6  6 1 6
6  7 4 8
2  7 4 8 4.63089320449172 4.94391899190957
6  8 5 7
0

0101000
+95 0 -93 0 *
Wi

0101100
+94 0 -92 0 -91 3 +91 5 *
Fa
0  1e-07 1 0
2  1
0111000
+90 0 *
Ve
5.000001e-06
5.1135524 2.3541401 0
0 0

0101101
*
Ed
 1e-07 1 1 0
1  4 0 0 3.5
2  8 3 0 0 3.5
2  9 5 0 0 3.5
4 G1 3 0 5 0
6  9 3 0
6  10 6 0
0

0101000
+88 3 -88 5 *
Ed
 1e-07 1 1 0
1  5 0 4.99010182021739 5.71539314312875
2  10 3 6 4.99010182021739 5.71539314312875
2  11 3 7 4.99010182021739 5.71539314312875
6  11 3 7
6  12 3 6
6  13 4 8
2  12 4 8 4.99010182021739 5.71539314312875
6  14 7 7
0

0101000
+93 0 -88 0 *
Wi

0101100
+92 0 -87 0 -86 3 +86 5 *
Fa
0  1e-07 3 0
2  3
0111000
+85 0 *
Ve
1e-07
4.7084568 3.3286623 0
0 0

0101101
*
Ed
 1e-07 1 1 0
1  6 0 0 3.5
2  13 5 0 0 3.5
2  14 6 0 0 3.5
6  15 6 0
6  16 8 0
0

0101000
+83 3 -83 5 *
Ed
 1e-07 1 1 0
1  7 0 5.71463526203408 6.06382425154126
2  15 5 6 5.71463526203408 6.06382425154126
2  16 5 7 5.71463526203408 6.06382425154126
6  17 6 6
6  18 6 7
6  19 4 8
2  17 4 8 5.71463526203408 6.06382425154126
6  20 9 7
0

0101000
+88 0 -83 0 *
Wi

0101100
+87 0 -82 0 -81 3 +81 5 *
Fa
0  1e-07 5 0
2  6
0111000
+80 0 *
Ve
1e-07
4.4893485 6.2585987 0
0 0

0101101
*
Ed
 1e-07 1 1 0
1  8 0 0 3.5
2  18 6 0 0 3.5
6  21 8 0
6  22 10 0
2  19 7 0 0 3.5
0

0101000
+78 3 -78 5 *
Ed
 1e-07 1 1 0
1  9 0 6.10752849296497 6.30955477499421
2  20 6 6 6.10752849296497 6.30955477499421
2  21 6 7 6.10752849296497 6.30955477499421
6  23 8 6
6  24 8 7
6  25 4 8
2  22 4 8 6.10752849296497 6.30955477499421
6  26 11 7
0

0101000
+83 0 -78 0 *
Wi

0101100
+82 0 -77 0 -76 3 +76 5 *
Fa
0  1e-07 6 0
2  8
0111000
+75 0 *
Ve
1e-07
4.4893485 12.4140127 0
0 0

0101101
*
Ed
 1e-07 1 1 0
1  10 0 0 3.5
6  27 10 0
6  28 12 0
2  23 7 0 0 3.5
2  24 8 0 0 3.5
0

0101000
+73 3 -73 5 *
Ed
 1e-07 1 1 0
1  11 0 0 6.155414
6  29 10 6
6  30 10 7
6  31 4 8
2  25 7 6 0 6.155414
2  26 7 7 0 6.155414
2  27 4 8 0 6.155414
6  32 13 7
0

0101000
+78 0 -73 0 *
Wi

0101100
+77 0 -72 0 -71 3 +71 5 *
Fa
0  1e-07 7 0
2  10
0111000
+70 0 *
Ve
1e-07
6.7721511 12.4140127 0
0 0

0101101
*
Ed
 1e-07 1 1 0
1  12 0 0 3.5
6  33 12 0
6  34 14 0
2  28 8 0 0 3.5
2  29 9 0 0 3.5
0

0101000
+68 3 -68 5 *
Ed
 1e-07 1 1 0
1  13 0 0 2.2828026
6  35 12 7
6  36 12 6
6  37 4 8
2  30 8 6 0 2.2828026
2  31 8 7 0 2.2828026
2  32 4 8 0 2.2828026
6  38 15 7
0

0101000
+73 0 -68 0 *
Wi

0101100
+72 0 -67 0 -66 3 +66 5 *
Fa
0  1e-07 8 0
2  12
0111000
+65 0 *
Ve
1e-07
6.7721511 6.1414012 0
0 0

0101101
*
Ed
 1e-07 1 1 0
1  14 0 0 3.5
2  33 10 0 0 3.5
6  39 16 0
6  40 14 0
2  34 9 0 0 3.5
0

0101000
+63 3 -63 5 *
Ed
 1e-07 1 1 0
1  15 0 0 6.2726115
6  41 14 7
6  42 14 6
6  43 4 8
2  35 9 6 0 6.2726115
2  36 9 7 0 6.2726115
2  37 4 8 0 6.2726115
6  44 17 7
0

0101000
+68 0 -63 0 *
Wi

0101100
+67 0 -62 0 -61 3 +61 5 *
Fa
0  1e-07 9 0
2  14
0111000
+60 0 *
Ve
5.000001e-06
6.818011 4.4904458 0
0 0

0101101
*
Ed
 1e-07 1 1 0
1  16 0 0 3.5
2  38 10 0 0 3.5
2  39 11 0 0 3.5
6  45 16 0
6  46 18 0
0

0101000
+58 3 -58 5 *
Ed
 1e-07 1 1 0
1  17 0 3.12499056490828 3.21373604908275
2  40 10 6 3.12499056490828 3.21373604908275
2  41 10 7 3.12499056490828 3.21373604908275
6  47 16 7
6  48 16 6
6  49 4 8
2  42 4 8 3.12499056490828 3.21373604908275
6  50 19 7
0

0101000
+63 0 -58 0 *
Wi

0101100
+62 0 -57 0 -56 3 +56 5 *
Fa
0  1e-07 10 0
2  16
0111000
+55 0 *
Ve
5.000001e-06
7.8027243 2.8713375 0
0 0

0101101
*
Ed
 1e-07 1 1 0
1  18 0 0 3.5
2  43 11 0 0 3.5
2  44 12 0 0 3.5
6  51 18 0
6  52 20 0
0

0101000
+53 3 -53 5 *
Ed
 1e-07 1 1 0
1  19 0 3.16838866335667 4.20762527629536
2  45 11 6 3.16838866335667 4.20762527629536
2  46 11 7 3.16838866335667 4.20762527629536
6  53 18 6
6  54 18 7
6  55 4 8
2  47 4 8 3.16838866335667 4.20762527629536
6  56 21 7
0

0101000
+58 0 -53 0 *
Wi

0101100
+57 0 -52 0 -51 3 +51 5 *
Fa
0  1e-07 11 0
2  18
0111000
+50 0 *
Ve
5e-06
10.0861638 2.8598726 0
0 0

0101101
*
Ed
 1e-07 1 1 0
1  20 0 0 3.5
2  48 12 0 0 3.5
2  49 13 0 0 3.5
6  57 20 0
6  58 22 0
0

0101000
+48 3 -48 5 *
Ed
 1e-07 1 1 0
1  21 0 4.30137963458614 5.11335662929519
2  50 12 6 4.30137963458614 5.11335662929519
2  51 12 7 4.30137963458614 5.11335662929519
6  59 20 6
6  60 20 7
6  61 4 8
2  52 4 8 4.30137963458614 5.11335662929519
6  62 23 7
0

0101000
+53 0 -48 0 *
Wi

0101100
+52 0 -47 0 -46 3 +46 5 *
Fa
0  1e-07 12 0
2  20
0111000
+45 0 *
Ve
1e-07
10.9148263 4.0369426 0
0 0

0101101
*
Ed
 1e-07 1 1 0
1  22 0 0 3.5
2  53 13 0 0 3.5
2  54 14 0 0 3.5
6  63 22 0
6  64 24 0
0

0101000
+43 3 -43 5 *
Ed
 1e-07 1 1 0
1  23 0 5.20770999953316 6.13184371176001
2  55 13 6 5.20770999953316 6.13184371176001
2  56 13 7 5.20770999953316 6.13184371176001
6  65 22 6
6  66 22 7
6  67 4 8
2  57 4 8 5.20770999953316 6.13184371176001
6  68 25 7
0

0101000
+48 0 -43 0 *
Wi

0101100
+47 0 -42 0 -41 3 +41 5 *
Fa
0  1e-07 13 0
2  22
0111000
+40 0 *
Ve
1e-07
11.0116415 6.0038216 0
0 0

0101101
*
Ed
 1e-07 1 1 0
1  24 0 0 3.5
2  58 14 0 0 3.5
6  69 24 0
6  70 26 0
2  59 15 0 0 3.5
0

0101000
+38 3 -38 5 *
Ed
 1e-07 1 1 0
1  25 0 6.16254521375667 6.30545928560329
2  60 14 6 6.16254521375667 6.30545928560329
2  61 14 7 6.16254521375667 6.30545928560329
6  71 24 7
6  72 24 6
6  73 4 8
2  62 4 8 6.16254521375667 6.30545928560329
6  74 27 7
0

0101000
+43 0 -38 0 *
Wi

0101100
+42 0 -37 0 -36 3 +36 5 *
Fa
0  1e-07 14 0
2  24
0111000
+35 0 *
Ve
1e-07
11.0116415 12.4140127 0
0 0

0101101
*
Ed
 1e-07 1 1 0
1  26 0 0 3.5
6  75 26 0
6  76 28 0
2  63 15 0 0 3.5
2  64 16 0 0 3.5
0

0101000
+33 3 -33 5 *
Ed
 1e-07 1 1 0
1  27 0 0 6.4101911
6  77 26 7
6  78 26 6
6  79 4 8
2  65 15 6 0 6.4101911
2  66 15 7 0 6.4101911
2  67 4 8 0 6.4101911
6  80 29 7
0

0101000
+38 0 -33 0 *
Wi

0101100
+37 0 -32 0 -31 3 +31 5 *
Fa
0  1e-07 15 0
2  26
0111000
+30 0 *
Ve
1e-07
13.2944441 12.4140127 0
0 0

0101101
*
Ed
 1e-07 1 1 0
1  28 0 0 3.5
6  81 28 0
6  82 30 0
2  68 16 0 0 3.5
2  69 17 0 0 3.5
0

0101000
+28 3 -28 5 *
Ed
 1e-07 1 1 0
1  29 0 0 2.2828026
6  83 28 6
6  84 28 7
6  85 4 8
2  70 16 6 0 2.2828026
2  71 16 7 0 2.2828026
2  72 4 8 0 2.2828026
6  86 31 7
0

0101000
+33 0 -28 0 *
Wi

0101100
+32 0 -27 0 -26 3 +26 5 *
Fa
0  1e-07 16 0
2  28
0111000
+25 0 *
Ve
1e-07
13.2944441 6.3503184 0
0 0

0101101
*
Ed
 1e-07 1 1 0
1  30 0 0 3.5
2  73 18 0 0 3.5
6  87 32 0
6  88 30 0
2  74 17 0 0 3.5
0

0101000
+23 3 -23 5 *
Ed
 1e-07 1 1 0
1  31 0 0 6.0636943
6  89 30 7
6  90 30 6
6  91 4 8
2  75 17 6 0 6.0636943
2  76 17 7 0 6.0636943
2  77 4 8 0 6.0636943
6  92 33 7
0

0101000
+28 0 -23 0 *
Wi

0101100
+27 0 -22 0 -21 3 +21 5 *
Fa
0  1e-07 17 0
2  30
0111000
+20 0 *
Ve
1e-07
13.1110046 3.410191 0
0 0

0101101
*
Ed
 1e-07 1 1 0
1  32 0 0 3.5
2  78 18 0 0 3.5
2  79 19 0 0 3.5
6  93 32 0
6  94 34 0
0

0101000
+18 3 -18 5 *
Ed
 1e-07 1 1 0
1  33 0 3.11225216164958 3.29555497522368
2  80 18 6 3.11225216164958 3.29555497522368
2  81 18 7 3.11225216164958 3.29555497522368
6  95 32 6
6  96 32 7
6  97 4 8
2  82 4 8 3.11225216164958 3.29555497522368
6  98 35 7
0

0101000
+23 0 -18 0 *
Wi

0101100
+22 0 -17 0 -16 3 +16 5 *
Fa
0  1e-07 18 0
2  32
0111000
+15 0 *
Ve
5.000001e-06
11.5310683 1.2159235 0
0 0

0101101
*
Ed
 1e-07 1 1 0
1  34 0 0 3.5
2  83 19 0 0 3.5
2  84 2 0 0 3.5
6  99 34 0
6  100 2 0
0

0101000
+13 3 -13 5 *
Ed
 1e-07 1 1 0
1  35 0 3.31315151027888 4.2181181401952
2  85 19 6 3.31315151027888 4.2181181401952
2  86 19 7 3.31315151027888 4.2181181401952
6  101 34 6
6  102 34 7
6  103 4 8
2  87 4 8 3.31315151027888 4.2181181401952
6  104 36 7
0

0101000
+18 0 -13 0 *
Wi

0101100
+17 0 -12 0 -11 3 +11 5 *
Fa
0  1e-07 19 0
2  34
0111000
+10 0 *
Ed
 1e-07 1 1 0
1  36 0 4.21122182682739 4.67464673942081
2  88 2 6 4.21122182682739 4.67464673942081
2  89 2 7 4.21122182682739 4.67464673942081
6  105 2 7
6  106 2 6
6  107 4 8
2  90 4 8 4.21122182682739 4.67464673942081
6  108 37 7
0

0101000
+13 0 -95 0 *
Wi

0101100
+12 0 -94 0 -8 3 +8 5 *
Fa
0  1e-07 2 0
2  2
0111000
+7 0 *
Wi

0101100
+91 0 +86 0 +81 0 +76 0 +71 0 +66 0 +61 0 +56 0 +51 0 +46 0 
+41 0 +36 0 +31 0 +26 0 +21 0 +16 0 +11 0 +8 0 *
Fa
0  1e-07 4 0
2  4
0111000
-5 1 *
Sh

0101100
-89 0 -84 0 -79 0 -74 0 -69 0 -64 0 -59 0 -54 0 -49 0 -44 0 
-39 0 -34 0 -29 0 -24 0 -19 0 -14 0 -9 0 -6 0 +4 2 -4 9 
*
So

0100000
-3 0 *
Co

1100000
+2 0 *

+1 0 