
CASCADE Topology V1, (c) Matra-Datavision
Locations 0
Curve2ds 24
1 4.4736242027246131 -8 0 -1 
1 0 0 1 0 
1 8 0 0 1 
1 0 0 -0.23650262702585015 0.97163084935065314 
1 4.4340620704304508 -8 0 -1 
1 0 16.546840566892627 1 0 
1 0 0 0 1 
1 -79.879074901717445 197.59400760103767 0.50517054992300592 -0.86301953366681561 
1 8.3835612078718658 -8 -1 0 
2 0 114.94290489494222 0 -1 1 0 114.9429048949422
1 8.3835612244653426 -8 -1 0 
2 0 114.94290489494222 -1.6593475982151773e-008 -0.99999999999999989 0.99999999999999989 -1.6593475982151773e-008 98.942904894942203
1 0 0 -1.0261291549795662e-007 0.99999999999999489 
1 8 0 0 1 
1 8.3835612078718658 -16 0 1 
1 0 0 1 0 
1 8.3835612244653426 -16 0 1 
1 0 16.000000000000114 1 0 
1 0 0 0 1 
1 -79.879074901717672 197.59400760103767 0.69494560359037005 -0.71906231166041268 
1 4.4736242027246131 -16 1 0 
2 0 114.94290489494219 0 -1 1 0 114.9429048949422
1 4.4340620704304508 -16 1 0 
2 0 114.94290489494219 -0.039551812908698442 -0.99921752091105531 0.99921752091105531 -0.039551812908698442 98.942904894942203
Curves 12
1 955.82249999999999 484.30027334426899 -8 -0 -0 -1 
1 955.82249999999999 484.30027334426899 -16 0 -1 0 
1 955.82249999999999 467.75343277737636 -8 -0 -0 -1 
1 955.82249999999999 484.30027334426899 -8 0 -1 0 
2 983.00679896563543 372.61820103436474 -8 0 0 1 -0.50517054992300858 -0.86301953366681394 0 0.86301953366681394 -0.50517054992300858 0 114.9429048949422
2 983.00679896563543 372.61820103436474 -8 0 0 1 -0.50517056424350248 -0.8630195252842785 0 0.8630195252842785 -0.50517056424350248 0 98.942904894942203
1 924.94102849010937 273.42022885362275 -8 0.5051704613660517 0.86301958550383462 0 
1 924.94102849010937 273.42022885362275 -16 0 0 1 
1 933.02375587196627 287.22854222168422 -16 0 0 1 
1 924.94102849010937 273.42022885362275 -16 0.5051704613660517 0.86301958550383462 0 
2 983.00679896563543 372.61820103436474 -16 -0 -0 -1 -0.23650262702584279 0.97163084935065491 0 0.97163084935065491 0.23650262702584279 -0 114.9429048949422
2 983.00679896563543 372.61820103436474 -16 -0 -0 -1 -0.27474733023555142 0.96151646087232268 0 0.96151646087232268 0.27474733023555142 -0 98.942904894942203
Polygon3D 0
PolygonOnTriangulations 0
Surfaces 6
1 955.82249999999999 484.30027334426899 -8 -1 0 0 -0 0 -1 -0 -1 0 
2 983.00679896563543 372.61820103436474 0 0 0 1 1 0 -0 0 -1 -0 114.9429048949422
1 955.82249999999999 484.30027334426899 -16 0 -0 -1 0.97163084935065491 0.23650262702584279 0 0.23650262702584279 -0.97163084935065491 0 
2 983.00679896563543 372.61820103436474 0 0 0 1 1 0 -0 0 -1 -0 98.942904894942203
1 924.94102849010937 273.4202288536228 -8 -0 0 1 0.86301953366681394 -0.50517054992300858 0 0.50517054992300858 0.86301953366681394 0 
1 924.94102849010937 273.42022885362275 -16 -0.86301958550383462 0.5051704613660517 0 0 0 1 0.5051704613660517 0.86301958550383462 -0 
Triangulations 0

TShapes 34
Ve
1e-007
955.8225 484.300273344269 -8
0 0

0101101
*
Ve
1e-007
955.8225 484.300273344269 -16
0 0

0101101
*
Ed
 1e-007 1 1 0
2  1 2 0 0 8
1  1 0 0 8
2  2 1 0 0 8
0

0101000
+34 0 -33 0 *
Ve
1e-007
955.8225 467.753432777376 -16
0 0

0101101
*
Ed
 1e-007 1 1 0
1  2 0 0 16.5468405668926
2  3 1 0 0 16.5468405668926
2  4 3 0 0 16.5468405668926
0

0101000
+33 0 -31 0 *
Ve
1e-007
955.8225 467.753432777376 -8
0 0

0101101
*
Ed
 1e-007 1 1 0
2  5 4 0 0 8
1  3 0 0 8
2  6 1 0 0 8
0

0101000
+29 0 -31 0 *
Ed
 1e-007 1 1 0
1  4 0 0 16.5468405668926
2  7 1 0 0 16.5468405668926
2  8 5 0 0 16.5468405668926
0

0101000
+34 0 -29 0 *
Wi

0101000
+32 0 +30 0 -28 0 -27 0 *
Fa
0  1e-007 1 0

0111000
+26 0 *
Ve
1e-007
924.941028490109 273.420228853623 -8
0 0

0101101
*
Ed
 1e-007 1 1 0
2  9 2 0 0 3.90993700514725
1  5 0 0 3.90993700514725
2  10 5 0 0 3.90993700514725
0

0101000
+24 0 -34 0 *
Ve
1e-007
933.023755871966 287.228542221684 -8
0 0

0101101
*
Ed
 1e-007 1 1 0
2  11 4 0 0 3.94949915403489
1  6 0 0 3.94949915403489
2  12 5 0 0 3.94949915403489
0

0101000
+22 0 -29 0 *
Ed
 1e-007 1 1 0
1  7 0 0 16.0000000000001
2  13 5 0 0 16.0000000000001
2  14 6 0 0 16.0000000000001
0

0101000
+24 0 -22 0 *
Wi

0101000
+23 0 +27 0 -21 0 -20 0 *
Fa
0  1e-007 5 0

0111000
+19 0 *
Ve
1e-007
924.941028490109 273.420228853623 -16
0 0

0101101
*
Ed
 1e-007 1 1 0
2  15 2 0 0 8
1  8 0 0 8
2  16 6 0 0 8
0

0101000
+17 0 -24 0 *
Ve
1e-007
933.023755871966 287.228542221684 -16
0 0

0101101
*
Ed
 1e-007 1 1 0
2  17 4 0 0 8
1  9 0 0 8
2  18 6 0 0 8
0

0101000
+15 0 -22 0 *
Ed
 1e-007 1 1 0
1  10 0 0 16.0000000000001
2  19 6 0 0 16.0000000000001
2  20 3 0 0 16.0000000000001
0

0101000
+17 0 -15 0 *
Wi

0101000
+16 0 +20 0 -14 0 -13 0 *
Fa
0  1e-007 6 0

0111000
+12 0 *
Ed
 1e-007 1 1 0
2  21 2 0 0 3.90993700514725
1  11 0 0 3.90993700514725
2  22 3 0 0 3.90993700514725
0

0101000
+33 0 -17 0 *
Ed
 1e-007 1 1 0
2  23 4 0 0 3.94949915403489
1  12 0 0 3.94949915403489
2  24 3 0 0 3.94949915403489
0

0101000
+31 0 -15 0 *
Wi

0101000
+10 0 +13 0 -9 0 -30 0 *
Fa
0  1e-007 3 0

0111000
+8 0 *
Wi

0101000
+10 0 +16 0 +23 0 +32 0 *
Fa
0  1e-007 2 0

0111000
+6 0 *
Wi

0101000
+9 0 +14 0 +21 0 +28 0 *
Fa
0  1e-007 4 0

0111000
+4 0 *
Sh

0101000
+25 0 +18 0 +11 0 +7 0 -5 0 +3 0 *
So

0100000
+2 0 *

+1 0 