DBRep_DrawableShape

CASCADE Topology V3, (c) Open Cascade
Locations 2
1
0.0227081211143124 -0.0183642569440448 0.0264026211266423               0 
0.0313815283920452 0.0197257794428004 -0.0132701319194444 38.8251035928405 
-0.0070387506876704 0.0286993169304305 0.0260155395194819 -146.685493322811 
1
0.814888121663679 0.576786276303535 0.0572270970724788 12.6549002231897 
-0.576752323565802 0.797090821157948 0.178893767603004 26.3094347286781 
0.0575682762716589 -0.178784267466828 0.98220266710769 -75.1129775908495 
Curve2ds 128
1 0 508 1 0 
1 0 0 1 0 
1 508 0 0 -1 
1 1524 0 1 0 
1 0 1524 -1 0 
1 2540 0 1 0 
1 0 0 0 -1 
1 1524 0 1 0 
1 0 0 1 0 
1 0 0 1 0 
1 2540 0 0 1 
1 0 0 1 0 
1 0 1524 -1 0 
1 2540 0 1 0 
1 2032 0 0 -1 
1 0 0 -1 0 
1 1524 0 0 1 
1 508 0 0 1 
1 0 3048 -1 0 
1 2032 0 0 -1 
1 508 0 0 1 
1 2032 0 0 1 
1 0 2032 1 0 
2 1016 1524 1 0 -0 1 254
1 -1.5707963267948966 2033 1 0 
1 0 2032 1 0 
2 1016 1524 1 0 -0 1 254
1 -1.5707963267948966 2033 1 0 
1 0 2540 1 0 
1 -1.5707963267948966 2541 1 0 
2 1016 1524 1 0 -0 1 254
1 3.1415926535897931 0 0 1 
1 3.1415926535897931 0 0 1 
1 1.5707963267948966 1 0 1 
1 1.5707963267948966 1 0 1 
1 6.2831853071795862 0 0 1 
1 0 0 0 1 
1 4.7123889803846897 1 0 1 
1 -1.5707963267948966 1 0 1 
1 0 2540 1 0 
2 1016 1524 1 0 -0 1 254
1 -1.5707963267948966 2541 1 0 
1 0 508 1 0 
1 0 3048 1 0 
1 0 1524 -1 0 
1 2540 3048 1 0 
1 2540 0 0 1 
1 0 3048 1 0 
1 0 0 1 0 
1 0 3048 1 0 
1 0 0 0 -1 
1 1524 3048 1 0 
1 0 1524 -1 0 
1 2540 3048 1 0 
1 508 0 0 -1 
1 1524 3048 1 0 
1 0 0 0 1 
1 1524 0 0 1 
1 0 0 0 1 
1 2540 0 0 1 
1 0 0 0 1 
1 1524 0 0 1 
1 0 0 0 1 
1 2540 0 0 1 
1 0 0 1 0 
2 508 1524 -1 0 0 1 254
1 4.7123889803846897 1 1 0 
1 0 0 1 0 
2 508 1524 -1 0 0 1 254
1 -1.5707963267948966 1 1 0 
1 6.2831853071795862 0 0 1 
1 0 0 0 1 
1 4.7123889803846897 1 0 1 
1 4.7123889803846897 1 0 1 
1 0 508 1 0 
1 -1.5707963267948966 509 1 0 
2 508 1524 -1 0 0 1 254
1 3.1415926535897931 0 0 1 
1 3.1415926535897931 0 0 1 
1 1.5707963267948966 1 0 1 
1 7.8539816339744828 1 0 1 
1 0 508 1 0 
1 4.7123889803846897 509 1 0 
2 508 1524 -1 0 0 1 254
1 2032 0 0 1 
1 0 0 0 1 
1 1016 0 0 1 
1 508 0 0 1 
1 6.2831853071795862 109.21999999999998 -1 0 
2 0 0 1 0 0 -1 9.9060000000000112
1 9.4247779607693793 110.21999999999998 -1 0 
1 0 109.21999999999998 1 0 
2 0 0 1 0 -0 1 9.9060000000000112
1 -3.1415926535897931 110.21999999999998 1 0 
1 0 7.6199999999999992 1 0 
2 0 0 1 0 -0 1 9.9060000000000112
1 -3.1415926535897931 8.6199999999999992 1 0 
1 6.2831853071795862 0 0 -1 
1 0 0 0 -1 
1 3.1415926535897931 1 0 -1 
1 3.1415926535897931 1 0 -1 
1 3.1415926535897931 0 0 -1 
1 3.1415926535897931 0 0 -1 
1 6.2831853071795862 1 0 -1 
1 0 1 0 -1 
1 6.2831853071795862 7.6199999999999992 -1 0 
2 0 0 1 0 0 -1 15.239999999999998
1 9.4247779607693793 8.6199999999999992 -1 0 
1 0 7.6199999999999992 1 0 
2 0 0 1 0 -0 1 15.239999999999998
1 -3.1415926535897931 8.6199999999999992 1 0 
1 6.2831853071795862 7.6199999999999992 -1 0 
2 0 0 1 0 0 -1 9.9060000000000112
1 9.4247779607693793 8.6199999999999992 -1 0 
1 0 0 1 0 
2 0 0 1 0 -0 1 15.239999999999998
1 -3.1415926535897931 1 1 0 
1 6.2831853071795862 0 0 -1 
1 0 0 0 -1 
1 3.1415926535897931 0.99999999999999911 0 -1 
1 3.1415926535897931 0.99999999999999911 0 -1 
1 3.1415926535897931 0 0 -1 
1 3.1415926535897931 0 0 -1 
1 6.2831853071795862 0.99999999999999911 0 -1 
1 0 0.99999999999999911 0 -1 
1 6.2831853071795862 0 -1 0 
2 0 0 1 0 0 -1 15.239999999999998
1 9.4247779607693793 1 -1 0 
Curves 48
1 0 508 0 1 0 -0 
1 508 0 0 -0 -1 -0 
1 0 1524 0 -1 -0 0 
1 0 0 0 -0 -1 -0 
1 0 0 0 1 0 -0 
1 2540 0 0 0 1 0 
1 0 1524 0 -1 -0 0 
1 2032 0 0 -0 -1 -0 
1 2032 1524 0 0 0 1 
1 2032 0 3048 0 -1 -0 
1 2032 508 0 0 0 1 
2 2032 1016 1524 1 0 0 -0 1 0 0 -0 1 254
2 2032 1016 1524 1 0 0 -0 1 0 0 -0 1 254
2 2540 1016 1524 1 0 0 -0 1 0 0 -0 1 254
1 0 762 1524 1 0 0 
1 0 1270 1524 1 0 0 
2 2540 1016 1524 1 0 0 -0 1 0 0 -0 1 254
1 0 508 3048 1 0 -0 
1 0 1524 3048 -1 -0 0 
1 2540 0 3048 0 1 0 
1 0 0 3048 1 0 -0 
1 0 0 3048 -0 -1 -0 
1 0 1524 3048 -1 -0 0 
1 508 0 3048 -0 -1 -0 
1 2540 1524 0 0 -0 1 
1 2540 0 0 0 0 1 
1 0 0 0 0 0 1 
1 0 1524 0 0 0 1 
2 0 1016 1524 1 0 0 -0 1 0 0 -0 1 254
2 0 1016 1524 1 0 0 -0 1 0 0 -0 1 254
1 0 1270 1524 1 0 0 
2 508 1016 1524 1 0 0 -0 1 0 0 -0 1 254
1 0 762 1524 1 0 0 
2 508 1016 1524 1 0 0 -0 1 0 0 -0 1 254
1 508 1524 0 0 -0 1 
1 508 508 0 0 0 1 
2 0 109.21999999999998 0 -0 -1 -0 0 0 -1 1 -0 0 9.9060000000000112
2 0 109.21999999999998 0 0 1 0 0 0 -1 -1 0 0 9.9060000000000112
2 0 7.6199999999999992 0 0 1 0 0 0 -1 -1 0 0 9.9060000000000112
1 0 0 -9.9060000000000112 -0 -1 -0 
1 -1.2131351192353695e-15 0 9.9060000000000112 -0 -1 -0 
2 0 7.6199999999999992 0 -0 -1 -0 0 0 -1 1 -0 0 15.239999999999998
2 0 7.6199999999999992 0 0 1 0 0 0 -1 -1 0 0 15.239999999999998
2 0 7.6199999999999992 0 -0 -1 -0 0 0 -1 1 -0 0 9.9060000000000112
2 0 0 0 0 1 0 0 0 -1 -1 0 0 15.239999999999998
1 0 0 -15.239999999999998 -0 -1 -0 
1 -1.8663617219005662e-15 0 15.239999999999998 -0 -1 -0 
2 0 0 0 -0 -1 -0 0 0 -1 1 -0 0 15.239999999999998
Polygon3D 0
PolygonOnTriangulations 0
Surfaces 29
1 0 0 0 0 0 1 1 0 -0 -0 1 0 
1 0 508 0 0 -1 0 1 0 0 -0 0 1 
1 508 1524 0 -1 0 0 0 -1 0 0 0 1 
1 2540 1524 0 0 1 0 -1 0 0 0 -0 1 
1 0 1524 0 -1 0 0 0 -1 0 0 0 1 
1 0 0 0 0 -1 0 1 0 0 -0 0 1 
1 2540 0 0 1 0 0 -0 1 0 0 -0 1 
1 2540 1524 0 0 1 0 -1 0 0 0 -0 1 
1 2032 0 0 1 0 0 -0 1 0 0 -0 1 
1 0 0 3048 0 0 1 1 0 -0 -0 1 0 
2 0 1016 1524 1 0 0 -0 1 0 0 -0 1 254
2 -1 1016 1524 1 0 0 -0 0 1 0 -1 0 254
2 0 1016 1524 1 0 0 -0 1 0 0 -0 1 254
2 -1 1016 1524 1 0 0 -0 0 1 0 -1 0 254
2 0 1016 1524 1 0 0 -0 1 0 0 -0 1 254
2 -1 1016 1524 1 0 0 -0 0 1 0 -1 0 254
2 0 1016 1524 1 0 0 -0 1 0 0 -0 1 254
2 -1 1016 1524 1 0 0 -0 0 1 0 -1 0 254
1 0 109.21999999999998 0 0 1 0 0 0 -1 -1 0 0 
2 0 0 0 0 1 0 0 0 -1 -1 0 0 9.9060000000000112
2 0 -1 0 0 1 0 0 -0 1 1 0 -0 9.9060000000000112
2 0 0 0 0 1 0 0 0 -1 -1 0 0 9.9060000000000112
2 0 -1 0 0 1 0 0 -0 1 1 0 -0 9.9060000000000112
1 0 7.6199999999999992 0 0 1 0 0 0 -1 -1 0 0 
2 0 0 0 0 1 0 0 0 -1 -1 0 0 15.239999999999998
2 0 -1 0 0 1 0 0 -0 1 1 0 -0 15.239999999999998
2 0 0 0 0 1 0 0 0 -1 -1 0 0 15.239999999999998
2 0 -1 0 0 1 0 0 -0 1 1 0 -0 15.239999999999998
1 0 0 0 0 1 0 0 0 -1 -1 0 0 
Triangulations 0

TShapes 132
Ve
1e-07
508 508 0
0 0

0101101
*
Ve
1e-07
2032 508 0
0 0

0101101
*
Ed
 1e-07 1 1 0
1  1 0 508 2032
2  1 1 0 508 2032
2  2 2 0 508 2032
0

0101000
+132 0 -131 0 *
Ve
1e-07
508 1524 0
0 0

0101101
*
Ed
 1e-07 1 1 0
1  2 0 -1524 -508
2  3 1 0 -1524 -508
2  4 3 0 -1524 -508
0

0101000
+129 0 -132 0 *
Ve
1e-07
0 1524 0
0 0

0101101
*
Ed
 1e-07 1 1 0
1  3 0 -508 -0
2  5 1 0 -508 -0
2  6 4 0 -508 -0
0

0101000
+129 0 -127 0 *
Ve
1e-07
0 0 0
0 0

0101101
*
Ed
 1e-07 1 1 0
1  4 0 -1524 -0
2  7 1 0 -1524 -0
2  8 5 0 -1524 -0
0

0101000
+127 0 -125 0 *
Ve
1e-07
2540 0 0
0 0

0101101
*
Ed
 1e-07 1 1 0
1  5 0 0 2540
2  9 1 0 0 2540
2  10 6 0 0 2540
0

0101000
+125 0 -123 0 *
Ve
1e-07
2540 1524 0
0 0

0101101
*
Ed
 1e-07 1 1 0
1  6 0 0 1524
2  11 1 0 0 1524
2  12 7 0 0 1524
0

0101000
+123 0 -121 0 *
Ve
1e-07
2032 1524 0
0 0

0101101
*
Ed
 1e-07 1 1 0
1  7 0 -2540 -2032
2  13 1 0 -2540 -2032
2  14 8 0 -2540 -2032
0

0101000
+121 0 -119 0 *
Ed
 1e-07 1 1 0
1  8 0 -1524 -508
2  15 1 0 -1524 -508
2  16 9 0 -1524 -508
0

0101000
+119 0 -131 0 *
Wi

0101000
-130 0 -128 0 +126 0 +124 0 +122 0 +120 0 +118 0 +117 0 *
Fa
0  1e-07 1 0

0101000
+116 0 *
Ve
1e-07
2032 1524 3048
0 0

0101101
*
Ed
 1e-07 1 1 0
1  9 0 0 3048
2  17 9 0 0 3048
2  18 8 0 0 3048
0

0101000
+119 0 -114 0 *
Ve
1e-07
2032 508 3048
0 0

0101101
*
Ed
 1e-07 1 1 0
1  10 0 -1524 -508
2  19 9 0 -1524 -508
2  20 10 0 -1524 -508
0

0101000
+114 0 -112 0 *
Ed
 1e-07 1 1 0
1  11 0 0 3048
2  21 9 0 0 3048
2  22 2 0 0 3048
0

0101000
+131 0 -112 0 *
Wi

0101000
-117 0 +113 0 +111 0 -110 0 *
Ve
1e-07
2032 1270 1524
0 0

0101101
*
Ve
1e-07
2032 762 1524
0 0

0101101
*
Ed
 1e-07 1 1 0
1  12 0 0 3.14159265358979
2  23 11 0 0 3.14159265358979
2  24 9 0 0 3.14159265358979
2  25 12 0 0 3.14159265358979
0

0101000
+108 0 -107 0 *
Ed
 1e-07 1 1 0
1  13 0 3.14159265358979 6.28318530717959
2  26 13 0 3.14159265358979 6.28318530717959
2  27 9 0 3.14159265358979 6.28318530717959
2  28 14 0 3.14159265358979 6.28318530717959
0

0101000
+107 0 -108 0 *
Wi

0101000
-106 0 -105 0 *
Fa
0  1e-07 9 0

0111000
+109 0 +104 0 *
Ve
1e-07
2540 762 1524
0 0

0101101
*
Ve
1e-07
2540 1270 1524
0 0

0101101
*
Ed
 1e-07 1 1 0
1  14 0 3.14159265358979 6.28318530717959
2  29 13 0 3.14159265358979 6.28318530717959
2  30 14 0 3.14159265358979 6.28318530717959
2  31 7 0 3.14159265358979 6.28318530717959
0

0101000
+102 0 -101 0 *
Ed
 1e-07 1 1 0
1  15 0 2032 2540
2  32 13 0 2032 2540
2  33 11 0 2032 2540
2  34 14 0 2032 2540
2  35 12 0 2032 2540
0

0101000
+107 0 -102 0 *
Ed
 1e-07 1 1 0
1  16 0 2032 2540
2  36 13 0 2032 2540
2  37 11 0 2032 2540
2  38 14 0 2032 2540
2  39 12 0 2032 2540
0

0101000
+108 0 -101 0 *
Wi

0101000
-100 0 -99 0 +105 0 +98 0 *
Fa
0  1e-07 14 0

0101000
+97 0 *
Ed
 1e-07 1 1 0
1  17 0 0 3.14159265358979
2  40 11 0 0 3.14159265358979
2  41 7 0 0 3.14159265358979
2  42 12 0 0 3.14159265358979
0

0101000
+101 0 -102 0 *
Wi

0101100
-95 0 -98 0 +106 0 +99 0 *
Fa
0  1e-07 12 0

0101000
+94 0 *
Ve
1e-07
508 508 3048
0 0

0101101
*
Ed
 1e-07 1 1 0
1  18 0 508 2032
2  43 10 0 508 2032
2  44 2 0 508 2032
0

0101000
+92 0 -112 0 *
Ve
1e-07
2540 1524 3048
0 0

0101101
*
Ed
 1e-07 1 1 0
1  19 0 -2540 -2032
2  45 10 0 -2540 -2032
2  46 8 0 -2540 -2032
0

0101000
+90 0 -114 0 *
Ve
1e-07
2540 0 3048
0 0

0101101
*
Ed
 1e-07 1 1 0
1  20 0 0 1524
2  47 10 0 0 1524
2  48 7 0 0 1524
0

0101000
+88 0 -90 0 *
Ve
1e-07
0 0 3048
0 0

0101101
*
Ed
 1e-07 1 1 0
1  21 0 0 2540
2  49 10 0 0 2540
2  50 6 0 0 2540
0

0101000
+86 0 -88 0 *
Ve
1e-07
0 1524 3048
0 0

0101101
*
Ed
 1e-07 1 1 0
1  22 0 -1524 -0
2  51 10 0 -1524 -0
2  52 5 0 -1524 -0
0

0101000
+84 0 -86 0 *
Ve
1e-07
508 1524 3048
0 0

0101101
*
Ed
 1e-07 1 1 0
1  23 0 -508 -0
2  53 10 0 -508 -0
2  54 4 0 -508 -0
0

0101000
+82 0 -84 0 *
Ed
 1e-07 1 1 0
1  24 0 -1524 -508
2  55 10 0 -1524 -508
2  56 3 0 -1524 -508
0

0101000
+82 0 -92 0 *
Wi

0101000
+91 0 -111 0 -89 0 -87 0 -85 0 -83 0 -81 0 +80 0 *
Fa
0  1e-07 10 0

0101000
-79 0 *
Ed
 1e-07 1 1 0
1  25 0 0 3048
2  57 8 0 0 3048
2  58 7 0 0 3048
0

0101000
+121 0 -90 0 *
Wi

0101000
-113 0 -118 0 +77 0 +89 0 *
Fa
0  1e-07 8 0

0101000
-76 0 *
Ed
 1e-07 1 1 0
1  26 0 0 3048
2  59 7 0 0 3048
2  60 6 0 0 3048
0

0101000
+123 0 -88 0 *
Wi

0101000
-120 0 +74 0 +87 0 -77 0 *
Wi

0101000
+95 0 +100 0 *
Fa
0  1e-07 7 0

0101000
-73 0 -72 0 *
Ed
 1e-07 1 1 0
1  27 0 0 3048
2  61 6 0 0 3048
2  62 5 0 0 3048
0

0101000
+125 0 -86 0 *
Wi

0101000
-122 0 +70 0 +85 0 -74 0 *
Fa
0  1e-07 6 0

0101000
-69 0 *
Ed
 1e-07 1 1 0
1  28 0 0 3048
2  63 5 0 0 3048
2  64 4 0 0 3048
0

0101000
+127 0 -84 0 *
Wi

0101000
-124 0 +67 0 +83 0 -70 0 *
Ve
1e-07
0 1270 1524
0 0

0101101
*
Ve
1e-07
0 762 1524
0 0

0101101
*
Ed
 1e-07 1 1 0
1  29 0 0 3.14159265358979
2  65 15 0 0 3.14159265358979
2  66 5 0 0 3.14159265358979
2  67 16 0 0 3.14159265358979
0

0101000
+65 0 -64 0 *
Ed
 1e-07 1 1 0
1  30 0 3.14159265358979 6.28318530717959
2  68 17 0 3.14159265358979 6.28318530717959
2  69 5 0 3.14159265358979 6.28318530717959
2  70 18 0 3.14159265358979 6.28318530717959
0

0101000
+64 0 -65 0 *
Wi

0101000
-63 0 -62 0 *
Fa
0  1e-07 5 0

0111000
-66 0 -61 0 *
Ve
1e-07
508 1270 1524
0 0

0101101
*
Ed
 1e-07 1 1 0
1  31 0 0 508
2  71 17 0 0 508
2  72 15 0 0 508
2  73 18 0 0 508
2  74 16 0 0 508
0

0101000
+65 0 -59 0 *
Ve
1e-07
508 762 1524
0 0

0101101
*
Ed
 1e-07 1 1 0
1  32 0 3.14159265358979 6.28318530717959
2  75 17 0 3.14159265358979 6.28318530717959
2  76 18 0 3.14159265358979 6.28318530717959
2  77 3 0 3.14159265358979 6.28318530717959
0

0101000
+57 0 -59 0 *
Ed
 1e-07 1 1 0
1  33 0 0 508
2  78 17 0 0 508
2  79 15 0 0 508
2  80 18 0 0 508
2  81 16 0 0 508
0

0101000
+64 0 -57 0 *
Wi

0101000
+62 0 +58 0 -56 0 -55 0 *
Fa
0  1e-07 18 0

0101000
+54 0 *
Ed
 1e-07 1 1 0
1  34 0 0 3.14159265358979
2  82 15 0 0 3.14159265358979
2  83 16 0 0 3.14159265358979
2  84 3 0 0 3.14159265358979
0

0101000
+59 0 -57 0 *
Wi

0101100
+63 0 +55 0 -52 0 -58 0 *
Fa
0  1e-07 16 0

0101000
+51 0 *
Ed
 1e-07 1 1 0
1  35 0 0 3048
2  85 4 0 0 3048
2  86 3 0 0 3048
0

0101000
+129 0 -82 0 *
Wi

0101000
+49 0 +81 0 -67 0 -126 0 *
Fa
0  1e-07 4 0

0101000
-48 0 *
Ed
 1e-07 1 1 0
1  36 0 0 3048
2  87 3 0 0 3048
2  88 2 0 0 3048
0

0101000
+132 0 -92 0 *
Wi

0101000
+128 0 +46 0 -80 0 -49 0 *
Wi

0101000
+52 0 +56 0 *
Fa
0  1e-07 3 0

0111000
+45 0 +44 0 *
Wi

0101000
+130 0 +110 0 -91 0 -46 0 *
Fa
0  1e-07 2 0

0101000
+42 0 *
Sh

0101100
-115 0 -103 0 -96 0 -93 0 +78 0 +75 0 +71 0 +68 0 +60 0 -53 0 
-50 0 +47 0 -43 0 -41 0 *
So

0100000
+40 0 *
Ve
1e-07
-8.08756746156913e-16 109.22 9.90600000000001
0 0

0101101
*
Ve
1e-07
8.08756746156913e-16 109.22 -9.90600000000001
0 0

0101101
*
Ed
 1e-07 1 1 0
1  37 0 3.14159265358979 6.28318530717959
2  89 20 0 3.14159265358979 6.28318530717959
2  90 19 0 3.14159265358979 6.28318530717959
2  91 21 0 3.14159265358979 6.28318530717959
0

0101000
+38 0 -37 0 *
Ed
 1e-07 1 1 0
1  38 0 3.14159265358979 6.28318530717959
2  92 22 0 3.14159265358979 6.28318530717959
2  93 19 0 3.14159265358979 6.28318530717959
2  94 23 0 3.14159265358979 6.28318530717959
0

0101000
+38 0 -37 0 *
Wi

0101000
+36 0 -35 0 *
Fa
0  1e-07 19 0

0101000
-34 0 *
Ve
1e-07
-8.08756746156913e-16 7.62 9.90600000000001
0 0

0101101
*
Ve
1e-07
8.08756746156913e-16 7.62 -9.90600000000001
0 0

0101101
*
Ed
 1e-07 1 1 0
1  39 0 3.14159265358979 6.28318530717959
2  95 22 0 3.14159265358979 6.28318530717959
2  96 24 0 3.14159265358979 6.28318530717959
2  97 23 0 3.14159265358979 6.28318530717959
0

0101000
+32 0 -31 0 *
Ed
 1e-07 1 1 0
1  40 0 -109.22 -7.62
2  98 22 0 -109.22 -7.62
2  99 20 0 -109.22 -7.62
2  100 21 0 -109.22 -7.62
2  101 23 0 -109.22 -7.62
0

0101000
+37 0 -31 0 *
Ed
 1e-07 1 1 0
1  41 0 -109.22 -7.62
2  102 22 0 -109.22 -7.62
2  103 20 0 -109.22 -7.62
2  104 21 0 -109.22 -7.62
2  105 23 0 -109.22 -7.62
0

0101000
+38 0 -32 0 *
Wi

0101100
+30 0 -29 0 -35 0 +28 0 *
Fa
0  1e-07 23 0

0101000
+27 0 *
Ve
1e-07
-1.24424114793371e-15 7.62 15.24
0 0

0101101
*
Ve
1e-07
1.24424114793371e-15 7.62 -15.24
0 0

0101101
*
Ed
 1e-07 1 1 0
1  42 0 3.14159265358979 6.28318530717959
2  106 25 0 3.14159265358979 6.28318530717959
2  107 24 0 3.14159265358979 6.28318530717959
2  108 26 0 3.14159265358979 6.28318530717959
0

0101000
+25 0 -24 0 *
Ed
 1e-07 1 1 0
1  43 0 3.14159265358979 6.28318530717959
2  109 27 0 3.14159265358979 6.28318530717959
2  110 24 0 3.14159265358979 6.28318530717959
2  111 28 0 3.14159265358979 6.28318530717959
0

0101000
+25 0 -24 0 *
Wi

0101000
+23 0 -22 0 *
Ed
 1e-07 1 1 0
1  44 0 3.14159265358979 6.28318530717959
2  112 20 0 3.14159265358979 6.28318530717959
2  113 24 0 3.14159265358979 6.28318530717959
2  114 21 0 3.14159265358979 6.28318530717959
0

0101000
+32 0 -31 0 *
Wi

0101000
+30 0 -20 0 *
Fa
0  1e-07 24 0

0101000
-21 0 -19 0 *
Ve
1e-07
-1.24424114793371e-15 0 15.24
0 0

0101101
*
Ve
1e-07
1.24424114793371e-15 0 -15.24
0 0

0101101
*
Ed
 1e-07 1 1 0
1  45 0 3.14159265358979 6.28318530717959
2  115 27 0 3.14159265358979 6.28318530717959
2  116 29 0 3.14159265358979 6.28318530717959
2  117 28 0 3.14159265358979 6.28318530717959
0

0101000
+17 0 -16 0 *
Ed
 1e-07 1 1 0
1  46 0 -7.62 -0
2  118 27 0 -7.62 -0
2  119 25 0 -7.62 -0
2  120 26 0 -7.62 -0
2  121 28 0 -7.62 -0
0

0101000
+24 0 -16 0 *
Ed
 1e-07 1 1 0
1  47 0 -7.62 -0
2  122 27 0 -7.62 -0
2  123 25 0 -7.62 -0
2  124 26 0 -7.62 -0
2  125 28 0 -7.62 -0
0

0101000
+25 0 -17 0 *
Wi

0101100
+15 0 -14 0 -22 0 +13 0 *
Fa
0  1e-07 28 0

0101000
+12 0 *
Ed
 1e-07 1 1 0
1  48 0 3.14159265358979 6.28318530717959
2  126 25 0 3.14159265358979 6.28318530717959
2  127 29 0 3.14159265358979 6.28318530717959
2  128 26 0 3.14159265358979 6.28318530717959
0

0101000
+17 0 -16 0 *
Wi

0101000
-10 0 +15 0 *
Fa
0  1e-07 29 0

0101000
+9 0 *
Wi

0101100
+23 0 +14 0 -10 0 -13 0 *
Fa
0  1e-07 26 0

0101000
+7 0 *
Wi

0101100
+36 0 +29 0 -20 0 -28 0 *
Fa
0  1e-07 21 0

0101000
+5 0 *
Sh

0101100
+33 0 +26 0 +18 0 +11 0 -8 0 +6 0 +4 0 *
So

0100000
+3 0 *
Co

0100000
+39 1 +2 2 *

+1 0 
0

