DBRep_DrawableShape

CASCADE Topology V1, (c) Matra-Datavision
Locations 16
1
              1               0               0               0 
              0               1               0               0 
              0               0               1               0 
1
              1               0               0             -13 
              0               1               0             -23 
              0               0               1              30 
1
              1               0               0               0 
              0               1               0               0 
              0               0               1               0 
2  2 1 3 1 0
1
              1               0               0               0 
              0               1               0               0 
              0               0               1               3 
2  5 -1 3 -1 2 -1 0
2  2 -1 0
1
              1               0               0             -13 
              0               1               0             -23 
              0               0               1              -5 
2  5 -1 3 -1 0
2  8 -1 0
2  5 -1 3 -1 8 -1 0
2  8 1 3 1 0
2  3 -1 0
2  5 -1 0
2  3 -1 2 -1 0
2  3 -1 8 -1 0
Curve2ds 128
1 0 0 0 1 
1 0 32 1 0 
1 0 40 1 0 
1 -15 -17 1 0 
1 15 0 0 1 
1 0 17 1 0 
1 0 0 1 0 
1 -15 -17 1 0 
1 0 0 0 1 
1 -15 15 0 -1 
1 40 0 0 1 
1 -15 15 0 -1 
8 -40 0
1 0 15 -1 0 
8 -40 0
1 35 0 0 -1 
1 0 40 1 0 
1 -50 0 1 0 
1 0 0 1 0 
1 -50 0 1 0 
1 0 0 0 1 
1 0 15 1 0 
1 0 0 0 1 
1 -50 15 0 -1 
1 40 0 0 1 
1 -50 15 0 -1 
1 0 0 1 0 
1 0 0 0 1 
1 0 15 0 -1 
1 40 -15 0 1 
1 -50 15 1 0 
1 0 40 1 0 
1 0 15 0 -1 
1 0 -15 0 1 
1 -50 15 1 0 
1 0 0 1 0 
1 43 -15 0 1 
1 0 15 0 -1 
2 40 17 -1 1.1102230246251565e-16 1.1102230246251565e-16 1 3
1 0 15 1 0 
1 0 20 1 0 
1 15 0 0 1 
2 -1.7763568394002505e-15 17 1 1.1102230246251565e-16 -1.1102230246251565e-16 1 3
1 0 15 1 0 
1 -3 -15 0 1 
1 0 15 0 -1 
1 0 -15 1 0 
1 50 0 0 1 
1 0 -15 1 0 
1 50 0 0 1 
2 0 40 -1.1102230246251565e-16 -1 -1 1.1102230246251565e-16 3
1 0 0 1 0 
1 -3 0 0 1 
1 0 0 1 0 
2 0 -1.7763568394002505e-15 -1.1102230246251565e-16 1 -1 -1.1102230246251565e-16 3
1 0 0 1 0 
1 0 -3 1 0 
1 -50 15 1 0 
1 0 43 1 0 
1 -50 15 1 0 
1 -50 15 0 -1 
1 3.1415926535897931 0 0 1 
1 -50 0 1 0 
1 3.1415926535897931 0 0 1 
1 -15 15 0 -1 
1 3.1415926535897931 0 0 1 
1 -15 -17 1 0 
1 3.1415926535897931 0 0 1 
1 1.5707963267948966 0 0 1 
1 0 0 1 0 
1 0 0 1 0 
7 0 0  9 18 3  4.0969092717142992 -1.5594378013933575e-15  4.0352025636113389 -0.061706708102962686  3.9734959039205942 -0.12341344888832621  3.9111092035849047 -0.18478011625650007  3.8473640777568412 -0.24546767243795228  3.7815501708545423 -0.30511035369547951  3.7129073186886976 -0.36329626540966348  3.6405958241987864 -0.41953452340229636  3.5637051729050526 -0.47321545998927594  3.3991539531827737 -0.57398209120732102  3.3114927304568482 -0.62106767192199186  3.2176472147184541 -0.6641169898903172  3.1168846239888808 -0.70225476236009854  3.0088849303574534 -0.73449146382699837  2.8936372479147394 -0.75969772667849611  2.7729392869860021 -0.77683057124431798  2.649526361125329 -0.78539816331018175  2.5261129449194075 -0.78539816339744928 
 1.5707963267948966 10 2.3561944901923479 8 3.1415926535897931 10
1 -15 -17 1 0 
1 3.1415926535897931 0 0 1 
1 -50 15 0 -1 
1 3.1415926535897931 0 0 1 
1 -50 0 1 0 
1 3.1415926535897931 0 0 1 
1 -15 15 0 -1 
1 3.1415926535897931 0 0 1 
1 0 0 1 0 
7 0 0  9 18 3  4.0969092717142992 1.5594378021171405e-15  4.0352025636113389 0.061706708102962686  3.9734959039156426 0.12341344888876832  3.9111092035949091 0.18478011625547688  3.8473640777507776 0.24546767243865966  3.7815501708460539 0.30511035369618689  3.7129073186955188 0.36329626540867821  3.6405958241948957 0.41953452340282688  3.5637051729050526 0.47321545998927594  3.3991539531827737 0.57398209120732102  3.3114927304450248 0.62106767191744439  3.217647214733006 0.66411698990305013  3.1168846238433616 0.70225476233827067  3.0088849305757321 0.73449146385246422  2.8936372478710837 0.75969772666576318  2.772939287004192 0.77683057124750121  2.6495263611253264 0.78539816331018009  2.5261129449194053 0.7853981633974475 
 1.5707963267948966 10 2.3561944901923479 8 3.1415926535897931 10
1 1.5707963267948966 0 0 1 
1 0 40 1 0 
1 0 0 0 1 
1 1.5707963267948966 0 0 1 
1 1.5707963267948966 0 0 1 
1 40 0 0 1 
1 0 15 1 0 
1 2.5261129449194044 -2.3561944901923448 -0 1 
1 1.5707963267948966 0 0 1 
1 0 0 0 1 
1 0 15 1 0 
1 2.5261129449194044 2.3561944901923448 0 -1 
1 0 15 1 0 
1 3.1415926535897931 0 0 1 
7 0 0  9 18 3  4.0969092717143019 2.1691903789057071e-16  4.0352025636113407 -0.061706708102960972  3.9734959039184718 -0.12341344888870164  3.9111092035912711 -0.18478011625506952  3.8473640777576494 -0.24546767243840703  3.7815501708585848 -0.30511035369618689  3.7129073187006725 -0.36329626540860244  3.6405958241984329 -0.41953452340265002  3.5637051729050544 -0.47321545998927583  3.3991539531827764 -0.57398209120732113  3.3114927304395678 -0.62106767191698964  3.2176472147621098 -0.6641169899066881  3.1168846239597769 -0.7022547622982529  3.0088849305611802 -0.73449146384882624  2.8936372479292913 -0.75969772666576318  2.772939287002373 -0.77683057125068444  2.6495263611253286 -0.78539816331018186  2.5261129449194071 -0.78539816339744939 
 1.5707963267948966 10 2.3561944901923448 8 3.1415926535897931 10
1 0 0 1 0 
7 0 0  9 18 3  4.0969092717143019 -2.1691903789057071e-16  4.0352025636113407 0.061706708102960972  3.9734959039188258 0.12341344888872374  3.9111092035950605 0.18478011625530635  3.8473640777620961 0.24546767243805334  3.7815501708597972 0.30511035369578265  3.7129073186996115 0.36329626540873505  3.6405958241987864 0.41953452340260594  3.5637051729050544 0.47321545998927633  3.3991539531827764 0.57398209120732169  3.3114927304332014 0.62106767192244661  3.2176472148130415 0.66411698989213619  3.1168846239161212 0.70225476234190864  3.008884930604836 0.73449146381972241  2.8936372478783596 0.75969772668759106  2.772939287009649 0.77683057124522747  2.6495263611253286 0.78539816331018208  2.5261129449194071 0.78539816339744961 
 1.5707963267948966 10 2.3561944901923448 8 3.1415926535897931 10
1 0 0 1 0 
1 1.5707963267948966 0 0 1 
1 0 0 1 0 
7 0 0  8 9 2  1.5707963267948966 32  1.7671458683942587 32.000000000589047  1.9634954089967778 32.132182328838098  2.1598449495786554 32.396545861498453  2.3561944901957759 32.782223748741671  2.5525440307792451 33.267460215720348  2.7488935713936371 33.821902613730344  2.9452431119904308 34.410951375201918  3.1415926535897931 35.000000000000028 
 0 9 1.5707963267948966 9
7 0 0  8 9 2  1.5707963267948966 18  1.7671458683942587 17.999999999410953  1.9634954089949588 17.867817671181911  2.1598449495859313 17.603454138341476  2.3561944901884999 17.217776251389296  2.552544030786521 16.73253978419234  2.7488935713918181 16.178097386306035  2.9452431119904308 15.589048624798087  3.1415926535897931 15.000000000000004 
 0 9 1.5707963267948966 9
1 0 32 1 0 
1 2.5261129449194044 2.3561944901923457 0 -1 
1 1.5707963267948966 0 0 1 
1 0 0 0 1 
1 0 40 1 0 
1 1.5707963267948966 0 0 1 
1 0 0 0 1 
1 1.5707963267948966 0 0 1 
8 -44 4
1 32 0 0 -1 
8 -44 4
1 0 18 -1 0 
7 0 0  9 18 3  4.096909271714301 -8.0903798575749638e-16  4.0352025636113398 0.061706708102960479  3.9734959039152886 0.12341344888841414  3.91110920359597 0.18478011625623481  3.8473640777576494 0.24546767243737122  3.7815501708513088 0.3051103536949995  3.7129073186944574 0.36329626540953086  3.6405958241952496 0.41953452340234065  3.5637051729050544 0.47321545998927622  3.3991539531827764 0.5739820912073218  3.3114927304732191 0.62106767191426115  3.2176472146020387 0.664116989924878  3.1168846242217114 0.70225476226187311  3.0088849303574534 0.73449146388884401  2.893637247994775 0.75969772665303026  2.7729392869841831 0.7768305712502297  2.6495263611253286 0.78539816331018331  2.5261129449194071 0.78539816339745083 
 1.5707963267948966 10 2.3561944901923448 8 3.1415926535897931 10
1 0 0 1 0 
7 0 0  9 18 3  4.0969092717143019 8.0903798513711092e-16  4.0352025636113407 -0.061706708102960479  3.9734959039181184 -0.12341344888839204  3.9111092035923321 -0.18478011625660429  3.8473640777564366 -0.24546767243850809  3.7815501708541381 -0.30511035369578265  3.7129073186967312 -0.36329626540939824  3.6405958241977254 -0.41953452340238534  3.5637051729050535 -0.47321545998927866  3.3991539531827759 -0.57398209120732424  3.3114927304477533 -0.62106767191880863  3.2176472147548338 -0.66411698988667922  3.1168846240325365 -0.70225476233463269  3.0088849305466283 -0.73449146383063635  2.8936372479656711 -0.75969772666758217  2.7729392869950971 -0.77683057124795596  2.6495263611253281 -0.78539816331018297  2.5261129449194066 -0.7853981633974505 
 1.5707963267948966 10 2.3561944901923435 8 3.1415926535897931 10
1 0 40 1 0 
1 2.5261129449194044 -2.3561944901923457 -0 1 
1 0 32 1 0 
7 0 0  9 18 3  4.0969092717143019 3.7519990851586419e-16  4.0352025636113407 0.061706708102961576  3.9734959039198867 0.12341344888870176  3.9111092035918773 0.18478011625567584  3.8473640777616915 0.24546767243843229  3.7815501708561592 0.30511035369601003  3.7129073186909713 0.36329626540884874  3.6405958241984329 0.41953452340251751  3.5637051729050535 0.47321545998927639  3.3991539531827755 0.5739820912073218  3.3114927304613957 0.62106767191630752  3.2176472147039021 0.66411698990850709  3.1168846241343999 0.70225476229097694  3.0088849304447649 0.7344914638561022  2.8936372480166028 0.75969772666940116  2.7729392869805451 0.77683057124977495  2.6495263611253277 0.78539816331018175  2.5261129449194062 0.78539816339744917 
 1.5707963267948966 10 2.3561944901923453 8 3.1415926535897931 10
1 0 0 1 0 
7 0 0  9 18 3  4.0969092717143019 2.1691903809736587e-16  4.0352025636113407 -0.061706708102960972  3.9734959039213016 -0.12341344888863531  3.9111092035876331 -0.18478011625587479  3.8473640777584581 -0.24546767243845757  3.7815501708561592 -0.30511035369598477  3.7129073186909713 -0.3632962654090382  3.6405958241984329 -0.41953452340260594  3.5637051729050535 -0.47321545998927639  3.3991539531827755 -0.5739820912073218  3.3114927304422963 -0.62106767192040024  3.2176472147475579 -0.66411698989395518  3.1168846239888808 -0.70225476232371875  3.0088849305320764 -0.73449146382336039  2.8936372479438432 -0.75969772668577207  2.772939287000554 -0.77683057124568222  2.6495263611253277 -0.78539816331018175  2.5261129449194062 -0.78539816339744917 
 1.5707963267948966 10 2.3561944901923453 8 3.1415926535897931 10
1 0 40 1 0 
7 0 0  8 9 2  3.1415926535897931 35.000000000000028  2.9452431119904308 34.410951375201918  2.7488935713886349 33.821902613661223  2.5525440307928875 33.267460215894971  2.356194490179405 32.782223748392425  2.1598449495950263 32.39654586170218  1.9634954089915482 32.132182328776253  1.7671458683942587 32.000000000589047  1.5707963267948966 32 
 4.7123889803846897 9 6.2831853071795862 9
7 0 0  8 9 2  3.1415926535897931 15.000000000000004  2.9452431119904308 15.589048624798087  2.7488935713897718 16.178097386329682  2.552544030784702 16.732539784032269  2.3561944901903189 17.217776251549367  2.1598449495859313 17.603454138210509  1.9634954089929124 17.867817671201919  1.7671458683942587 17.999999999410949  1.5707963267948966 18 
 4.7123889803846897 9 6.2831853071795862 9
1 1.5707963267948966 0 0 1 
1 40 0 0 1 
1 0 32 1 0 
1 3.1415926535897931 0 0 1 
Curves 64
1 0 32 0 1 0 -0 
1 40 32 0 0 0 1 
1 0 32 15 1 0 -0 
1 0 32 0 0 0 1 
1 0 0 0 -0 1 0 
1 40 0 0 -0 1 0 
1 -13 -8 30 -1 0 0 
1 40 15 0 0 0 1 
1 0 15 0 0 0 1 
1 0 15 0 1 0 -0 
1 0 0 0 -0 1 0 
1 40 0 0 -0 1 0 
1 0 0 0 1 0 -0 
1 27 -23 45 0 1 0 
1 27 -23 -5 0 0 1 
1 -13 -23 45 0 1 0 
1 -13 -23 -5 0 0 1 
1 30 -23 45 0 1 0 
2 27.000000000000004 9 45 0 0 -1 -1 1.1102230246251565e-16 0 1.1102230246251565e-16 1 0 3
1 0 35 15 1 0 0 
2 -13.000000000000002 9 45 0 -0 1 1 1.1102230246251565e-16 0 -1.1102230246251565e-16 1 0 3
1 -16 -23 45 0 1 0 
1 0 0 50 1 0 -0 
1 0 0 50 1 0 -0 
2 27 -23 -5 0 -1 -0 -1 0 -1.1102230246251565e-16 1.1102230246251565e-16 0 -1 3
1 0 0 -3 1 0 0 
2 -13.000000000000002 -23 -5 0 1 0 1 0 -1.1102230246251565e-16 -1.1102230246251565e-16 0 -1 3
1 -16 -23 -5 -0 0 1 
1 30 -23 -5 -0 0 1 
1 -16 -23 -5 0 1 0 
1 -16 -8 -5 -0 0 1 
1 -16 -23 30 0 1 0 
1 -16 9 30 -0 0 1 
1 0 35 0 0 0 1 
2 -13.000000000000002 9 30 0 -0 1 1 1.1102230246251565e-16 0 -1.1102230246251565e-16 1 0 3
1 30 9 30 -0 0 1 
1 30 -23 -5 0 1 0 
1 30 -8 -5 -0 0 1 
1 30 -23 30 0 1 0 
2 27.000000000000004 9 30 0 0 -1 -1 1.1102230246251565e-16 0 1.1102230246251565e-16 1 0 3
1 40 35 0 0 0 1 
1 0 35 0 1 0 0 
1 40 0 -3 0 1 0 
2 27 -8 -5 0 -1 -0 -1 0 -1.1102230246251565e-16 1.1102230246251565e-16 0 -1 3
1 0 0 -3 0 1 0 
2 -13.000000000000002 -8 -5 0 1 0 1 0 -1.1102230246251565e-16 -1.1102230246251565e-16 0 -1 3
1 0 15 -3 1 0 0 
2 -13 -8 -5 0 -0 1 1 1.1102230246251565e-16 0 -1.1102230246251565e-16 1 0 3
2 -13 -8 -5 -1 0 0 0 1.1102230246251565e-16 1 0 1 -1.1102230246251565e-16 3
1 0 18 0 0 0 1 
3 -13 -8 30.000000000000004 0 0.70710678118654746 0.70710678118654746 0 0.70710678118654746 -0.70710678118654746 -1 0 0 4.2426406871192857 3
2 -13 9 30.000000000000004 0 1 0 1 0 -1.1102230246251565e-16 -1.1102230246251565e-16 0 -1 3
1 0 0 -3 0 1 0 
1 40 18 0 0 0 1 
1 0 18 0 1 0 0 
1 -13 -5 27 -1 0 0 
2 -13 9 30 -1 0 0 0 1.1102230246251565e-16 1 0 1 -1.1102230246251565e-16 3
2 27 9 30 -1 0 0 0 1.1102230246251565e-16 1 0 1 -1.1102230246251565e-16 3
2 27 9 30.000000000000004 0 -1 -0 -1 0 -1.1102230246251565e-16 1.1102230246251565e-16 0 -1 3
2 27 -8 -5 0 0 -1 -1 1.1102230246251565e-16 0 1.1102230246251565e-16 1 0 3
2 27 -8 -5 -1 0 0 0 1.1102230246251565e-16 1 0 1 -1.1102230246251565e-16 3
3 27 -8 30.000000000000004 0 0.70710678118654746 0.70710678118654746 0 0.70710678118654746 -0.70710678118654746 -1 0 0 4.2426406871192857 3
1 40 0 -3 0 1 0 
1 0 32 -3 1 0 0 
Polygon3D 0
PolygonOnTriangulations 0
Surfaces 28
1 0 32 0 -0 1 0 0 0 1 1 0 -0 
1 0 0 0 0 0 1 1 0 -0 -0 1 0 
1 27 -8 45 1 -0 0 -0 0 1 -0 -1 0 
1 -13 -8 45 -0 0 1 1 0 0 0 1 -0 
1 -13 -8 45 1 -0 0 -0 0 1 -0 -1 0 
1 0 15 0 -0 1 0 0 0 1 1 0 -0 
1 0 0 0 0 0 1 1 0 -0 -0 1 0 
1 0 0 0 -0 1 0 0 0 1 1 0 -0 
1 30 -8 45 1 -0 0 -0 0 1 -0 -1 0 
2 27.000000000000004 9 30 0 0 1 -1 1.1102230246251565e-16 0 1.1102230246251565e-16 1 0 3
1 0 35 0 -0 1 0 0 0 1 1 0 -0 
2 -13.000000000000002 9 30 0 0 1 1 1.1102230246251565e-16 0 -1.1102230246251565e-16 1 0 3
1 -16 -8 45 1 -0 0 -0 0 1 -0 -1 0 
2 27 -23 -5 0 1 0 -1 0 -1.1102230246251565e-16 1.1102230246251565e-16 0 -1 3
1 0 0 -3 0 0 1 1 0 -0 -0 1 0 
2 -13.000000000000002 -23 -5 0 1 0 1 0 -1.1102230246251565e-16 -1.1102230246251565e-16 0 -1 3
10 1.5707963267948966 3.1415926535897931 0 35
2 -13 -8 -5 0 0 1 1 1.1102230246251565e-16 0 -1.1102230246251565e-16 1 0 3
10 1.5707963267948966 3.1415926535897931 15 32
2 -13 -23 30.000000000000004 0 1 0 1 0 -1.1102230246251565e-16 -1.1102230246251565e-16 0 -1 3
4 -13 9 30 0.70710678118654657 0 -0.70710678118654857 0.5773502691896264 -0.5773502691896264 0.57735026918962473 -0.40824829046386396 -0.81649658092772559 -0.4082482904638628 3
10 1.5707963267948966 3.1415926535897931 0 35
2 27 -8 -5 0 0 1 -1 1.1102230246251565e-16 0 1.1102230246251565e-16 1 0 3
10 1.5707963267948966 3.1415926535897931 15 32
2 27 -23 30.000000000000004 0 1 0 -1 0 -1.1102230246251565e-16 1.1102230246251565e-16 0 -1 3
4 27 9 30 0.70710678118654657 -0 0.70710678118654857 -0.5773502691896264 -0.5773502691896264 0.57735026918962473 0.40824829046386396 -0.81649658092772559 -0.4082482904638628 3
10 1.5707963267948966 3.1415926535897931 0 40
2 -13 9 30 1 0 0 0 1.1102230246251565e-16 1 0 1 -1.1102230246251565e-16 3
4 27 -8 -5 0.70710678118654757 -0 0.70710678118654757 -0.57735026918962573 -0.57735026918962595 0.57735026918962573 0.40824829046386318 -0.81649658092772603 -0.40824829046386318 3
4 -13 -8 -5 0.70710678118654757 0 -0.70710678118654757 0.57735026918962573 -0.57735026918962595 0.57735026918962573 -0.40824829046386318 -0.81649658092772603 -0.40824829046386318 3
10 1.5707963267948966 3.1415926535897931 0 40
2 -13 -8 -5 1 0 0 0 1.1102230246251565e-16 1 0 1 -1.1102230246251565e-16 3
1 0 18 0 -0 1 0 0 0 1 1 0 -0 
1 0 0 -3 0 0 1 1 0 -0 -0 1 0 
Triangulations 0

TShapes 160
Ve
1e-07
27 9 33
0 0

0101101
*
Ve
0.001
-13 9 33
0 0

0101101
*
Ed
 1e-07 1 1 0
1  1 0 0 40
2  1 1 0 0 40
2  2 2 0 0 40
0

0101000
-160 6 +159 6 *
Ve
0.001
27 9 48
0 0

0101101
*
Ed
 1e-07 1 1 0
1  2 0 0 15
2  3 1 0 0 15
2  4 3 7 0 15
0

0101000
-157 6 +160 6 *
Ve
0.001
-13 9 48
0 0

0101101
*
Ed
 0.001 1 1 0
1  3 0 0 40
2  5 1 0 0 40
2  6 4 7 0 40
0

0101000
-157 6 +155 6 *
Ed
 0.001 1 1 0
1  4 0 0 15
2  7 1 0 0 15
2  8 5 7 0 15
0

0101000
-155 6 +159 6 *
Wi

0101000
-158 0 -156 0 +154 0 +153 0 *
Fa
0  1e-07 1 0

0101000
+152 0 *
Ve
0.001
-13 -8 33
0 0

0101101
*
Ed
 0.001 1 1 0
1  5 0 15 32
2  9 2 0 15 32
2  10 5 7 15 32
0

0101000
+150 6 -159 6 *
Ve
1e-07
27 -8 33
0 0

0101101
*
Ed
 1e-07 1 1 0
1  6 0 15 32
2  11 2 0 15 32
2  12 3 7 15 32
0

0101000
+148 6 -160 6 *
Ed
 1e-07 1 1 0
1  7 0 -40 0
2  13 2 2 -40 0
2  14 6 8 -40 0
0

0101000
+148 9 -150 9 *
Wi

0101000
-149 2 -158 2 +147 2 -146 0 *
Fa
0  1e-07 2 2

0101000
+145 0 *
Ve
1e-07
27 -8 -2
0 0

0101101
*
Ed
 1e-07 1 1 0
1  8 0 0 35
2  15 6 0 0 35
2  16 3 10 0 35
0

0101000
+143 11 -148 11 *
Ve
0.001
-13 -8 -2
0 0

0101101
*
Ed
 0.001 1 1 0
1  9 0 0 35
2  17 6 0 0 35
2  18 5 10 0 35
0

0101000
+141 11 -150 11 *
Ed
 1e-07 1 1 0
1  10 0 0 40
2  19 6 0 0 40
2  20 7 0 0 40
0

0101000
-143 11 +141 11 *
Wi

0101000
-142 8 -146 0 +140 8 -139 8 *
Fa
0  1e-07 6 8

0111000
+138 0 *
Ve
0.001
-13 -23 -2
0 0

0101101
*
Ed
 0.001 1 1 0
1  11 0 0 15
2  21 7 0 0 15
2  22 5 10 0 15
0

0101000
-141 11 +136 11 *
Ve
0.001
27 -23 -2
0 0

0101101
*
Ed
 1e-07 1 1 0
1  12 0 0 15
2  23 7 0 0 15
2  24 3 10 0 15
0

0101000
-143 11 +134 11 *
Ed
 0.001 1 1 0
1  13 0 0 40
2  25 7 0 0 40
2  26 8 0 0 40
0

0101000
-134 11 +136 11 *
Wi

0101000
-135 0 -139 0 +133 0 +132 0 *
Fa
0  1e-07 7 0

0111000
+131 0 *
Ve
0.001
27 -23 48
0 0

0101101
*
Ed
 0.001 1 1 0
1  14 0 0 32
2  27 3 0 0 32
2  28 4 0 0 32
0

0101000
+129 9 -157 9 *
Ed
 0.001 1 1 0
1  15 0 0 50
2  29 3 0 0 50
2  30 8 8 0 50
0

0101000
+134 9 -129 9 *
Wi

0101000
-128 0 -127 0 +133 8 +142 8 +147 2 +156 2 *
Fa
0  1e-07 3 0

0111000
+126 0 *
Ve
0.001
-13 -23 48
0 0

0101101
*
Ed
 0.001 1 1 0
1  16 0 0 32
2  31 5 0 0 32
2  32 4 0 0 32
0

0101000
+124 9 -155 9 *
Ed
 0.001 1 1 0
1  17 0 0 50
2  33 5 0 0 50
2  34 8 8 0 50
0

0101000
+136 9 -124 9 *
Wi

0101000
+123 0 -153 2 -149 2 -140 8 -135 8 +122 0 *
Fa
0  0.001 5 0

0101000
-121 0 *
Ve
0.001
30 -23 48
0 0

0101101
*
Ve
0.001
30 9 48
0 0

0101101
*
Ed
 0.001 1 1 0
1  18 3 0 32
2  35 4 3 0 32
2  36 9 3 0 32
0

0101000
+119 14 -118 14 *
Ve
0.001
27 12 48
0 0

0101101
*
Ed
 0.001 1 1 0
1  19 0 1.5707963267949 3.14159265358979
2  37 4 3 1.5707963267949 3.14159265358979
2  38 10 0 1.5707963267949 3.14159265358979
0

0101000
+116 14 -118 14 *
Ve
0.001
-13 12 48
0 0

0101101
*
Ed
 0.001 1 1 0
1  20 4 0 40
2  39 4 3 0 40
2  40 11 4 0 40
0

0101000
+114 14 -116 14 *
Ve
0.001
-16 9 48
0 0

0101101
*
Ed
 0.001 1 1 0
1  21 0 1.5707963267949 3.14159265358979
2  41 4 3 1.5707963267949 3.14159265358979
2  42 12 0 1.5707963267949 3.14159265358979
0

0101000
-112 14 +114 14 *
Ve
0.001
-16 -23 48
0 0

0101101
*
Ed
 0.001 1 1 0
1  22 3 0 32
2  43 4 3 0 32
2  44 13 3 0 32
0

0101000
+110 14 -112 14 *
Ed
 0.001 1 1 0
1  23 0 -3 0
2  45 4 10 -3 0
2  46 8 0 -3 0
0

0101000
+110 11 -124 11 *
Ed
 0.001 1 1 0
1  24 0 40 43
2  47 4 10 40 43
2  48 8 0 40 43
0

0101000
+129 11 -119 11 *
Wi

0101100
+117 0 -115 0 -113 0 +111 0 -109 0 +108 12 +123 3 +154 4 -128 3 +107 12 
*
Fa
0  1e-07 4 0

0101000
+106 13 *
Ve
0.001
27 -23 -5
0 0

0101101
*
Ve
0.001
30 -23 -2
0 0

0101101
*
Ed
 0.001 1 1 0
1  25 0 1.5707963267949 3.14159265358979
2  49 8 12 1.5707963267949 3.14159265358979
2  50 14 0 1.5707963267949 3.14159265358979
0

0101000
+104 14 -103 14 *
Ve
0.001
-13 -23 -5
0 0

0101101
*
Ed
 0.001 1 1 0
1  26 12 0 40
2  51 8 12 0 40
2  52 15 12 0 40
0

0101000
+101 14 -104 14 *
Ve
0.001
-16 -23 -2
0 0

0101101
*
Ed
 0.001 1 1 0
1  27 0 1.5707963267949 3.14159265358979
2  53 8 12 1.5707963267949 3.14159265358979
2  54 16 0 1.5707963267949 3.14159265358979
0

0101000
+101 14 -99 14 *
Ed
 0.001 1 1 0
1  28 3 0 50
2  55 8 12 0 50
2  56 13 3 0 50
0

0101000
-110 14 +99 14 *
Ed
 0.001 1 1 0
1  29 3 0 50
2  57 8 12 0 50
2  58 9 3 0 50
0

0101000
-119 14 +103 14 *
Wi

0101100
-102 0 -100 0 +98 0 +97 0 +108 12 -122 3 +132 12 +127 3 +107 12 -96 0 
*
Fa
0  0.001 8 8

0111000
+95 13 *
Ve
0.001
-16 -8 -2
0 0

0101101
*
Ed
 0.001 1 1 0
1  30 3 0 15
2  59 13 3 0 15
2  60 16 0 0 15
4 G1 13 3 16 0
0

0101000
-93 14 +99 14 *
Ve
0.001
-16 -8 33
0 0

0101101
*
Ed
 0.001 1 1 0
1  31 3 0 35
2  61 13 3 0 35
2  62 17 0 0 35
4 G1 13 3 17 0
0

0101000
+93 14 -91 14 *
Ve
0.001
-16 9 33
0 0

0101101
*
Ed
 0.001 1 1 0
1  32 3 15 32
2  63 13 3 15 32
2  64 18 0 15 32
4 G1 13 3 18 0
0

0101000
+91 14 -89 14 *
Ed
 0.001 1 1 0
1  33 3 0 15
2  65 13 3 0 15
2  66 12 0 0 15
4 G1 13 3 12 0
0

0101000
+89 14 -112 14 *
Wi

0101100
-109 0 -97 0 +92 0 +90 0 +88 0 +87 0 *
Fa
0  1e-07 13 0

0111000
+86 13 *
Ve
0.001
-13 12 33
0 0

0101101
*
Ed
 0.001 1 1 0
1  34 4 0 15
2  67 12 0 0 15
2  68 11 4 0 15
4 G1 12 0 11 4
0

0101000
+84 14 -114 14 *
Ed
 0.001 1 1 0
1  35 0 1.5707963267949 3.14159265358979
2  69 12 0 1.5707963267949 3.14159265358979
2  70 19 0 1.5707963267949 3.14159265358979
4 G1 12 0 19 0
0

0101000
+84 14 -89 14 *
Wi

0101100
-83 0 +82 0 +87 0 -111 0 *
Fa
0  1e-07 12 0

0111000
+81 0 *
Ve
0.001
30 9 33
0 0

0101101
*
Ed
 0.001 1 1 0
1  36 3 0 15
2  71 9 3 0 15
2  72 10 0 0 15
4 G1 9 3 10 0
0

0101000
+79 14 -118 14 *
Ve
0.001
30 -8 -2
0 0

0101101
*
Ed
 0.001 1 1 0
1  37 3 0 15
2  73 9 3 0 15
2  74 14 0 0 15
4 G1 9 3 14 0
0

0101000
-77 14 +103 14 *
Ve
0.001
30 -8 33
0 0

0101101
*
Ed
 0.001 1 1 0
1  38 3 0 35
2  75 9 3 0 35
2  76 20 0 0 35
4 G1 9 3 20 0
0

0101000
+77 14 -75 14 *
Ed
 0.001 1 1 0
1  39 3 15 32
2  77 9 3 15 32
2  78 21 0 15 32
4 G1 9 3 21 0
0

0101000
+75 14 -79 14 *
Wi

0101100
+78 0 -117 0 -96 0 +76 0 +74 0 +73 0 *
Fa
0  1e-07 9 0

0111000
+72 13 *
Ve
0.001
27 12 33
0 0

0101101
*
Ed
 0.001 1 1 0
1  40 0 1.5707963267949 3.14159265358979
2  79 10 0 1.5707963267949 3.14159265358979
2  80 22 0 1.5707963267949 3.14159265358979
4 G1 10 0 22 0
0

0101000
+70 14 -79 14 *
Ed
 0.001 1 1 0
1  41 4 0 15
2  81 10 0 0 15
2  82 11 4 0 15
4 G1 10 0 11 4
0

0101000
+70 14 -116 14 *
Wi

0101100
+69 0 +78 0 -115 0 -68 0 *
Fa
0  1e-07 10 0

0111000
+67 0 *
Ed
 0.001 1 1 0
1  42 4 0 40
2  83 11 4 0 40
2  84 23 0 0 40
4 G1 11 4 23 0
0

0101000
+84 14 -70 14 *
Wi

0101100
-65 0 +83 0 +113 0 -68 0 *
Fa
0  1e-07 11 0

0111000
+64 15 *
Ve
0.001
27 -8 -5
0 0

0101101
*
Ed
 0.001 1 1 0
1  43 12 0 15
2  85 14 0 0 15
2  86 15 12 0 15
4 G1 14 0 15 12
0

0101000
-62 14 +104 14 *
Ed
 0.001 1 1 0
1  44 0 1.5707963267949 3.14159265358979
2  87 14 0 1.5707963267949 3.14159265358979
2  88 24 0 1.5707963267949 3.14159265358979
4 G1 14 0 24 0
0

0101000
+62 14 -77 14 *
Wi

0101100
-61 0 +102 0 +76 0 -60 0 *
Fa
0  1e-07 14 0

0111000
+59 0 *
Ve
0.001
-13 -8 -5
0 0

0101101
*
Ed
 0.001 1 1 0
1  45 12 0 15
2  89 16 0 0 15
2  90 15 12 0 15
4 G1 16 0 15 12
0

0101000
-57 14 +101 14 *
Ed
 0.001 1 1 0
1  46 0 1.5707963267949 3.14159265358979
2  91 16 0 1.5707963267949 3.14159265358979
2  92 25 0 1.5707963267949 3.14159265358979
4 G1 16 0 25 0
0

0101000
+57 14 -93 14 *
Wi

0101100
-56 0 +98 0 +92 0 -55 0 *
Fa
0  1e-07 16 0

0111000
+54 0 *
Ed
 0.001 1 1 0
1  47 12 0 40
2  93 15 12 0 40
2  94 26 0 0 40
4 G1 15 12 26 0
0

0101000
+57 14 -62 14 *
Wi

0101100
+100 0 +61 0 -52 0 -56 0 *
Fa
0  1e-07 15 0

0111000
+51 16 *
Ve
0.001
-13 -5 -2
0 0

0101101
*
Ed
 0.001 1 1 0
1  48 0 1.5707963267949 3.14159265358979
2  95 25 0 1.5707963267949 3.14159265358979
2  96 17 0 1.5707963267949 3.14159265358979
4 G1 25 0 17 0
0

0101000
+49 14 -93 14 *
Ed
 0.001 1 1 0
1  49 0 1.5707963267949 3.14159265358979
2  97 25 0 1.5707963267949 3.14159265358979
2  98 26 0 1.5707963267949 3.14159265358979
4 G1 25 0 26 0
0

0101000
+49 14 -57 14 *
Wi

0101000
-48 0 +47 0 +55 0 *
Fa
0  0.001 25 0

0111000
+46 0 *
Ve
0.001
-13 -5 30
0 0

0101101
*
Ed
 0.001 1 1 0
1  50 12 0 32
2  99 17 0 0 32
2  100 27 12 0 32
4 G1 17 0 27 12
0

0101000
+49 14 -44 14 *
Ed
 0.001 1 1 0
1  51 0 0 1.5707963267949
2  101 17 0 0 1.5707963267949
2  102 18 0 0 1.5707963267949
0

0101000
+44 14 -91 14 *
Wi

0101100
-43 0 +48 0 +90 0 -42 0 *
Fa
0  0.001 17 0

0111000
+41 0 *
Ve
0.001
-13 9 30
0 0

0101101
*
Ed
 0.001 1 1 0
1  52 0 1.5707963267949 3.14159265358979
2  103 18 0 1.5707963267949 3.14159265358979
2  104 19 0 1.5707963267949 3.14159265358979
4 G1 18 0 19 0
0

0101000
+39 14 -89 14 *
Ed
 0.001 1 1 0
1  53 4 18 32
2  105 18 0 18 32
2  106 28 4 18 32
4 G1 18 0 28 4
0

0101000
+44 14 -39 14 *
Wi

0101100
+42 0 +88 0 -38 0 -37 0 *
Fa
0  0.001 18 0

0111000
+36 0 *
Ve
0.001
27 -5 -2
0 0

0101101
*
Ve
0.001
27 -5 30
0 0

0101101
*
Ed
 0.001 1 1 0
1  54 12 0 32
2  107 27 12 0 32
2  108 20 0 0 32
4 G1 27 12 20 0
0

0101000
+34 14 -33 14 *
Ed
 0.001 1 1 0
1  55 12 0 40
2  109 27 12 0 40
2  110 26 0 0 40
4 G1 27 12 26 0
0

0101000
+49 14 -34 14 *
Ed
 0.001 1 1 0
1  56 0 -40 0
2  111 27 12 -40 0
2  112 28 4 -40 0
0

0101000
+33 14 -44 14 *
Wi

0101100
-32 0 -31 0 +43 0 -30 0 *
Fa
0  1e-07 27 12

0111000
+29 0 *
Ed
 0.001 1 1 0
1  57 0 1.5707963267949 3.14159265358979
2  113 19 0 1.5707963267949 3.14159265358979
2  114 23 0 1.5707963267949 3.14159265358979
4 G1 19 0 23 0
0

0101000
+84 14 -39 14 *
Wi

0101000
+27 0 -82 0 +38 0 *
Fa
0  0.001 19 0

0111000
+26 0 *
Ve
0.001
27 9 30
0 0

0101101
*
Ed
 1e-06 1 1 0
1  58 0 1.5707963267949 3.14159265358979
2  115 22 0 1.5707963267949 3.14159265358979
2  116 23 0 1.5707963267949 3.14159265358979
4 G1 22 0 23 0
0

0101000
+70 14 -24 14 *
Ed
 0.001 1 1 0
1  59 0 1.5707963267949 3.14159265358979
2  117 22 0 1.5707963267949 3.14159265358979
2  118 21 0 1.5707963267949 3.14159265358979
4 G1 22 0 21 0
0

0101000
+24 14 -79 14 *
Wi

0101000
-23 0 +69 0 -22 0 *
Fa
0  1e-07 22 0

0111000
+21 0 *
Ed
 0.001 1 1 0
1  60 0 1.5707963267949 3.14159265358979
2  119 24 0 1.5707963267949 3.14159265358979
2  120 20 0 1.5707963267949 3.14159265358979
4 G1 24 0 20 0
0

0101000
+34 14 -77 14 *
Ed
 1e-06 1 1 0
1  61 0 1.5707963267949 3.14159265358979
2  121 24 0 1.5707963267949 3.14159265358979
2  122 26 0 1.5707963267949 3.14159265358979
4 G1 24 0 26 0
0

0101000
+34 14 -62 14 *
Wi

0101000
+19 0 -18 0 -60 0 *
Fa
0  1e-07 24 0

0111000
+17 0 *
Wi

0101000
-31 0 +52 0 -18 0 +47 0 *
Fa
0  1e-07 26 0

0111000
+15 0 *
Ed
 0.001 1 1 0
1  62 0 4.71238898038469 6.28318530717959
2  123 20 0 4.71238898038469 6.28318530717959
2  124 21 0 4.71238898038469 6.28318530717959
0

0101000
+75 14 -33 14 *
Wi

0101100
+19 0 +74 0 +13 0 -32 0 *
Fa
0  1e-07 20 0

0111000
+12 0 *
Ed
 0.001 1 1 0
1  63 4 18 32
2  125 21 0 18 32
2  126 28 4 18 32
4 G1 21 0 28 4
0

0101000
+33 14 -24 14 *
Wi

0101100
-22 0 -10 0 -13 0 +73 0 *
Fa
0  1e-07 21 0

0111000
+9 0 *
Ed
 0.001 1 1 0
1  64 4 0 40
2  127 28 4 0 40
2  128 23 0 0 40
4 G1 28 4 23 0
0

0101000
+39 14 -24 14 *
Wi

0101100
-30 0 +10 0 -7 0 -37 0 *
Fa
0  1e-07 28 4

0111000
+6 0 *
Wi

0101000
-65 0 +7 0 -23 0 +27 0 *
Fa
0  1e-07 23 0

0111000
+4 0 *
Sh

0101100
+151 4 -144 3 +137 3 -130 12 +125 3 -120 3 -105 3 +94 3 +85 3 -80 0 
-71 3 +66 0 -63 4 +58 0 -53 0 +50 12 -45 0 -40 0 -35 0 -28 0 
-25 0 -20 0 -16 0 +14 0 +11 0 +8 0 +5 0 +3 0 *
So

1100100
+2 0 *

-1 1 