DBRep_DrawableShape

CASCADE Topology V1, (c) Matra-Datavision
Locations 0
Curve2ds 5
7 0 0  7 8 2  3.5847894007591146 4.9650312893323196  3.6115043927288752 4.8046507016479154  3.6377468809878337 4.6342730343203584  3.6650649126968347 4.479823691326601  3.6918971600971418 4.2722560213296674  3.7177283601631643 4.0932032436430745  3.7474080112115189 3.9270435255166376  3.7941940030210093 3.7753279052501085 
 0 8 789.06553173204145 8
7 0 0  2 3 2  3.5827689698367173 5.0632366825586486  3.5838564361635643 5.0140491598352934  3.5847894007591146 4.9650312893323196 
 0 3 81.334744509627328 3
7 0 0  7 8 2  4.3639366865709706 4.4477997484104721  4.2839250594220175 4.4742147199681312  4.194676570557931 4.5143516020798415  4.1005538368190173 4.5723162681242684  3.9796807525344775 4.6385828634956852  3.8585832646858762 4.7899474824080244  3.7315965016632617 4.9231602896043114  3.5827689698367169 5.0632366825586486 
 0 8 338.9748401906246 8
7 0 0  6 7 2  4.7086811352486482 3.7771388527068921  4.6685114545186934 3.8585483874107922  4.6147342120711983 3.947447282856956  4.5404965956868182 4.0446370379240761  4.4971186123093503 4.1671272294588562  4.4299105866305126 4.3091902093706267  4.3639366865709706 4.447799748410473 
 0 7 387.08036660289201 7
7 0 0  6 7 2  3.7941940030210084 3.7753279052501094  3.9536955817688977 3.7760925250011041  4.1163048334556152 3.7761679804179948  4.2508920689751903 3.7763731037848629  4.4046338106281837 3.7759279463598432  4.5463990066805309 3.7766536743833967  4.7086811352486482 3.7771388527068916 
 0 7 800.95538610274389 7
Curves 5
7 0 0  5 6 2  3592.9267085741258 2874.9631433435302 3164.9045370936706  3451.8974537306926 2901.7456906494999 3230.9449989493755  3310.0667500620566 2933.4274415944537 3300.0938815870522  3170.4230444960581 2951.3807299053678 3368.1374250538997  3028.4183665524961 3007.5208432246677 3431.0265740078553  2900.0402267439849 3065.3856696775397 3518.9686353382631 
 0 6 789.06553173204099 6
7 0 0  3 4 2  3665.3510362728202 2865.120218627249 3128.5479458022851  3641.1894051016466 2868.3434963344798 3140.6433531686039  3617.0375952120094 2871.6231829749004 3152.7718968173299  3592.9267085741253 2874.9631433435306 3164.9045370936706 
 0 4 81.334744509627299 4
7 0 0  4 5 2  3677.4491099239031 3014.5098525120047 2876.69421278554  3675.0820730738965 2990.2094097654699 2955.1842546205735  3672.2953003897956 2960.756545021472 3024.8281261363682  3665.7548736586141 2922.1928369696889 3087.2553959816623  3665.3510362728143 2865.1202186272485 3128.5479458022896 
 0 5 338.974840190625 5
7 0 0  4 5 2  3306.5980587892664 3130.5291292698766 2887.2065435775485  3399.8225522391804 3102.9501840967878 2871.3247275807698  3490.6120585934823 3069.6744474842285 2887.4383783081389  3585.4839184180037 3042.0438704944654 2880.215746841161  3677.4491099239026 3014.5098525120047 2876.6942127855395 
 0 5 387.08036660289201 5
7 0 0  6 7 2  2900.0402267439858 3065.3856696775392 3518.9686353382626  3022.0907320191218 3054.4101254290717 3442.6342894677932  3127.4619894183334 3002.2772393211822 3370.1032641288762  3226.3489965092044 3065.6561503017392 3284.1636747128414  3274.5503548892093 3066.1603756675217 3160.558139644203  3306.9030503992008 3098.436900134795 3033.9179378642207  3306.5980587892682 3130.5291292698766 2887.2065435775467 
 0 7 800.955386102744 7
Polygon3D 0
PolygonOnTriangulations 0
Surfaces 1
11 80
9 0 0 0 0 3 3 6 5 4 3 2746.2557497818025 3033.4881359910437 3679.8344100974473  2938.5754338672418 3001.3278942625216 3583.6955140788891  3227.6142357940798 2959.5030862931408 3436.3969153232129  3550.1940680951725 2922.6538782631565 3265.3564182464629  3700.22051474197 2907.1632217456299 3186.9988256936722  
2886.1376551491694 3045.8167982231739 3624.531757840271  3076.1437713309188 3017.4114584199888 3512.6911162456822  3353.7254669053445 2981.0505746690851 3354.723217777092  3654.5676508153942 2949.4699800705203 3186.160760004399  3794.8566592477764 2936.1538176981107 3109.690071271511  
3130.9274395446082 3076.3327956286462 3487.0206249572907  3349.917918856157 3053.2264473420241 3319.5344517262688  3619.1481608459944 3028.0198507409295 3129.5020513232921  3882.3963163872386 3006.2211671910222 2969.4988282233112  4004.1592221037426 2996.7333926676993 2899.4113195953787  
3309.6480416688883 3140.6305829970424 3194.5658754821634  3508.533546004624 3116.1524253712391 3027.5520094502604  3703.5661476896817 3094.8462559289101 2893.0477077652695  3938.8265220206613 3071.0751024017363 2747.3014204232422  4054.085040480717 3060.1899412153202 2679.4687475923984  
3330.8182871332601 3190.0277861929358 2972.1841141723366  3508.3981439472409 3162.9834000745354 2831.3515744232504  3704.3659823603066 3134.8803153341846 2705.0942268260769  3941.5350039947207 3105.5118007428164 2565.4822537963428  4058.4721761699238 3092.4974496770828 2499.7006915450938  
3329.9844379648507 3205.0822650381551 2904.4674947285457  3502.0642158814458 3176.755139512039 2771.4942355838589  3700.4827913655913 3146.1177671478363 2646.0741544856487  3939.1095566175827 3114.9925052666754 2507.9226955538816  4056.8329518370856 3101.3612262139204 2442.7028290194658  

3.5827689698367169 4
3.98983 1
4.4892099999999999 1
4.7086811352486482 4

3.7753279052501085 4
4.4601899999999999 1
5.0632366825586486 4

Triangulations 0

TShapes 13
Ve
1.42710002232307
3592.92670857413 2874.96314334353 3164.90453709367
0 0

0101101
*
Ve
1.42710002232307
2900.04022674399 3065.38566967754 3518.96863533826
0 0

0101101
*
Ed
 1.42710002232307 1 1 0
2  1 1 0 0 789.065531732041
1  1 0 0 789.065531732041
0

0101000
+13 0 -12 0 *
Ve
1.42710002232307
3665.35103627282 2865.12021862725 3128.54794580229
0 0

0101101
*
Ed
 1.42710002232307 1 1 0
2  2 1 0 0 81.3347445096273
1  2 0 0 81.3347445096273
0

0101000
+10 0 -13 0 *
Ve
1.42710002232307
3677.4491099239 3014.50985251201 2876.69421278554
0 0

0101101
*
Ed
 1.42710002232307 1 1 0
2  3 1 0 0 338.974840190625
1  3 0 0 338.974840190625
0

0101000
+8 0 -10 0 *
Ve
1.42710002232307
3306.59805878927 3130.52912926988 2887.20654357755
0 0

0101101
*
Ed
 1.42710002232307 1 1 0
2  4 1 0 0 387.080366602892
1  4 0 0 387.080366602892
0

0101000
+6 0 -8 0 *
Ed
 1.42710002232307 1 1 0
2  5 1 0 0 800.955386102744
1  5 0 0 800.955386102744
0

0101000
+12 0 -6 0 *
Wi

0101000
+11 0 +9 0 +7 0 +5 0 +4 0 *
Fa
0  0.285420004464614 1 0

0111000
+3 0 *
Sh

0101000
+2 0 *

+1 0 
0

