DBRep_DrawableShape

CASCADE Topology V1, (c) Matra-Datavision
Locations 1
1
-0.999506560365732 0.0314107590781284               0               0 
-0.0314107590781284 -0.999506560365732               0               0 
              0               0               1               0 
Curve2ds 12
2 0 0 -1 0 0 1 114
1 0 16.112298502079085 1 0 
2 0 0 -1 0 0 1 116
1 0 0 1 0 
1 0 16.112298502079085 1 0 
2 0 0 1 0 -0 1 114.10101
1 6.2831853071795862 0 0 1 
1 0 0 0 1 
2 0 0 1 0 -0 1 112.10101
1 0 0 1 0 
1 6.2831853071795862 0 0 1 
1 0 0 0 1 
Curves 6
2 0 0 58.5 0 0 1 1 0 -0 -0 1 0 114
2 0 0 58.5 0 0 1 1 0 -0 -0 1 0 116
2 0 0 42.5 0 0 1 1 0 -0 -0 1 0 114.10101
1 116 0 58.5 -0.11785965855554111 0 -0.99303026181741871 
2 0 0 42.5 0 0 1 1 0 -0 -0 1 0 112.10101
1 112.10101 0 42.5 0.11785965855554111 0 0.99303026181741871 
Polygon3D 0
PolygonOnTriangulations 0
Surfaces 4
1 0 0 58.5 0 0 1 -1 -0 0 -0 1 0 
3 0 0 42.5 0 0 1 1 0 -0 -0 1 0 112.10101
0.11813424120340427
3 0 0 58.5 -0 -0 -1 1 0 0 -0 1 -0 116
-0.11813424120340427
1 0 0 42.5 0 0 1 1 0 -0 -0 1 0 
Triangulations 0

TShapes 22
Ve
1e-007
114 0 58.5
0 0

0101101
*
Ed
 1e-007 1 1 0
1  1 0 0 6.28318530717959
2  1 1 0 0 6.28318530717959
2  2 2 0 0 6.28318530717959
0

0101000
+22 0 -22 0 *
Wi

0101100
+21 0 *
Ve
1e-007
116 0 58.5
0 0

0101101
*
Ed
 1e-007 1 1 0
1  2 0 0 6.28318530717959
2  3 1 0 0 6.28318530717959
2  4 3 0 0 6.28318530717959
0

0101000
+19 0 -19 0 *
Wi

0101100
-18 0 *
Fa
0  1e-007 1 0

0111000
+20 0 +17 0 *
Ve
1e-007
114.10101 0 42.5
0 0

0101101
*
Ed
 1e-007 1 1 0
1  3 0 0 6.28318530717959
2  5 3 0 0 6.28318530717959
2  6 4 0 0 6.28318530717959
0

0101000
+15 0 -15 0 *
Ed
 1e-007 1 1 0
1  4 0 0 16.1122985020791
3  7 8CN 3 0 0 16.1122985020791
0

0101000
+19 0 -15 0 *
Wi

0101100
+18 0 -14 0 -13 0 +13 0 *
Fa
0  1e-007 3 0

0111000
+12 0 *
Wi

0101100
+14 0 *
Ve
1e-007
112.10101 0 42.5
0 0

0101101
*
Ed
 1e-007 1 1 0
1  5 0 0 6.28318530717959
2  9 4 0 0 6.28318530717959
2  10 2 0 0 6.28318530717959
0

0101000
+9 0 -9 0 *
Wi

0101100
-8 0 *
Fa
0  1e-007 4 0

0111000
+10 0 +7 0 *
Ed
 1e-007 1 1 0
1  6 0 0 16.1122985020791
3  11 12CN 2 0 0 16.1122985020791
0

0101000
+9 0 -22 0 *
Wi

0101100
+8 0 -21 0 -5 0 +5 0 *
Fa
0  1e-007 2 0

0111000
+4 0 *
Sh

0101100
+16 0 +11 0 +6 0 +3 0 *
So

1100000
-2 0 *

+1 1 