DBRep_DrawableShape

CASCADE Topology V1, (c) Matra-Datavision
Locations 6
1
              1               0               0            -0.5 
              0               1               0               0 
              0               0               1               0 
1
              1               0               0               1 
              0               1               0               0 
              0               0               1               0 
2  2 -1 0
2  2 1 1 1 0
2  1 -1 0
1
0.619047619047619 -0.785353452498602               0               0 
0.785353452498602 0.619047619047619               0               0 
              0               0               1               0 
Curve2ds 56
1 1.5707963267948966 0 0 -1 
1 1.5707963267948966 0 0 -1 
1 3.1415926535897931 0 0 -1 
1 3.1415926535897931 0 0 -1 
1 0 0 1 0 
1 0 -1 1 0 
2 3.4488303116516252e-018 2.7213277889113947e-017 0 -1 1 0 0.16194999999999998
1 0 0 1 0 
1 0 -1 1 0 
2 3.4488303116516252e-018 2.7213277889113947e-017 0 -1 1 0 0.16194999999999998
1 6.2831853071795862 0 0 -1 
1 0 0 0 -1 
7 0 0  6 32 7  1.5707963267948966 -0.15187468954216632  1.6184465152197771 -0.155989368015576  1.6640213274227384 -0.16027390542937409  1.707809828768307 -0.16467946127604841  1.749992175480465 -0.16915771846828703  1.7906880129626381 -0.17366342315703487  1.875996139255796 -0.18341941120010996  1.9204833755519384 -0.18871054888668709  1.9637181254830158 -0.19398957068883071  2.0059969268756244 -0.19923586215377259  2.0476583197138885 -0.2044485536896917  2.1322018229972213 -0.21503289637096021  2.1749198685131539 -0.22038422384769182  2.2176061325371026 -0.22568950518287897  2.2605495209321522 -0.23094369338660936  2.3040344793583087 -0.23613750018175059  2.3888449613462197 -0.2459229121237087  2.429892553886845 -0.250511448768172  2.4719442057827101 -0.25502932249924209  2.5153648155975081 -0.25946678112236748  2.5604656113104367 -0.26378809820907712  2.6460581318544802 -0.27131963202397591  2.6858355085050749 -0.27458317001995036  2.7273941353046487 -0.2777197268089775  2.7711615037840618 -0.28069282068099444  2.8174881547182999 -0.28342890136602156  2.9069394995425593 -0.28776878321194088  2.9500166293410723 -0.289532324291076  2.9953873842449217 -0.29098297542811824  3.0426232258298951 -0.29201930235037499  3.0914471736038349 -0.29256465975108148  3.1415926535897931 -0.29256466109070256 
 0 7 0.16261247250999528 5 0.35307377262215489 5 0.55061143930376699 5 0.73119984314793651 5 0.87909071979970821 5 1 7
7 0 0  6 32 7  0.74292269462415028 -0.59401766495467434  0.74292269462415028 -0.60066445325787465  0.74042023775254462 -0.60723782855052411  0.73582382583340555 -0.61371572713905742  0.72947227709256768 -0.62007407118592339  0.72166443583539819 -0.62628849893738836  0.70211778712422124 -0.63942230552925783  0.68984358375339383 -0.64634137153589688  0.67615915495110701 -0.65308519955515965  0.66126667275279882 -0.65966044537119151  0.64525413607506366 -0.66608892620276283  0.610236934549929 -0.67895933821869725  0.5912061859876564 -0.68536974953860386  0.57101562022435171 -0.69164646524379181  0.54963879922004277 -0.69779689748814933  0.52700159571624727 -0.70382044399779231  0.48106536474388595 -0.71507799638394776  0.45806722120558768 -0.72031641312759231  0.43380832000218394 -0.7254404994007041  0.40808642766670317 -0.73044378559173739  0.38071608943263024 -0.7352908802481517  0.32763425111080968 -0.7437018356420968  0.30256336936857076 -0.74733222622935946  0.27599197947932502 -0.75080960724618184  0.2476349628229686 -0.75409559921597702  0.21725731083417035 -0.75711192972658448  0.15801308488177593 -0.76188752584675157  0.12927915357632422 -0.76382441114782806  0.098816359068517032 -0.76541475466639652  0.066947189720859931 -0.76654967981753053  0.033920576304178399 -0.76714692611981528  0 -0.76714692758689484 
 0 7 0.16261247250999528 5 0.35307377262215489 5 0.55061143930376699 5 0.73119984314793651 5 0.87909071979970821 5 1 7
7 0 0  7 74 13  0 -0.11986110589295575  0.012927675711278142 -0.1198611058776549  0.02585576124272513 -0.11985954367994368  0.038770259671708843 -0.11985642177204348  0.051658219414560717 -0.11985176267609342  0.064507734226575728 -0.11984560896415029  0.07730794320201248 -0.11983802325818857  0.10320170402597317 -0.11981986456655715  0.11628774502178567 -0.11980920305218221  0.12930122027061555 -0.11979719161279474  0.14223589414827231 -0.11978393065510914  0.15508522889729015 -0.11976953306673491  0.16784238462692785 -0.11975412421617693  0.19387402389263528 -0.11972063870967055  0.207140988868042 -0.119702452471749  0.22029748602778396 -0.1196834387439476  0.2333409870719631 -0.11966375510122741  0.24627006361238898 -0.11964356118863353  0.25908438717257853 -0.11962301872129504  0.28540185844598437 -0.11958006803065599  0.29888760706987227 -0.11955763056503775  0.31224290957457823 -0.1195351788612108  0.32546924033442026 -0.11951290988440913  0.33856861358287593 -0.11949101779145999  0.35154358341258185 -0.11946969393078402  0.37831148332807352 -0.11942686272566376  0.39208329443881912 -0.11940548529910641  0.40571651450611762 -0.11938523251462856  0.41921507788382251 -0.11936633777287357  0.43258301588109455 -0.1193490299232228  0.44582445676240162 -0.11933353326379563  0.47325076264907295 -0.11930538247006257  0.48741228226449923 -0.1192931133368417  0.50143357058022231 -0.11928354504699054  0.51531975507944705 -0.11927695773388494  0.52907570474215959 -0.11927362675907303  0.5427060300451263 -0.11927382271227506  0.57107302888723976 -0.11928219838625405  0.58578414113993482 -0.11929117308282773  0.60035411797698457 -0.11930509064056449  0.61478807159565219 -0.1193242987666345  0.62909052813346 -0.11934913773591839  0.64326542766818839 -0.11937994039100716  0.67298936264674203 -0.11945840716287617  0.68850804028713575 -0.11950760411532049  0.70387664657662785 -0.11956507825506432  0.71909880606597143 -0.11963126209092367  0.73417727841910208 -0.11970656538500155  0.74911395841313733 -0.11979137515268792  0.78086729214595729 -0.11999456781214971  0.79764014072931566 -0.12011603785454615  0.8142296045276618 -0.12025101440974771  0.83063617794844846 -0.12039997681363079  0.84685966696737303 -0.12056333511804936  0.86289918912837538 -0.12074143009083496  0.89790931491539216 -0.12116785694465934  0.91679528826606749 -0.1214230933276151  0.93540835380050413 -0.12170069781789229  0.95374643181687979 -0.12200096704023443  0.97180810270671281 -0.1223240387909004  0.98959260695486029 -0.12266989203766453  1.0306815562858171 -0.12353464430891366  1.0537492555807366 -0.12407171986503505  1.0763164895030835 -0.12464936620407671  1.0983931512555376 -0.12526691742223411  1.1199862982105275 -0.12592325996484446  1.1411009693561136 -0.12661684349522889  1.2344893056760851 -0.12991460595203461  1.3007826629168513 -0.13290191503857257  1.362174052679745 -0.13625278795466081  1.4194336370821294 -0.13990116248340631  1.4731188774206483 -0.14377398834980354  1.523525711954671 -0.14779278792252121  1.5707963267948968 -0.15187468954216637 
 0 8 0.034803935102741407 6 0.070732169933266559 6 0.10869262710616029 6 0.14939329889964523 6 0.19345225808399097 6 0.24150084725190912 6 0.2943471381091961 6 0.35329599617885582 6 0.42085654587396587 6 0.50248898647778195 6 0.61244537218420103 6 1 8
7 0 0  7 74 13  0 -0.48816426149822684  0.008744840223343698 -0.48816426165317939  0.017489970292062628 -0.48818007711360395  0.026224596037423976 -0.48821169365043371  0.03493867144077107 -0.48825901540104827  0.043622898633523366 -0.4883218648692747  0.052268727897176501 -0.48839998292538589  0.069745788240645243 -0.48858908042332666  0.078571555770852258 -0.48870101962849793  0.087340379716125613 -0.48882851215860462  0.0960468677225155 -0.48897117677612162  0.10468551561992001 -0.48912858526901043  0.11325070742208505 -0.48930026245071973  0.13070272050742848 -0.4896815980610944  0.13958303720773088 -0.48989292043460647  0.14837414602471591 -0.49011910598583419  0.15707335494376898 -0.4903596241519646  0.16567879933845656 -0.49061396110225813  0.17418944197052624 -0.49088161973804895  0.1916281949848512 -0.49146286782499693  0.20054184322286508 -0.49177838140306623  0.20934574751896692 -0.49210807933683559  0.21804006366156323 -0.4924514185651746  0.22662537341244895 -0.49280789405594067  0.23510268450680716 -0.49317703880597857  0.25253486248112 -0.49397127765793591  0.26147122003902451 -0.49439847027226674  0.27028425699455183 -0.49483946293351799  0.27897582747736077 -0.4952937609131513  0.28754788607914 -0.49576091350468493  0.29600248785360767 -0.49624051402369379  0.31343622970386614 -0.49726840875777284  0.32239340288373286 -0.49781898050444656  0.33121603098575669 -0.49838344621045227  0.33990668259019657 -0.49896137502630855  0.3484677717279257 -0.49955237409043068  0.35690155788043104 -0.50015608852913207  0.37434835525748678 -0.50144983390184172  0.38333503427584487 -0.50214245009050618  0.39217290826368945 -0.50284962753725415  0.40086434945431204 -0.50357096223611253  0.40941137708549435 -0.50430606866049743  0.41781565739950849 -0.50505457976321455  0.43529552422420537 -0.50666565820677967  0.44433657824976242 -0.50753140030729083  0.45320336442125492 -0.50841288191998402  0.46189715448902163 -0.50930959496100481  0.47041879325227243 -0.5102210146206525  0.47876869855908749 -0.51114659936338003  0.49631975144879964 -0.51316218664500879  0.50546729711820026 -0.51425645898475147  0.51438928154450381 -0.5153677359376716  0.52308542931625912 -0.51649510409470978  0.53155540638068155 -0.51763760864709973  0.53979882004365287 -0.5187942533863682  0.55750131850771845 -0.52137738956641921  0.56685637066998229 -0.52280995480553016  0.57587976973856259 -0.52425983220622097  0.58457202016453724 -0.52572519822599728  0.59293473656801221 -0.52720426999531811  0.60097064373812048 -0.52869530531759501  0.61907265991959892 -0.53221880400767108  0.62887089776355209 -0.5342586897043653  0.63809409828059016 -0.53631322807669102  0.64675773328188157 -0.5383792599459486  0.65487746282460069 -0.54045351047930368  0.66246965976247341 -0.54253260103176415  0.6945142705301135 -0.55194589462856991  0.71295014475679153 -0.55923942800103932  0.72621996789825694 -0.56646567377551749  0.73516540289340737 -0.57359810761690855  0.74052899267727712 -0.58059911181604007  0.74292269462415028 -0.58742382387678593  0.74292269462415028 -0.59401766495467434 
 0 8 0.034803935102741407 6 0.070732169933266559 6 0.10869262710616029 6 0.14939329889964523 6 0.19345225808399097 6 0.24150084725190912 6 0.2943471381091961 6 0.35329599617885582 6 0.42085654587396587 6 0.50248898647778195 6 0.61244537218420103 6 1 8
1 4.7123889803846897 0 0 -1 
1 4.7123889803846897 0 0 -1 
1 0 0 1 0 
1 0 -1 1 0 
2 3.4488303116516252e-018 2.7213277889113947e-017 0 -1 1 0 0.16194999999999998
1 0 0 1 0 
1 0 -1 1 0 
2 3.4488303116516252e-018 2.7213277889113947e-017 0 -1 1 0 0.16194999999999998
1 0 0 1 0 
1 0 -1 1 0 
2 -1.0428957496162832e-017 4.1091065696928404e-017 0 -1 1 0 0.15794999999999998
1 0 0 1 0 
1 0 -1 1 0 
2 1.732661811946608e-017 4.1091065696928404e-017 0 -1 1 0 0.15794999999999998
1 0 0 1 0 
1 0 -1 1 0 
2 1.732661811946608e-017 1.333549008129949e-017 0 -1 1 0 0.15794999999999998
1 0 0 1 0 
1 0 -1 1 0 
2 -1.0428957496162832e-017 1.333549008129949e-017 0 -1 1 0 0.15794999999999998
7 0 0  6 32 7  4.7123889803846897 -0.15187468954216635  4.7502227756322535 -0.14860767406922737  4.7898365469473525 -0.14540702879363548  4.83144758788809 -0.14230116482067737  4.8753298938506919 -0.13932317150275186  4.9218473280927366 -0.13650869258528292  5.0096496817300986 -0.13189261490548546  5.0496639571967012 -0.13000528540069464  5.0916410028819143 -0.12826230296176747  5.135682520915192 -0.12668523347072383  5.1819558637372918 -0.12528793020649745  5.2700995247145777 -0.12310005370097929  5.3110065998323943 -0.12224639684658825  5.3534579806828848 -0.12152201531919184  5.3974436508867027 -0.12092672224334819  5.4429536708232389 -0.12045407604768968  5.5302425042968792 -0.11978234841380507  5.5715787861305328 -0.11955436474471968  5.6140371627576586 -0.11939990517144809  5.6577112967071193 -0.11930930302229929  5.7027001133079835 -0.11927181321633351  5.7890775732765123 -0.11927869183479817  5.8301483543466519 -0.11931241933118025  5.8724715546931083 -0.11936925948560238  5.9161811775844608 -0.11944148807331154  5.9614095851316211 -0.11952041809310217  6.0509814884591169 -0.11966713190094562  6.0954132562154397 -0.11973589147947346  6.1411588028139175 -0.11979581867939744  6.1878829198164773 -0.11983908658596612  6.2353123180545609 -0.11986110583629453  6.2831853071795862 -0.11986110589295576 
 0 7 0.26421517095925362 5 0.46655858085374335 5 0.62972307801071392 5 0.76972147639528676 5 0.8902606463337539 5 1 7
7 0 0  6 32 7  5.5402626125554368 -0.59401766495467434  5.5402626125554368 -0.5887401784214652  5.5418403330681549 -0.58335065878886461  5.5452734327110935 -0.57785624239419908  5.5509009244955863 -0.57226663548720358  5.5591302807801002 -0.56659046700300564  5.5792484317363913 -0.55643108501169458  5.5898416896701022 -0.55197345427627242  5.6025107227104538 -0.54749583468496843  5.6174624027461899 -0.54302377748137953  5.6349095986369369 -0.53857884537390299  5.6714179549237675 -0.5306371947310986  5.6894789637447563 -0.5271308164328421  5.7093663900224536 -0.5236882566321911  5.7311156454846408 -0.52033340879683732  5.7547356737823252 -0.51709063805838662  5.8020142639019356 -0.5113229370856508  5.8251614658986428 -0.5087650596657578  5.8496608757460615 -0.50632009384260568  5.8755500872622592 -0.50399828833693883  5.9028672723104973 -0.50181333572477593  5.9564359058260816 -0.49803463969205625  5.9823392784247877 -0.49639871983478023  6.0094353990463674 -0.49488396327356454  6.0377918992319088 -0.49350432277716799  6.0674703608632088 -0.49227850197588136  6.1267944335213205 -0.49027750674897108  6.1564511548635155 -0.48946347775994326  6.1871849286049123 -0.48882544084503876  6.2187186321404821 -0.48838724949696155  6.2508019421987502 -0.48816426207203772  6.2831853071795871 -0.48816426149822678 
 0 7 0.26421517095925362 5 0.46655858085374335 5 0.62972307801071392 5 0.76972147639528676 5 0.8902606463337539 5 1 7
7 0 0  6 32 7  3.1415926535897931 -0.29256466109070256  3.1884615460527428 -0.29256465983861452  3.2342704523349486 -0.29208825271958583  3.2787467054164665 -0.291176205883586  3.3216101442660024 -0.28989034371749506  3.3624561463445573 -0.28831543935476778  3.4500586455795794 -0.28429749089951084  3.4964325474445008 -0.28167657426140152  3.5402230304054294 -0.27880831315407861  3.5817755147692876 -0.2757685090657811  3.6215099314936743 -0.27259632320390426  3.7071705025851749 -0.26523932462788541  3.7523601401510271 -0.26099557804029117  3.7958035385780904 -0.25663066769805853  3.8378160822121075 -0.25218233747150831  3.8787698976584153 -0.24766119143346949  3.9636184285689815 -0.23797400738508187  4.0072052720457334 -0.23280999880380795  4.0501800919128792 -0.22758347044097912  4.0928295756640543 -0.22230440156965522  4.1354442284338591 -0.21697762765549755  4.2199880301235231 -0.20639456874835371  4.2617534812458837 -0.201159214450056  4.3040715127785294 -0.19588832694750224  4.3472772726017279 -0.19058237986049453  4.3916622229252003 -0.18526093465175844  4.4789896477285378 -0.17516708061369404  4.5219932780798766 -0.17035307163699731  4.56663430607101 -0.16556312352545874  4.6130719589532774 -0.16084848606656776  4.6615345450959333 -0.15626606042813732  4.7123889803846897 -0.15187468954216635 
 0 7 0.11325837649053126 5 0.25893163607222569 5 0.43783346025199821 5 0.63497098474927383 5 0.82657151711417132 5 1 7
7 0 0  6 32 7  6.2831853071795871 -0.76714692758689484  6.2514811567052666 -0.76714692621567671  6.2204940398751143 -0.76662519054620049  6.190476327472366 -0.76562637001972533  6.1616702678201385 -0.76421688776138041  6.1343790567514098 -0.76248778987742227  6.07621946868887 -0.75806885537187396  6.0457186520216171 -0.75518144430480705  6.0172435977262673 -0.75201390412647062  5.9905634950377697 -0.74864698416536646  5.9653976676990137 -0.74512204358037626  5.9119755543772241 -0.73691625627185686  5.8843746266625292 -0.73216295334524994  5.8584500063588596 -0.72724941309370461  5.8340102020263584 -0.72221342213464657  5.8108438333450749 -0.71706267188156558  5.7643764083868838 -0.70594467597076094  5.7414020042895233 -0.69997158506278578  5.7197054955593982 -0.69387167739425937  5.6992035682034823 -0.6876468323878715  5.6798587072928441 -0.68129010767703768  5.6440517066258886 -0.66847785436126261  5.6275871759206018 -0.66205276327119711  5.6122389820268594 -0.65548229722494211  5.5980842625786593 -0.64874507331827902  5.5853112799389999 -0.64183442656653011  5.564186451588661 -0.62835467758115593  5.5554518975980756 -0.62176541763512483  5.5483111638146898 -0.61501121295089745  5.5431129321931927 -0.60811764683741687  5.5402626125554368 -0.60111141792431999  5.5402626125554368 -0.59401766495467456 
 0 7 0.11325837649053126 5 0.25893163607222569 5 0.43783346025199821 5 0.63497098474927383 5 0.82657151711417132 5 1 7
7 0 0  6 32 7  1.5707963267948966 -0.15639983404158478  1.6181977141516537 -0.16034357327406143  1.6636604790363851 -0.16443741391043515  1.7074403242670864 -0.16863894684652078  1.7496946128124775 -0.1729054046755493  1.7905223080267838 -0.17719545163667536  1.8759187517810738 -0.18644909628370754  1.9203748878494524 -0.19144818859179488  1.9636175504605555 -0.1964334870107573  2.005930704722755 -0.20138690711999743  2.0476353847715605 -0.20630691998352316  2.1322253689898347 -0.21628861359443574  2.1749649123809354 -0.22133317395929053  2.2176641097329299 -0.22633267617288411  2.2606065659709418 -0.23128250850400267  2.3040728983126995 -0.23617408100523585  2.388880897751994 -0.24539601858206778  2.4299509377019031 -0.24972347789382685  2.4720103941051197 -0.25398361918992568  2.5154238631531332 -0.25816753448135865  2.5605027550181201 -0.26224189628856254  2.6460703656855955 -0.26934701306027042  2.6858494811660241 -0.27242744022936655  2.7274054024217573 -0.27538842068539071  2.7711685800073189 -0.27819572264778075  2.8174910727942928 -0.28077984849055232  2.9069294349436183 -0.28487915828951943  2.9500062390302793 -0.28654559979695421  2.995379255860505 -0.28791665721755594  3.0426177816298141 -0.28889620595831184  3.0914440280960287 -0.28941169665106703  3.1415926535897931 -0.2894116979652302 
 0 7 0.16324337796265728 5 0.35332044437681231 5 0.55045849809374459 5 0.73099802526021285 5 0.87901264687605951 5 1 7
7 0 0  6 32 7  0.70988211307783367 -0.59681894488288589  0.70988211307783367 -0.60318960056611737  0.70756517361227678 -0.60949246971294047  0.70328644083151248 -0.61570664787851714  0.69734462903734074 -0.62180914681340371  0.69000864370645087 -0.62777590744751433  0.67164147585232237 -0.64034677867838929  0.66012029639893965 -0.64694970615821978  0.64724503921227738 -0.65338564071838179  0.63319860226720548 -0.65966088453848393  0.61806440919315975 -0.66579449581954098  0.58492777545805763 -0.67806448971348832  0.56689145258652163 -0.68417334046349654  0.54772851378114185 -0.69015222979842317  0.52741388737178674 -0.69600817582713803  0.50587734070153567 -0.70174074587704072  0.46209227137010134 -0.71245946955757389  0.44012985005501115 -0.71744983561568521  0.41694334295055568 -0.72232956936469683  0.39233809493923427 -0.72709288799880656  0.36613440420098903 -0.73170657624820046  0.31525040105436591 -0.73971563624432946  0.29118986646181105 -0.74317387537702284  0.26567297119553929 -0.74648633824805732  0.23842247366791267 -0.74961675013907092  0.20921011388742844 -0.75249060142392454  0.15220860444583653 -0.75704070410262836  0.12454737341140976 -0.75888669047649604  0.095208709373484121 -0.76040256132878925  0.064506293356988167 -0.76148437000003077  0.032684084105383308 -0.76205367800977197  0 -0.76205367946113189 
 0 7 0.16324337796265728 5 0.35332044437681231 5 0.55045849809374459 5 0.73099802526021285 5 0.87901264687605951 5 1 7
7 0 0  6 32 7  0 -0.12301406901842808  0.044949589929737563 -0.12301406898812087  0.089548128392865203 -0.12300341447912955  0.1335511750262062 -0.12298241851085195  0.17670550368083243 -0.12295405649395294  0.21870896052256333 -0.12292355305368559  0.30612571454972953 -0.12286361733356038  0.35140149078055127 -0.12283486713010122  0.39514001385887948 -0.12281677707645003  0.43746356365773431 -0.12281672562194375  0.4784942618660617 -0.12284128699042332  0.56495285713183974 -0.12296148079354037  0.61002663587547434 -0.12306848018971854  0.65371237244772529 -0.12322788607397074  0.69612214199990119 -0.12344867456510532  0.73736234099849074 -0.12373883537283326  0.8244441843019964 -0.12453365376153504  0.86983875790052856 -0.12506549688566695  0.91374079739804381 -0.12571064589201861  0.95617523168378027 -0.12647452250082  0.99716642457332905 -0.12735799088416067  1.0849188964588192 -0.12957385192483264  1.1308910010882376 -0.13095972342106044  1.1748694550360046 -0.13251062518742096  1.2169880861391376 -0.13421613573017654  1.2573273955872433 -0.13605899219976075  1.3483599403548359 -0.14067359850905087  1.3975753163797042 -0.14354183607663151  1.4441258365976022 -0.14658465971743553  1.4883599618235375 -0.14976598721125678  1.5305262156115564 -0.15304940853241883  1.5707963267948966 -0.15639983404158478 
 0 7 0.10367705393411894 5 0.22393295290052648 5 0.36446312120042906 5 0.52848908727155164 5 0.72831531650233727 5 1 7
7 0 0  6 32 7  0 -0.49325750962398995  0.02929564197026098 -0.49325751017693314  0.05836249427633837 -0.49345189869831146  0.08697991020739522 -0.49383495894353713  0.11492654598620426 -0.49439431365597564  0.14196182935152499 -0.49511029755628927  0.19781701408186478 -0.49693035170661692  0.22648097791303709 -0.49808632527205837  0.25385652425848482 -0.49939593372921476  0.27999568679673897 -0.50083977455286055  0.304956954836761 -0.50240279259140008  0.35667392426373884 -0.50602810285116795  0.38306500270077753 -0.50813308377490418  0.40803035973979562 -0.51037075473795424  0.4316194655126992 -0.51272662962524507  0.45388121151829725 -0.51519004749196418  0.49935901693179635 -0.52074612971533363  0.52207900612361635 -0.52387113643680872  0.54302528768821345 -0.5271057555159252  0.56222357243931997 -0.53042920614242306  0.57971972968451368 -0.5338215917371697  0.61488794090797472 -0.54145448908327687  0.63172666119212229 -0.54571013597141593  0.64629376720284881 -0.55000865067221039  0.65875761583643022 -0.5543292821713206  0.66928535348834595 -0.55864824647511313  0.68996407560861628 -0.56876764954668746  0.69862180533350404 -0.57454397851608974  0.70457051722202713 -0.58025231433485613  0.70820973485007155 -0.58587881626051441  0.70988211307783367 -0.59140671906038689  0.70988211307783367 -0.59681894488288578 
 0 7 0.10367705393411894 5 0.22393295290052648 5 0.36446312120042906 5 0.52848908727155164 5 0.72831531650233727 5 1 7
1 3.1415926535897931 0 0 -1 
1 3.1415926535897931 0 0 -1 
1 4.7123889803846897 0 0 -1 
1 4.7123889803846897 0 0 -1 
1 1.5707963267948966 0 0 -1 
1 1.5707963267948968 0 0 -1 
1 0 0 0 -1 
1 6.2831853071795862 0 0 -1 
7 0 0  6 32 7  4.7123889803846897 -0.15639983404158481  4.750640690568253 -0.15321733710273222  4.7905882213514079 -0.15009654169245215  4.8323884561407464 -0.14706643304110928  4.8762582866971265 -0.1441574828079589  4.9224956022888735 -0.14140032877803566  5.0101031684884081 -0.13680277498865773  5.0504072305320475 -0.13489152864875509  5.0925050172163511 -0.13311688953345946  5.1364829238617888 -0.13149732626130092  5.1824837399861678 -0.13004451418825377  5.2702471670013145 -0.12771550696986941  5.311201235060131 -0.12678407506985345  5.3536228589040968 -0.12597459777283027  5.3975360016187457 -0.1252870966503456  5.4429672167447576 -0.12471678651420605  5.53011080333546 -0.12385908851705237  5.5713588861977437 -0.12354323137340728  5.6137800223900953 -0.1232999748306428  5.6574736341167089 -0.12312137745446904  5.7025450425199482 -0.12299839002645885  5.789003978865547 -0.12285416223937907  5.8300350881102503 -0.12282079695587146  5.8723487999767379 -0.12281419620547301  5.9160759574639901 -0.12282771394019434  5.961346082376644 -0.1228538586863728  6.0509520224844247 -0.12291361350689947  6.0953696243056052 -0.12294657301209949  6.1411138661108859 -0.12297820794619539  6.187846722584208 -0.12300197311943385  6.2352920125216933 -0.12301406898613607  6.2831853071795862 -0.12301406901842807 
 0 7 0.25801230838703049 5 0.46059980430448533 5 0.62636737819450672 5 0.76817544885130928 5 0.88964208346271201 5 1 7
7 0 0  6 32 7  5.5733031941017517 -0.59681894488288589  5.5733031941017517 -0.59167798828935481  5.5748121000765618 -0.58643466992215543  5.5780802205535531 -0.58110217695379729  5.5833987515722994 -0.57569377988985504  5.5911077203221833 -0.57022080690790455  5.609950459000018 -0.56035511055760523  5.6199975882274877 -0.55598043956256193  5.6319835507530485 -0.55159919545356528  5.6460843352597463 -0.54723511293664373  5.6624789381004641 -0.54290867775953255  5.6968587120561383 -0.53514755934279779  5.7139901197601803 -0.5316989824984617  5.7328462737207255 -0.52831567802397605  5.7534776902488778 -0.52501806570145904  5.7759148574229835 -0.5218272864932948  5.8209057545776206 -0.51614845410691623  5.8429466157006411 -0.51362888779319782  5.8663320934126792 -0.51121581953871853  5.891107513300625 -0.50892019591191129  5.9173182842133469 -0.50675653277533095  5.9687323269188219 -0.50301898370040554  5.9935660962060826 -0.50140319581184734  6.0195830598877924 -0.4999055348187264  6.0468475083668363 -0.49854044318879254  6.0754170545178212 -0.49732697915137325  6.1325253659664218 -0.49534776488468807  6.1610669678383152 -0.49454292878024941  6.1906652181651536 -0.49391178595015056  6.2210489137477873 -0.49347819439287899  6.2519711222389214 -0.49325751021314485  6.2831853071795862 -0.49325750962398995 
 0 7 0.25801230838703049 5 0.46059980430448533 5 0.62636737819450672 5 0.76817544885130928 5 0.88964208346271201 5 1 7
7 0 0  6 32 7  3.1415926535897931 -0.2894116979652302  3.1884634750159271 -0.28941169673696304  3.234274271410658 -0.2889613995533587  3.2787530289149656 -0.28809933358701428  3.3216187023062291 -0.28688401356906407  3.3624646440893033 -0.28539577580007403  3.450057980290488 -0.28160021849796762  3.4964288563997297 -0.27912462634589619  3.540215387622295 -0.27641608480176405  3.5817646245622057 -0.27354624789354021  3.6214995555313445 -0.27055189953837955  3.7071347440865465 -0.26361091415474303  3.7523032605292306 -0.25960928203212086  3.7957396379156716 -0.25549341381074409  3.8377594580646686 -0.2512985664493837  3.8787347409583854 -0.24703444929349505  3.9635799648278147 -0.23790460188910179  4.0071459356782961 -0.23304111368595504  4.0501177953917926 -0.22811746945892589  4.0927798967281168 -0.22314274457758967  4.1354178089868752 -0.21812133546986212  4.2200044345272598 -0.20814229886056834  4.2618081285036133 -0.20320227509025185  4.3041572123749683 -0.19822710326324866  4.3473707733005602 -0.19321786121880974  4.3917293997765308 -0.1881916458856433  4.4791671694691519 -0.17862084410250956  4.5223181585917622 -0.17403915600259112  4.5670423668506164 -0.16947787192132563  4.6134738478140989 -0.16498394057628879  4.6618138987782523 -0.16060762087313593  4.7123889803846897 -0.15639983404158481 
 0 7 0.1133305257915435 5 0.25912694954426613 5 0.43799615099514155 5 0.63475592788637303 5 0.82594679245116187 5 1 7
7 0 0  6 32 7  6.2831853071795862 -0.76205367946113189  6.2526375134066416 -0.76205367810463553  6.2227805984325517 -0.76155636979229957  6.1938612581915908 -0.76060430873984897  6.1661165561923106 -0.75926082929147687  6.1398414036446374 -0.75761285749999274  6.0838733912297238 -0.75340231810939362  6.0545368180839008 -0.75065112716350391  6.0271672258637974 -0.74763342270990862  6.0015404139452686 -0.74442610346007054  5.9773833529142451 -0.74106830493290998  5.9261589209792991 -0.73325441767560529  5.8997257568508221 -0.72872978883929351  5.8749181215463349 -0.72405177187450542  5.851550453435971 -0.71925588772308491  5.8294191213812567 -0.71434907994938168  5.7851093728157563 -0.7037632835103188  5.7632434959438408 -0.69807905822567917  5.7426164382379143 -0.69227165264658286  5.7231486247701246 -0.68634249829434868  5.7048046447329499 -0.68028496355992629  5.6709051972328748 -0.66807217526035723  5.6553377920948718 -0.66194337208726239  5.6408550846466428 -0.65567422517327489  5.6275301284222419 -0.64924592800010428  5.6155333633822142 -0.64265202209633432  5.5956712212559445 -0.62975129571204125  5.5874606818984356 -0.6234254777807372  5.5807790937302251 -0.61694398181266064  5.575940765454436 -0.61033238255614108  5.5733031941017517 -0.60361613899539146  5.5733031941017517 -0.59681894488288578 
 0 7 0.1133305257915435 5 0.25912694954426613 5 0.43799615099514155 5 0.63475592788637303 5 0.82594679245116187 5 1 7
Curves 24
1 0 9.9165774560956916e-018 0.16194999999999998 1 0 0 
1 0 -0.16194999999999998 1.9833154912191383e-017 1 0 0 
2 0 0 0 1 0 -0 0 1 0 0 -0 1 0.16194999999999998
2 0 0 0 1 0 -0 0 1 0 0 -0 1 0.16194999999999998
1 0 0.16194999999999998 -1.9833152478431535e-017 1 0 0 
7 0 0  6 32 7  0.094017664954674354 0.11927531177909366 0.10954999999999999  0.10066445325787463 0.11927531177909366 0.10954999999999999  0.10723782855052348 0.11954946234033799 0.10925152245841392  0.11371572713905835 0.12005296576004167 0.10870326467041144  0.12007407118592286 0.1207432784430985 0.10794059296174037  0.12628849893738833 0.12158198104682917 0.10699415868817262  0.13942230552925783 0.12365179603035627 0.10459900500977674  0.1463413715358976 0.12493517531127281 0.10308085819824496  0.15308519955515817 0.126341257018868 0.10136732601969997  0.15966044537119223 0.12783854616190396 0.099475752961361352  0.16608892620276278 0.12940873825709276 0.097411141683913349  0.17895933821869722 0.13274092551407438 0.092822331927364943  0.1853697495386035 0.1345018875466823 0.09029214324517558  0.19164646524379184 0.13630960280907134 0.087565903321684221  0.19779689748814944 0.13815180234629174 0.084632621431463051  0.20382044399779234 0.14001713402015564 0.08147459071777681  0.21507799638394776 0.14360335488929965 0.074956670447611548  0.22031641312759143 0.14531686009826006 0.071648360594294982  0.22544049940070593 0.14703050930884493 0.06811059588004359  0.23044378559173617 0.14873698454606457 0.064307188189827683  0.23529088024815165 0.15041869190490464 0.060202626616962386  0.24370183564209674 0.1533788264748428 0.052131740743555151  0.24733222622935924 0.15467270675700578 0.048281591581437362  0.25080960724618229 0.15592550872395677 0.044161772318526055  0.25409559921597652 0.15712103204395783 0.039723501559154009  0.25711192972658453 0.15822732178064999 0.034925396756600009  0.26188752584675162 0.15998902593283146 0.025493917892722869  0.26382441114782723 0.16070783202369332 0.020894238803779008  0.26541475466639775 0.16130138995219218 0.015991941783795052  0.26654967981752992 0.16172636320288403 0.010842094166254502  0.26714692611981533 0.16194999945065625 0.0054934373324616922  0.26714692758689484 0.16194999999999998 2.7062902430896109e-017 
 0 7 0.16261247250999528 5 0.35307377262215489 5 0.55061143930376699 5 0.73119984314793651 5 0.87909071979970821 5 1 7
7 0 0  7 74 13  -0.011835738501773092 0.16195000000000001 0  -0.011835738346820543 0.16194999985837732 0.0014162268741705047  -0.011819922886395983 0.16193554430235338 0.0028325029011249474  -0.011788306349566301 0.16190664769576826 0.004246897614101788  -0.011740984598951634 0.16186341427915923 0.005657608850451851  -0.011678135130725357 0.16180603816976075 0.0070629627516383357  -0.011600017074614081 0.16173480336150456 0.0084614137632368098  -0.011410919576673234 0.16156262732144344 0.011286582031025751  -0.011298980371501838 0.16146081684036642 0.012712363472820667  -0.011171487841395197 0.16134502771852957 0.01412786678612995  -0.011028823223878314 0.161215688311975 0.015532068245848322  -0.01087141473098947 0.1610732798960457 0.016923942575955215  -0.010699737549280219 0.16091833666538596 0.018302462949514792  -0.010318401938905684 0.16057511488758738 0.021107899283951397  -0.010107079565393463 0.16038538521921741 0.022533577559646006  -0.0098808940141655865 0.16018288613521131 0.023942946527544584  -0.0096403758480352042 0.15996823648890926 0.025335467538544262  -0.0093860388977417553 0.15974204458061156 0.026710752582654509  -0.0091183802619509736 0.15950490815757831 0.028068564288997105  -0.0085371321750030756 0.15899205508020445 0.030845815004663355  -0.0082216185969336102 0.15871478451596796 0.03226258469282018  -0.0078919206631642858 0.15842631513442901 0.033659016327473458  -0.0075485814348252994 0.15812732579671931 0.035035084589446409  -0.0071921059440592794 0.15781846181199377 0.036390847503188564  -0.0068229611940212572 0.15750033493743043 0.037726446436775876  -0.0060287223420638835 0.15681974599536991 0.040466323269155023  -0.005601529727733201 0.15645579522081848 0.041867140735438867  -0.0051605370664819534 0.15608239870679039 0.043244832164247411  -0.0047062390868486707 0.15570024361034271 0.044599699242926193  -0.0042390864953150992 0.15530997659337545 0.045932071682681049  -0.0037594859763062003 0.1549122038226316 0.047242307218578125  -0.0027315912422272099 0.1540661305299221 0.049935950930074961  -0.0021810194955533542 0.15361652499117931 0.051315217529371716  -0.0016165537895475655 0.15315940668343406 0.052669078858920707  -0.0010386249736914481 0.15269547191701624 0.053998008302224849  -0.00044762590956921985 0.15222538098262023 0.055302465174803368  0.00015608852913228801 0.15174975815130476 0.056582894724191708  0.0014498339018418494 0.15074064013427765 0.059222057660727578  0.0021424500905062259 0.15020611939766251 0.06057583007658203  0.0028496275372541765 0.14966641468818653 0.061901606096975474  0.0035709622361125176 0.14912228719955692 0.063199902912454517  0.0043060686604974663 0.1485744740956487 0.064471194184641992  0.0050545797632146434 0.14802368851050504 0.065715910046236878  0.0066656582067796243 0.14685368346399333 0.068293676836497327  0.0075314003072908193 0.14623391330568072 0.069620332541657337  0.0084128819199841658 0.14561227606416224 0.070914922359213067  0.0093095949610050455 0.14498972295053156 0.072177914369361301  0.0102210146206527 0.14436718939621312 0.073409726589776944  0.011146599363380239 0.143745595052962 0.074610726975612857  0.013162186645008771 0.14241555461716868 0.077122736229906091  0.014256458984751714 0.14170767379950325 0.078424216946014633  0.015367735937671696 0.14100358725751783 0.079686130206067338  0.016495104094709768 0.14030462532162133 0.08090893489841279  0.017637608647099765 0.13961206273498072 0.082093094161506452  0.018794253386368306 0.13892711865352142 0.083239075383910746  0.02137738956641928 0.13743395981608189 0.08568646273159089  0.022809954805530375 0.13662974902992323 0.086970565305973344  0.024259832206221122 0.13584037367216673 0.088200529247740814  0.025725198225997465 0.13506764882922762 0.089377358307598423  0.02720426999531822 0.13431315528922039 0.090502188666657865  0.028695305317595114 0.13357823954195902 0.091576288936437392  0.032218804007671235 0.13190197365254122 0.093981395463800244  0.034258689704365589 0.13097791732447944 0.095271567827546352  0.036313228076691059 0.13009397042594628 0.096475822893418786  0.038379259945948714 0.12925177524710194 0.097598176291581309  0.040453510479303859 0.12845249524218913 0.098642473662808761  0.04253260103176431 0.12769681953463038 0.099612450682252912  0.05194589462857005 0.1244759582477214 0.10368163453663638  0.059239428001037875 0.12253067440479301 0.10594966153265067  0.066465673775522247 0.12110135958904429 0.10755402769996389  0.073598107616903038 0.12012480354750441 0.10862463119238741  0.080599111816042943 0.11953764229857758 0.10926452667251965  0.087423823876786072 0.11927531177909367 0.10954999999999997  0.094017664954674438 0.11927531177909367 0.10954999999999997 
 0 8 0.034803935102741407 6 0.070732169933266559 6 0.10869262710616029 6 0.14939329889964523 6 0.19345225808399097 6 0.24150084725190912 6 0.2943471381091961 6 0.35329599617885582 6 0.42085654587396587 6 0.50248898647778195 6 0.61244537218420103 6 1 8
1 0 -2.974973236828707e-017 -0.16194999999999998 1 0 0 
2 0 0 0 1 0 -0 0 1 0 0 -0 1 0.16194999999999998
2 0 0 0 1 0 -0 0 1 0 0 -0 1 0.16194999999999998
2 0 -1.3877787807814457e-017 -1.3877787807814457e-017 1 0 -0 0 1 0 0 -0 1 0.15794999999999998
2 0 -1.3877787807814457e-017 1.3877787807814457e-017 1 0 -0 0 1 0 0 -0 1 0.15794999999999998
2 0 1.3877787807814457e-017 1.3877787807814457e-017 1 0 -0 0 1 0 0 -0 1 0.15794999999999998
2 0 1.3877787807814457e-017 -1.3877787807814457e-017 1 0 -0 0 1 0 0 -0 1 0.15794999999999998
7 0 0  6 32 7  0.094017664954674438 0.11927531177909366 -0.10955000000000002  0.088740178421465324 0.11927531177909366 -0.10955000000000002  0.083350658788863566 0.11944813080770807 -0.10936180739609865  0.077856242394201192 0.11982431991501509 -0.10895236744780218  0.072266635487202718 0.12043836130966087 -0.10827899331010854  0.066590467003005693 0.12132883892297247 -0.10728709032406174  0.056431085011694734 0.12345917087426903 -0.10482190746957429  0.051973454276272049 0.12456969784246584 -0.10351418414051783  0.047495834684969332 0.12587977969770714 -0.10193482383024104  0.043023777481379276 0.12739673600482404 -0.10004681800897934  0.038578845373903096 0.12912120970443813 -0.097807101972442606  0.030637194731098702 0.13259529313469179 -0.093022884667004743  0.02713081643284234 0.13427219196086357 -0.090625761451728418  0.023688256632191027 0.13606339427384778 -0.087947670831633434  0.020333408796837496 0.13794982831725308 -0.084970854518331335  0.0170906380583867 0.13990408637038027 -0.081680053681395443  0.011322937085650853 0.14359510461375058 -0.074971665240235311  0.0087650596657576577 0.14532103356103257 -0.071642628365783459  0.0063200938426059734 0.1470515800988739 -0.068069681502198429  0.0039982883369391259 0.14876635707825986 -0.064240118868063176  0.0018133357247759104 0.15044088961153104 -0.060142103977670086  -0.0019653603079437202 0.15342817055256519 -0.051997202799277109  -0.003601280165217843 0.15476061492605306 -0.048017592461175457  -0.005116036726438491 0.15602698307394416 -0.04381272838141502  -0.0064956772228302205 0.15720644150657365 -0.039370157932507352  -0.0077214980241185876 0.15827318599663878 -0.034679857581834783  -0.0097224932510288596 0.16003726449451791 -0.025235667394529565  -0.010536522240057036 0.16076646773950121 -0.020485901042516907  -0.011174559154960254 0.1613457004805223 -0.015537368595603479  -0.011612750503038975 0.16174619431712742 -0.010440376096357201  -0.011835737927962137 0.16194999947555139 -0.0052444859586465858  -0.01183573850177308 0.16194999999999998 -5.5511151231257827e-017 
 0 7 0.26421517095925362 5 0.46655858085374335 5 0.62972307801071392 5 0.76972147639528676 5 0.8902606463337539 5 1 7
7 0 0  6 32 7  0.26714692758689484 0.16194999999999998 0  0.26714692621567671 0.16194999948655125 -0.0051344871693160821  0.26662519054619943 0.16175463790180433 -0.010152848179944524  0.26562637001972694 0.16138062876452197 -0.015004937658098114  0.26421688776137947 0.16085433639430746 -0.019644293549374289  0.26248778987742222 0.16021193718799093 -0.024018978376533121  0.25806885537187385 0.15857901946567127 -0.033295298230145112  0.25518144430480683 0.15751774993259965 -0.038124035975705475  0.25201390412647068 0.15636234290051698 -0.042592722895027288  0.24864698416536646 0.15514566740261101 -0.046741742695824151  0.24512204358037618 0.15388498689970528 -0.050619076901125951  0.23691625627185675 0.15098536829737569 -0.058770415414341706  0.23216295334524889 0.14932850192195363 -0.062925390374646423  0.22724941309370633 0.1476436618741914 -0.066774375073293674  0.22221342213464551 0.14594912292543299 -0.070353825455046967  0.21706267188156558 0.14425232468341814 -0.073701339042644393  0.20594467597076105 0.14068117446780504 -0.080325425647632995  0.19997158506278567 0.13881401405529065 -0.08354574954284498  0.19387167739425928 0.13696720859514686 -0.086537247356732919  0.18764683238787153 0.13515198337821613 -0.089318973215490649  0.18129010767703765 0.13337996771756391 -0.091903399517677287  0.16847785436126261 0.13000357204636379 -0.096618025799802359  0.16205276327119886 0.12840185125068054 -0.09875062720188936  0.15548229722493942 0.12686947606756052 -0.1007085744188307  0.1487450733182803 0.12542390443992602 -0.1024882491336762  0.14183442656652998 0.12409529782634676 -0.10407393640904072  0.12835467758115585 0.1218679599089495 -0.10667073102323614  0.12176541763512488 0.12093214776795656 -0.10773168572855292  0.11501121295089714 0.12015698878536804 -0.10858998097900205  0.10811764683741705 0.11958757412478811 -0.10921003344351177  0.10111141792431987 0.11927531177909363 -0.10954999999999999  0.094017664954674451 0.11927531177909363 -0.10954999999999999 
 0 7 0.11325837649053126 5 0.25893163607222569 5 0.43783346025199821 5 0.63497098474927383 5 0.82657151711417132 5 1 7
7 0 0  6 32 7  0.096818944882885782 0.12282914963476702 0.10555000000000002  0.10318960056611731 0.12282914963476702 0.10555000000000002  0.10949246971293984 0.12307370767070923 0.10526541492122211  0.11570664787851817 0.12352530145592909 0.1047398483789678  0.12180914681340299 0.12414759501253123 0.10400581048195344  0.1277759074475143 0.12490691935911148 0.10309196268293415  0.14034677867838929 0.12678082306135238 0.10078187416341809  0.14694970615821934 0.12794153072750347 0.099320873281997554  0.15338564071838243 0.12921630509815812 0.097670374930162715  0.15966088453848348 0.13057715142799839 0.095846846326937699  0.16579449581954095 0.13200710045318154 0.093855567309796509  0.17806448971348823 0.13504520144776513 0.089431878048209387  0.18417334046349662 0.13665325556521635 0.086992726798526612  0.19015222979842314 0.13830637748392385 0.084364959942355447  0.196008175827138 0.13999316307142803 0.081538512966534124  0.20174074587704061 0.1417030156945305 0.078496863560174657  0.21245946955757383 0.14499648463509407 0.072217115987795205  0.21744983561568482 0.14657308060136912 0.069027677487452616  0.22232956936469742 0.14815116462613903 0.065618185376338747  0.2270928879988062 0.14972395230319496 0.061954000045595432  0.23170657624820046 0.15127518898205891 0.058001073089276142  0.23971563624432934 0.15400915194289347 0.05022714262957767  0.24317387537702348 0.15520557180316905 0.046517355399509804  0.24648633824805616 0.15636480552096713 0.042548189457613732  0.2496167501390715 0.15747185857059073 0.038272367908920406  0.25249060142392449 0.15849697031463938 0.033649869034815413  0.25704070410262825 0.16013009431150066 0.024564080704822647  0.25888669047649426 0.16079691259087756 0.020132410669788825  0.26040256132879247 0.16134782527526062 0.015408881329746611  0.26148437000002889 0.161742370759938 0.010446791337877638  0.26205367800977197 0.16194999947068123 0.0052931874208668192  0.26205367946113189 0.16194999999999998 1.9389220447500467e-017 
 0 7 0.16324337796265728 5 0.35332044437681231 5 0.55045849809374459 5 0.73099802526021285 5 0.87901264687605951 5 1 7
7 0 0  6 32 7  -0.0067424903760100454 0.16194999999999998 -1.2926146965000313e-017  -0.0067424898230668499 0.16194999952555705 0.0047444292170837291  -0.0065481013016888707 0.16178320805108864 0.0094518045888282182  -0.0061650410564621314 0.16145452992506262 0.014079072139973208  -0.0056056863440247682 0.16097751003211336 0.018583598974163871  -0.0048897024437106603 0.16037430192559088 0.022922157855694052  -0.0030696482933829866 0.15886334414645589 0.031840820782410184  -0.0019136747279417943 0.15791555066002058 0.036388526140747619  -0.00060406627078486881 0.15686022958350201 0.040698401431261758  0.00083977455286030154 0.15572206984685827 0.044778746179914397  0.0024027925914001215 0.1545213095728612 0.048640354270884131  0.0060281028511679595 0.15181673639661361 0.056567228991082769  0.0081330837749041176 0.15029374820703348 0.060563549287232815  0.010370754737954241 0.14873289812897494 0.064296362824871625  0.012726629625245156 0.14715703410917663 0.067778687492884085  0.015190047491964334 0.14558473293261037 0.07102420428349733  0.020746129715333603 0.14221725415666078 0.077574413078101617  0.023871136436808837 0.1404311986655408 0.080793464125433104  0.027105755515925117 0.13870301598704968 0.083714490735536218  0.030429206142422976 0.13705598994490384 0.086352758399008356  0.033821591737169615 0.13550690419490408 0.088725834604612294  0.041454489083276834 0.13231182574979455 0.093440715373039551  0.045710135971415392 0.13072199817163901 0.095657556182445938  0.050008650672211573 0.12930851546385139 0.097546982205061417  0.054329282171319916 0.12807446460882987 0.09914463601905936  0.058648246475113144 0.12701661212624715 0.10048182459901708  0.068767649546687529 0.12491591967611229 0.10308995611714189  0.074543978516089404 0.12401494301966268 0.10416462664109093  0.080252314334856606 0.12338986388495453 0.10489761222059596  0.085878816260514287 0.12300564818454054 0.10534457464977386  0.091406719060386929 0.12282914963476702 0.10555000000000002  0.096818944882885782 0.12282914963476702 0.10555000000000002 
 0 7 0.10367705393411894 5 0.22393295290052648 5 0.36446312120042906 5 0.52848908727155164 5 0.72831531650233727 5 1 7
1 0 -0.15794999999999998 1.934329619253244e-017 1 0 0 
1 0 -2.901494428879866e-017 -0.15794999999999998 1 0 0 
1 0 -7.8643294269517506e-018 0.15794999999999998 1 0 0 
1 0 0.15794999999999998 -1.9343294369752431e-017 1 0 0 
7 0 0  6 32 7  0.096818944882885866 0.12282914963476699 -0.10555000000000003  0.09167798828935475 0.12282914963476699 -0.10555000000000003  0.086434669922156232 0.12298840065791491 -0.1053646565357113  0.081102176953795888 0.12333341527960624 -0.10496326312980345  0.075693779889856025 0.12389253307650361 -0.10430812381472869  0.070220806907904484 0.12469583617736642 -0.10335217927476281  0.060355110557605188 0.12661825982205566 -0.10098227692282649  0.055980439562561601 0.12763294094577166 -0.099710211694292769  0.051599195453565928 0.12882674688864021 -0.098179327001789926  0.047235112936643307 0.13020448530161441 -0.096357585841798751  0.042908677759532582 0.13176487485412539 -0.094208264861107865  0.035147559342797813 0.1349169519867415 -0.089618618306201533  0.031698982498461627 0.13644925744837086 -0.087305240987624155  0.028315678023976026 0.13808539882946774 -0.084725666277557357  0.025018065701459119 0.13980930789232882 -0.081861557723860348  0.021827286493294823 0.14159822743054609 -0.078696666217568892  0.016148454106916361 0.14498239752892497 -0.072243976259552381  0.013628887793197828 0.14656623774753952 -0.069043981840943958  0.011215819538718462 0.14815857507131605 -0.065605529037442212  0.0089201959119113525 0.14974066904477165 -0.06191518220756944  0.0067565327753309938 0.15128955519436579 -0.057960223254423647  0.0030189837004055186 0.15405199682102985 -0.050105314679470853  0.0014031958118480474 0.15528314231190946 -0.046274994976324972  -9.4465181274850339e-005 0.15645525496845256 -0.042224918199945102  -0.0014595568112067709 0.1575484881557293 -0.037943119232312778  -0.0026730208486267235 0.15853828041661466 -0.033420042736776165  -0.0046522351153119139 0.16017446434859464 -0.0243172306395463  -0.0054570712197497583 0.160850836722952 -0.019742418191075542  -0.0060882140498505384 0.16138861038270216 -0.014974769513237535  -0.0065218056071204272 0.1617606454116145 -0.010062987067120027  -0.0067424897868551383 0.16194999949448624 -0.0050551372511405956  -0.0067424903760100472 0.16194999999999996 -4.163336342344337e-017 
 0 7 0.25801230838703049 5 0.46059980430448533 5 0.62636737819450672 5 0.76817544885130928 5 0.88964208346271201 5 1 7
7 0 0  6 32 7  0.26205367946113189 0.16194999999999996 0  0.26205367810463548 0.16194999950527844 -0.0049472152015283682  0.26155636979230179 0.16176862937636677 -0.0097825402785213095  0.26060430873984558 0.16142140375742031 -0.014457727213769422  0.25926082929147876 0.16093290744664895 -0.018927915565758596  0.25761285749999285 0.16033691496234179 -0.023142840212062213  0.25340231810939373 0.1588229050427738 -0.032079518871648588  0.25065112716350529 0.15783930467148263 -0.036731638155548779  0.2476334227099061 0.15676916385212003 -0.041036776511973169  0.24442610346007224 0.15564310582019708 -0.045034012726742317  0.24106830493290998 0.15447711976797113 -0.04876987084316612  0.23325441767560529 0.15179830416615234 -0.056621252296114193  0.2287297888392934 0.15026947480835295 -0.060622791917282329  0.22405177187450603 0.14871609402982619 -0.06433087869017462  0.21925588772308441 0.14715505588541597 -0.067780484240534344  0.21434907994938174 0.14559325020091651 -0.071007637026663128  0.20376328351031894 0.14231226211221473 -0.077389609553734487  0.19807905822567937 0.14060006224821472 -0.08049108281250264  0.19227165264658297 0.13890836072679266 -0.083373498078451  0.18634249829434876 0.13724758494173644 -0.086054751775853158  0.18028496355992632 0.13562856022230654 -0.088546310479049387  0.16807217526035725 0.13254875063744037 -0.093091092471594722  0.16194337208726167 0.13108953153710529 -0.095147730758969498  0.15567422517327625 0.12969618265328706 -0.097035182009478235  0.14924592800010353 0.12838490047635359 -0.098749524977170114  0.1426520220963344 0.12718254556187483 -0.10027580861445763  0.12975129571204128 0.12516480714624714 -0.10278094788736356  0.12342547778073658 0.1243171562332754 -0.10380558815073672  0.11694398181266222 0.12361819778009174 -0.10463172369476638  0.11033238255614009 0.12310755309403892 -0.1052260336977618  0.10361613899539156 0.12282914963476699 -0.10555000000000003  0.096818944882885893 0.12282914963476699 -0.10555000000000003 
 0 7 0.1133305257915435 5 0.25912694954426613 5 0.43799615099514155 5 0.63475592788637303 5 0.82594679245116187 5 1 7
Polygon3D 0
PolygonOnTriangulations 0
Surfaces 17
2 0 0 0 -1 -0 0 0 1 0 0 -0 1 0.16194999999999998
2 0 0 0 -1 -0 0 0 1 0 0 -0 1 0.16194999999999998
2 0 0 0 -1 -0 0 0 1 0 0 -0 1 0.16194999999999998
1 0 2.7213277889113947e-017 -3.4488303116516252e-018 1 0 0 -0 0 1 0 -1 0 
2 0 0 0 -1 -0 0 0 1 0 0 -0 1 0.16194999999999998
2 0 0 1.3877787807814457e-017 -1 -0 0 0 1 0 0 -0 1 0.10954999999999999
2 0 1.3877787807814457e-017 0 -1 -0 0 0 1 0 0 -0 1 0.10954999999999999
2 0 -1.3877787807814457e-017 -1.3877787807814457e-017 -1 -0 0 0 1 0 0 -0 1 0.15794999999999998
2 0 -1.3877787807814457e-017 1.3877787807814457e-017 -1 -0 0 0 1 0 0 -0 1 0.15794999999999998
2 0 1.3877787807814457e-017 1.3877787807814457e-017 -1 -0 0 0 1 0 0 -0 1 0.15794999999999998
2 0 1.3877787807814457e-017 -1.3877787807814457e-017 -1 -0 0 0 1 0 0 -0 1 0.15794999999999998
2 0 0 -1.3877787807814457e-017 -1 -0 0 0 1 0 0 -0 1 0.10954999999999999
2 0 -1.3877787807814457e-017 0 -1 -0 0 0 1 0 0 -0 1 0.10954999999999999
2 0 0 0 -1 -0 0 0 1 0 0 -0 1 0.10554999999999999
2 0 0 0 -1 -0 0 0 1 0 0 -0 1 0.10554999999999999
2 0 0 0 -1 -0 0 0 1 0 0 -0 1 0.10554999999999999
2 0 0 0 -1 -0 0 0 1 0 0 -0 1 0.10554999999999999
Triangulations 0

TShapes 73
Ve
1.00005e-007
0 9.91657745609569e-018 0.16195
0 0

0101101
*
Ed
 1.00005e-007 1 1 0
1  1 0 0 1
2  1 1 0 0 1
2  2 2 0 0 1
4 C2 1 0 2 0
0

0101000
+73 0 -73 2 *
Ve
1.00005e-007
0 -0.16195 1.98331549121914e-017
0 0

0101101
*
Ed
 1.00005e-007 1 1 0
1  2 0 0 1
2  3 1 0 0 1
2  4 3 0 0 1
4 C2 1 0 3 0
0

0101000
+71 0 -71 2 *
Ed
 1.00005e-007 1 1 0
1  3 0 1.5707963267949 3.14159265358979
2  5 1 0 1.5707963267949 3.14159265358979
2  6 1 3 1.5707963267949 3.14159265358979
2  7 4 0 1.5707963267949 3.14159265358979
0

0101000
+73 0 -71 0 *
Wi

0101100
+72 0 -70 0 -69 0 +69 2 *
Fa
0  1.00005e-007 1 0

0111000
+68 0 *
Ve
1.00005e-007
0 0.16195 -1.98331524784315e-017
0 0

0101101
*
Ed
 1.00005e-007 1 1 0
1  4 0 0 1.5707963267949
2  8 2 0 0 1.5707963267949
2  9 2 3 0 1.5707963267949
2  10 4 0 0 1.5707963267949
0

0101000
+66 0 -73 0 *
Ve
1.00006000029678e-007
0.267146927586895 0.16195 2.60872618332888e-019
0 0

0101101
*
Ed
 1.00005e-007 1 1 0
1  5 0 0.767146927586895 1
2  11 5 0 0.767146927586895 1
2  12 2 0 0.767146927586895 1
4 C2 5 0 2 0
0

0101000
+64 5 -66 2 *
Ve
2.00011e-007
0.0940176649546744 0.119275311779094 0.10955
0 0

0101101
*
Ed
 1.00005e-007 1 1 0
1  6 0 0 1
2  13 6 6 0 1
2  14 2 1 0 1
0

0101000
+62 0 -64 0 *
Ve
1.00006000010228e-007
-0.0118357385017731 0.16195 -2.00940255685274e-017
0 0

0101101
*
Ed
 1.00005e-007 1 1 0
1  7 0 0 1
2  15 7 6 0 1
2  16 2 1 0 1
0

0101000
+60 0 -62 0 *
Ed
 1.00005e-007 1 1 0
1  5 0 0 0.488164261498227
2  11 5 0 0 0.488164261498227
2  12 2 0 0 0.488164261498227
4 C2 5 0 2 0
0

0101000
+66 0 -60 5 *
Wi

0101000
-65 1 -72 1 +65 4 +63 1 +61 0 +59 0 +58 1 *
Fa
0  1.00005e-007 2 1

0111000
+57 0 *
Ve
1.00005e-007
0 -2.97497323682871e-017 -0.16195
0 0

0101101
*
Ed
 1.00005e-007 1 1 0
1  8 0 0 1
2  17 3 0 0 1
2  18 5 0 0 1
4 C2 3 0 5 0
0

0101000
+55 0 -55 2 *
Ed
 1.00005e-007 1 1 0
1  9 0 3.14159265358979 4.71238898038469
2  19 3 0 3.14159265358979 4.71238898038469
2  20 3 3 3.14159265358979 4.71238898038469
2  21 4 0 3.14159265358979 4.71238898038469
0

0101000
+71 0 -55 0 *
Wi

0101100
+70 0 -54 0 -53 0 +53 2 *
Fa
0  1.00005e-007 3 0

0101000
+52 0 *
Ed
 1.00005e-007 1 1 0
1  10 0 4.71238898038469 6.28318530717959
2  22 5 0 4.71238898038469 6.28318530717959
2  23 5 3 4.71238898038469 6.28318530717959
2  24 4 0 4.71238898038469 6.28318530717959
0

0101000
+55 0 -66 0 *
Wi

0101100
+69 0 +53 0 +50 0 +65 0 *
Ve
1.00005e-007
0 -0.15795 1.93432961925324e-017
0 0

0101101
*
Ve
1.00005e-007
0 -2.90149442887987e-017 -0.15795
0 0

0101101
*
Ed
 1.00005e-007 1 1 0
1  11 0 3.14159265358979 4.71238898038469
2  25 8 0 3.14159265358979 4.71238898038469
2  26 8 3 3.14159265358979 4.71238898038469
2  27 4 0 3.14159265358979 4.71238898038469
0

0101000
+48 0 -47 0 *
Ve
1.00005e-007
0 -7.86432942695175e-018 0.15795
0 0

0101101
*
Ed
 1.00005e-007 1 1 0
1  12 0 1.5707963267949 3.14159265358979
2  28 9 0 1.5707963267949 3.14159265358979
2  29 9 3 1.5707963267949 3.14159265358979
2  30 4 0 1.5707963267949 3.14159265358979
0

0101000
+45 0 -48 0 *
Ve
1.00005e-007
0 0.15795 -1.93432943697524e-017
0 0

0101101
*
Ed
 1.00005e-007 1 1 0
1  13 0 0 1.5707963267949
2  31 10 0 0 1.5707963267949
2  32 10 3 0 1.5707963267949
2  33 4 0 0 1.5707963267949
0

0101000
+43 0 -45 0 *
Ed
 1.00005e-007 1 1 0
1  14 0 4.71238898038469 6.28318530717959
2  34 11 0 4.71238898038469 6.28318530717959
2  35 11 3 4.71238898038469 6.28318530717959
2  36 4 0 4.71238898038469 6.28318530717959
0

0101000
+47 0 -43 0 *
Wi

0101100
-46 0 -44 0 -42 0 -41 0 *
Fa
0  1e-007 4 0

0101000
+49 0 +40 0 *
Ve
2.00011e-007
0.0940176649546744 0.119275311779094 -0.10955
0 0

0101101
*
Ed
 1.00005e-007 1 1 0
1  15 0 0 1
2  37 12 6 0 1
2  38 5 1 0 1
0

0101000
+38 0 -60 0 *
Ed
 1.00005e-007 1 1 0
1  16 0 0 1
2  39 13 6 0 1
2  40 5 1 0 1
0

0101000
+64 0 -38 0 *
Wi

0101000
-50 1 -58 1 +37 0 +36 0 -63 1 +50 4 +54 1 *
Fa
0  1.00005e-007 5 1

0111000
+35 0 *
Ve
1.00005000042533e-007
0.262053679461132 0.16195 -3.45350275671561e-018
0 0

0101101
*
Ed
 1.00005e-007 1 1 0
1  5 0 0.762053679461132 0.767146927586895
2  11 5 0 0.762053679461132 0.767146927586895
2  12 2 0 0.762053679461132 0.767146927586895
4 C2 5 0 2 0
0

0101000
+33 5 -64 5 *
Ve
2.00011e-007
0.0968189448828859 0.122829149634767 0.10555
0 0

0101101
*
Ed
 1.00005e-007 1 1 0
1  17 0 0 1
2  41 14 6 0 1
2  42 2 1 0 1
0

0101000
+31 0 -33 0 *
Ve
1.00005000031223e-007
-0.00674249037601 0.16195 -1.63796493850029e-017
0 0

0101101
*
Ed
 1.00005e-007 1 1 0
1  18 0 0 1
2  43 15 6 0 1
2  44 2 1 0 1
0

0101000
+29 0 -31 0 *
Ed
 1.00005e-007 1 1 0
1  5 0 0.488164261498227 0.49325750962399
2  11 5 0 0.488164261498227 0.49325750962399
2  12 2 0 0.488164261498227 0.49325750962399
4 C2 5 0 2 0
0

0101000
+60 5 -29 5 *
Wi

0101000
-59 0 -61 0 +32 1 +30 0 +28 0 +27 1 *
Fa
0  1.00005e-007 2 1

0111000
+26 0 *
Ed
 1.00005e-007 1 1 0
1  19 0 0 1
2  45 8 0 0 1
2  46 9 0 0 1
4 C2 8 0 9 0
0

0101000
+48 0 -48 2 *
Ed
 1.00005e-007 1 1 0
1  20 0 0 1
2  47 8 0 0 1
2  48 11 0 0 1
4 C2 8 0 11 0
0

0101000
+47 0 -47 2 *
Wi

0101100
+24 0 -23 0 -46 0 +46 2 *
Fa
0  1.00005e-007 8 0

0101000
+22 0 *
Ed
 1.00005e-007 1 1 0
1  21 0 0 1
2  49 9 0 0 1
2  50 10 0 0 1
4 C2 9 0 10 0
0

0101000
+45 0 -45 2 *
Wi

0101100
+20 0 -24 0 -44 0 +44 2 *
Fa
0  1.00005e-007 9 0

0111000
+19 0 *
Ed
 1.00005e-007 1 1 0
1  22 0 0 1
2  51 10 0 0 1
2  52 11 0 0 1
4 C2 10 0 11 0
0

0101000
+43 0 -43 2 *
Wi

0101000
+17 1 -42 1 +42 4 -20 1 *
Fa
0  1.00005e-007 10 1

0111000
+16 0 *
Wi

0101000
+23 1 -41 1 +41 4 -17 1 *
Fa
0  1.00005e-007 11 1

0111000
+14 0 *
Ve
2.00011e-007
0.0968189448828859 0.122829149634767 -0.10555
0 0

0101101
*
Ed
 1.00005e-007 1 1 0
1  23 0 0 1
2  53 16 6 0 1
2  54 5 1 0 1
0

0101000
+12 0 -29 0 *
Ed
 1.00005e-007 1 1 0
1  24 0 0 1
2  55 17 6 0 1
2  56 5 1 0 1
0

0101000
+33 0 -12 0 *
Wi

0101000
-27 1 -37 0 +11 0 -36 0 +10 0 -32 1 *
Fa
0  1.00005e-007 5 1

0111000
+9 0 *
Ed
 1.00005e-007 1 1 0
1  5 0 0.49325750962399 0.762053679461132
2  11 5 0 0.49325750962399 0.762053679461132
2  12 2 0 0.49325750962399 0.762053679461132
4 C2 5 0 2 0
0

0101000
+29 5 -33 5 *
Wi

0101000
-28 0 -30 0 +7 1 *
Fa
0  1.00005e-007 2 1

0111000
+6 0 *
Wi

0101000
-7 1 -10 0 -11 0 *
Fa
0  1.00005e-007 5 1

0111000
+4 0 *
Sh

0101100
-67 1 -56 0 -51 1 -39 1 +39 4 -34 0 -25 0 +21 1 +18 1 +15 0 
+13 0 -8 0 -5 0 -3 0 *
So

0100000
+2 0 *

+1 0 