DBRep_DrawableShape

CASCADE Topology V1, (c) Matra-Datavision
Locations 4
1
              1               0               0               0 
              0               1               0               0 
              0               0               1              20 
2  1 -1 0
1
              1               0               0 -3.4426181798201e-14 
              0               1               0 1.04928096263646e-14 
              0               0               1           -11.5 
2  3 -1 0
Curve2ds 52
1 0 0 0 -1 
1 5.7202257186337118 0 0 -1 
1 0 0 1 0 
1 0 -20 1 0 
1 0 0 0 -1 
1 1.0471982245985538 0 0 -1 
1 0 0 1 0 
1 0 -11.5 1 0 
1 0 0 0 -1 
1 1.0472055049241475 0 0 -1 
1 0 0 1 0 
1 0 -11.5 1 0 
1 0 0 0 -1 
1 0.44324091303725749 0 0 -1 
1 0 0 1 0 
1 0 -11.5 1 0 
1 0 0 0 -1 
1 0.44324108437378668 0 0 -1 
1 0 0 1 0 
1 0 -11.5 1 0 
1 0 0 0 -1 
1 1.0471999106433345 0 0 -1 
1 0 0 1 0 
1 0 -11.5 1 0 
1 0 0 0 -1 
1 1.0471982245985538 0 0 -1 
1 0 0 1 0 
1 0 -11.5 1 0 
1 0 0 0 -1 
1 1.0471982245985538 0 0 -1 
1 0 0 1 0 
1 0 -11.5 1 0 
1 0 0 0 -1 
1 1.0471999106433345 0 0 -1 
1 0 0 1 0 
1 0 -11.5 1 0 
1 0 0 0 -1 
1 0.44324108437378668 0 0 -1 
1 0 0 1 0 
1 0 -11.5 1 0 
1 0 0 0 -1 
1 0.44324091303725749 0 0 -1 
1 0 0 1 0 
1 0 -11.5 1 0 
1 0 0 0 -1 
1 1.0472055049241475 0 0 -1 
1 0 0 1 0 
1 0 -11.5 1 0 
1 0 0 0 -1 
1 1.0471982245985538 0 0 -1 
1 0 0 1 0 
1 0 -11.5 1 0 
Curves 72
1 -22.89999961853 0.99999147653580001 8 0 0 1 
1 -27.042079801724906 1.000000587324098 8 0 0 1 
1 -22.89999961853 0.99999147653580001 8 -0.99999999999788269 2.0577728202561064e-06 0 
1 -27.042078094970641 -1.0000029580309109 8 0 0 1 
2 -30.500411987300001 -1.8686519354110001e-07 8 0 0 1 0.96064549241970743 0.27777731709716302 -0 -0.27777731709716302 0.96064549241970743 0 3.6000108718870001
1 -22.90000152588 -0.99999988079070001 8 0 0 1 
1 -27.042078018190001 -1.0000029802320001 8 0.99999999999972022 7.4828200440331796e-07 0 
1 -22.90000152588 -0.99999988079070001 8 9.5367912147183487e-07 0.99999999999954525 0 
1 -38.250450134280001 15 38.500011444089999 -2.9935810259305244e-15 9.124182283795289e-16 -1 
1 -33.750469207759998 15 38.500011444089999 -2.9935810259305244e-15 9.124182283795289e-16 -1 
1 -38.250450134280001 15 38.500011444089999 1 0 0 
1 -32.018417542594776 13.999998939981687 38.500011444090006 -2.9935810259305244e-15 9.124182283795289e-16 -1 
2 -33.750469207759998 13 38.500011444089999 0 0 -1 0 1 0 1 -0 0 2
1 -31.35046386718885 13.999999046293166 38.500011444089999 -2.9935810259305244e-15 9.124182283795289e-16 -1 
1 -32.018417358400001 13.99999904633 38.500011444089999 1 0 0 
1 -29.618396640926381 13.000000068190452 38.500011444089999 -2.9935810259305244e-15 9.124182283795289e-16 -1 
2 -31.35044670105 11.99999904633 38.500011444089999 0 0 -1 -8.5830688473388464e-06 0.99999999996316546 0 0.99999999996316546 8.5830688473388464e-06 0 2
1 -20.236106872560001 12.999999046328 38.500011444089999 -2.9935810259305244e-15 9.124182283795289e-16 -1 
1 -29.618396759029999 13 38.500011444089999 0.99999999999999489 -1.0164576147176956e-07 0 
1 -18.306194338945122 12.565148282963259 38.500011444089999 -2.9935810259305244e-15 9.124182283795289e-16 -1 
2 -20.236106872560001 8.4999990463259998 38.500011444089999 0 0 -1 0 1 0 1 -0 0 4.5
1 -3.0000028610229998 5.2986016273500001 38.500011444089999 -2.9935810259305244e-15 9.124182283795289e-16 -1 
1 -18.30619430542 12.56514835358 38.500011444089999 0.90336655914799346 -0.42886928056590234 0 
1 -3.8577418327330002 3.491868495941 38.500011444089999 -2.9935810259305244e-15 9.124182283795289e-16 -1 
1 -3.0000028610229998 5.2986016273500001 38.500011444089999 -0.42886944555622569 -0.90336648081954851 0 
1 -19.163932837369671 10.758415144068977 38.500011444089999 -2.9935810259305244e-15 9.124182283795289e-16 -1 
1 -3.8577418327330002 3.491868495941 38.500011444089999 -0.90336655397171628 0.42886929146916786 0 
1 -20.236106872559724 10.999999046328 38.500011444089992 -2.9935810259305244e-15 9.124182283795289e-16 -1 
2 -20.236106872560001 8.4999990463259998 38.500011444089999 0 0 1 0.42886959924426094 0.90336640785678268 -0 -0.90336640785678268 0.42886959924426094 0 2.5
1 -29.618396759029096 10.999999046333777 38.500011444089999 -2.9935810259305244e-15 9.124182283795289e-16 -1 
1 -20.236106872560001 10.99999904633 38.500011444089999 -0.99999999999999489 1.0164576147176956e-07 0 
1 -31.350455687405944 11.9999982628831 38.500011444089999 -2.9935810259305244e-15 9.124182283795289e-16 -1 
2 -29.618404388430001 13.000001907350001 38.500011444089999 0 0 -1 3.8146936276212063e-06 -0.99999999999272404 0 -0.99999999999272404 -3.8146936276212063e-06 -0 2.0000038146970001
1 -32.018417358400001 11.99999904633 38.500011444089999 -2.9935810259305244e-15 9.124182283795289e-16 -1 
1 -31.350454330440002 11.99999904633 38.500011444089999 -1 0 0 
1 -33.750469023565223 13.000000106348315 38.500011444090006 -2.9935810259305244e-15 9.124182283795289e-16 -1 
2 -32.018417358400001 13.99999904633 38.500011444089999 0 0 -1 0 -1 0 -1 -0 -0 2
1 -36.25044631958 13 38.500011444089999 -2.9935810259305244e-15 9.124182283795289e-16 -1 
1 -33.750469207759998 13 38.500011444089999 -1 0 0 
1 -36.25044631958 -13 38.500011444089999 -2.9935810259305244e-15 9.124182283795289e-16 -1 
1 -36.25044631958 13 38.500011444089999 0 -1 0 
1 -33.75046902356523 -13.000000106348329 38.500011444089999 -2.9935810259305244e-15 9.124182283795289e-16 -1 
1 -36.25044631958 -13 38.500011444089999 1 0 0 
1 -32.018417358400015 -11.99999904633 38.500011444089999 -2.9935810259305244e-15 9.124182283795289e-16 -1 
2 -32.018417358400001 -13.99999904633 38.500011444089999 0 0 -1 -0.86602574048522873 0.49999941681667126 0 0.49999941681667126 0.86602574048522873 0 2
1 -31.350455687406004 -11.999998262883201 38.500011444089999 -2.9935810259305244e-15 9.124182283795289e-16 -1 
1 -32.018417358400001 -11.99999904633 38.500011444089999 1 0 0 
1 -29.618396759029213 -10.999999046333777 38.500011444089999 -2.9935810259305244e-15 9.124182283795289e-16 -1 
2 -29.618404388430001 -13.000001907350001 38.500011444089999 0 0 -1 -0.86602467616013501 0.50000126028014502 0 0.50000126028014502 0.86602467616013501 0 2.0000038146970001
1 -20.236106872560001 -10.999999046328 38.500011444089999 -2.9935810259305244e-15 9.124182283795289e-16 -1 
1 -29.618396759029999 -11 38.500011444089999 0.99999999999999489 1.0164576147176956e-07 0 
1 -19.16393283736992 -10.758415144069097 38.500011444089999 -2.9935810259305244e-15 9.124182283795289e-16 -1 
2 -20.236106872560001 -8.4999990463259998 38.500011444089999 0 0 1 0 -1 0 1 0 -0 2.5
1 -3.8577418327330002 -3.491868495941 38.500011444089999 -2.9935810259305244e-15 9.124182283795289e-16 -1 
1 -19.163932800289999 -10.758415222169999 38.500011444089999 0.90336655397171628 0.42886929146916786 0 
1 -3.0000028610229998 -5.2986016273500001 38.500011444089999 -2.9935810259305244e-15 9.124182283795289e-16 -1 
1 -3.8577418327330002 -3.491868495941 38.500011444089999 0.42886944555622569 -0.90336648081954851 0 
1 -18.306194338944849 -12.565148282963129 38.500011444089999 -2.9935810259305244e-15 9.124182283795289e-16 -1 
1 -3.0000028610229998 -5.2986016273500001 38.500011444089999 -0.90336655914799346 -0.42886928056590234 0 
1 -20.236106872559699 -12.999999046328 38.500011444089999 -2.9935810259305244e-15 9.124182283795289e-16 -1 
2 -20.236106872560001 -8.4999990463259998 38.500011444089999 0 0 -1 0.42886944446451092 -0.90336648133783548 0 -0.90336648133783548 -0.42886944446451092 -0 4.5
1 -29.618396640926239 -13.000000068190204 38.500011444090006 -2.9935810259305244e-15 9.124182283795289e-16 -1 
1 -20.236106872560001 -12.99999904633 38.500011444089999 -0.99999999999999489 -1.0164576147176956e-07 0 
1 -31.350463867188559 -13.999999046293166 38.500011444089992 -2.9935810259305244e-15 9.124182283795289e-16 -1 
2 -31.35044670105 -11.99999904633 38.500011444089999 0 0 -1 0.86602508911376186 -0.50000054502520386 0 -0.50000054502520386 -0.86602508911376186 -0 2
1 -32.018417542594776 -13.999998939981671 38.500011444089999 -2.9935810259305244e-15 9.124182283795289e-16 -1 
1 -31.350463867190001 -13.99999904633 38.500011444089999 -1 0 0 
1 -33.750469207759977 -15 38.500011444089999 -2.9935810259305244e-15 9.124182283795289e-16 -1 
2 -33.750469207759998 -13 38.500011444089999 0 0 -1 0.86602574048522873 -0.49999941681667126 0 -0.49999941681667126 -0.86602574048522873 -0 2
1 -38.250450134280001 -15 38.500011444089999 -2.9935810259305244e-15 9.124182283795289e-16 -1 
1 -33.750469207759998 -15 38.500011444089999 -1 0 0 
1 -38.250450134280001 -15 38.500011444089999 0 1 0 
Polygon3D 0
PolygonOnTriangulations 0
Surfaces 38
1 -22.89999961853 0.99999147653580001 8 -2.0577728202561069e-06 -0.9999999999978828 0 -0.9999999999978828 2.0577728202561069e-06 0 -0 0 -1 
2 -30.500411987300001 -1.8686519354110001e-07 8 -0 -0 -1 0.96064549241970743 0.27777731709716302 -0 -0.27777731709716302 0.96064549241970743 0 3.6000108718870001
1 -27.042078018190001 -1.0000029802320001 8 -7.4828200440331785e-07 0.99999999999972011 0 0.99999999999972011 7.4828200440331785e-07 0 0 0 -1 
1 -22.90000152588 -0.99999988079070001 8 -0.99999999999954525 9.5367912147183487e-07 0 9.5367912147183487e-07 0.99999999999954525 0 0 0 -1 
1 -25.894792318856005 -2.461346368554107e-06 8 0 0 1 1 0 -0 -0 1 0 
1 -38.250450134280001 15 38.500011444089999 0 -1 -9.124182283795289e-16 1 0 0 0 -9.124182283795289e-16 1 
2 -33.750469207759998 13 38.500011444089999 -0 -0 1 0 1 0 1 -0 0 2
1 -32.018417358400001 13.99999904633 38.500011444089999 0 -1 -9.124182283795289e-16 1 0 0 0 -9.124182283795289e-16 1 
2 -31.35044670105 11.99999904633 38.500011444089999 -0 -0 1 -8.5830688473388464e-06 0.99999999996316546 0 0.99999999996316546 8.5830688473388464e-06 0 2
1 -29.618396759029999 13 38.500011444089999 -1.0164576147176956e-07 -0.99999999999999489 -9.1241792409470118e-16 0.99999999999999489 -1.0164576147176956e-07 1.1754943508222872e-38 -9.2743414675097134e-23 -9.1241792409469625e-16 1 
2 -20.236106872560001 8.4999990463259998 38.500011444089999 -0 -0 1 0 1 0 1 -0 0 4.5
1 -18.30619430542 12.56514835358 38.500011444089999 -0.4288692805659024 -0.90336655914799358 4.5960682543143677e-16 0.90336655914799358 -0.4288692805659024 0 1.9711124856595854e-16 4.151934364509295e-16 1 
1 -3.0000028610229998 5.2986016273500001 38.500011444089999 -0.90336648081954851 0.42886944555622569 3.0956090561635537e-15 -0.42886944555622569 -0.90336648081954851 0 2.7964694590595937e-15 -1.3276121395756943e-15 1 
1 -3.8577418327330002 3.491868495941 38.500011444089999 0.42886929146916791 0.90336655397171639 -4.5960686279417526e-16 -0.90336655397171639 0.42886929146916791 0 1.9711126960090497e-16 4.1519346782412546e-16 1 
2 -20.236106872560001 8.4999990463259998 38.500011444089999 0 0 1 0.42886959924426094 0.90336640785678268 -0 -0.90336640785678268 0.42886959924426094 0 2.5
1 -20.236106872560001 10.99999904633 38.500011444089999 1.0164576147176956e-07 0.99999999999999489 9.1241792409470118e-16 -0.99999999999999489 1.0164576147176956e-07 -1.1754943508222872e-38 -9.2743414675097134e-23 -9.1241792409469625e-16 1 
2 -29.618404388430001 13.000001907350001 38.500011444089999 -0 -0 1 3.8146936276212063e-06 -0.99999999999272404 0 -0.99999999999272404 -3.8146936276212063e-06 -0 2.0000038146970001
1 -31.350454330440002 11.99999904633 38.500011444089999 0 1 9.124182283795289e-16 -1 0 0 0 -9.124182283795289e-16 1 
2 -32.018417358400001 13.99999904633 38.500011444089999 -0 -0 1 0 -1 0 -1 -0 -0 2
1 -33.750469207759998 13 38.500011444089999 0 1 9.124182283795289e-16 -1 0 0 0 -9.124182283795289e-16 1 
1 -36.25044631958 13 38.500011444089999 -1 0 2.9935810259305244e-15 0 -1 0 2.9935810259305244e-15 0 1 
1 -36.25044631958 -13 38.500011444089999 0 -1 -9.124182283795289e-16 1 0 0 0 -9.124182283795289e-16 1 
2 -32.018417358400001 -13.99999904633 38.500011444089999 -0 -0 1 -0.86602574048522873 0.49999941681667126 0 0.49999941681667126 0.86602574048522873 0 2
1 -32.018417358400001 -11.99999904633 38.500011444089999 0 -1 -9.124182283795289e-16 1 0 0 0 -9.124182283795289e-16 1 
2 -29.618404388430001 -13.000001907350001 38.500011444089999 -0 -0 1 -0.86602467616013501 0.50000126028014502 0 0.50000126028014502 0.86602467616013501 0 2.0000038146970001
1 -29.618396759029999 -11 38.500011444089999 1.0164576147176956e-07 -0.99999999999999489 -9.1241853266434715e-16 0.99999999999999489 1.0164576147176956e-07 -1.1754943508222872e-38 9.2743476533622201e-23 -9.1241853266434222e-16 1 
2 -20.236106872560001 -8.4999990463259998 38.500011444089999 0 0 1 0 -1 0 1 0 -0 2.5
1 -19.163932800289999 -10.758415222169999 38.500011444089999 0.42886929146916791 -0.90336655397171639 -2.1081030842985622e-15 0.90336655397171639 0.42886929146916791 9.8607613152626454e-32 9.0410067610709165e-16 -1.9043898186799385e-15 1 
1 -3.8577418327330002 -3.491868495941 38.500011444089999 -0.90336648081954851 -0.42886944555622569 2.312992456722509e-15 0.42886944555622569 -0.90336648081954851 1.9721522630525295e-31 2.0894798557915748e-15 9.9197179249031505e-16 1 
1 -3.0000028610229998 -5.2986016273500001 38.500011444089999 -0.4288692805659024 0.90336655914799358 2.1081030563816831e-15 -0.90336655914799358 -0.4288692805659024 0 9.0410064114919218e-16 -1.9043898043728893e-15 1 
2 -20.236106872560001 -8.4999990463259998 38.500011444089999 -0 -0 1 0.42886944446451092 -0.90336648133783548 0 -0.90336648133783548 -0.42886944446451092 -0 4.5
1 -20.236106872560001 -12.99999904633 38.500011444089999 -1.0164576147176956e-07 0.99999999999999489 9.1241853266434715e-16 -0.99999999999999489 -1.0164576147176956e-07 1.1754943508222872e-38 9.2743476533622201e-23 -9.1241853266434222e-16 1 
2 -31.35044670105 -11.99999904633 38.500011444089999 -0 -0 1 0.86602508911376186 -0.50000054502520386 0 -0.50000054502520386 -0.86602508911376186 -0 2
1 -31.350463867190001 -13.99999904633 38.500011444089999 0 1 9.124182283795289e-16 -1 0 0 0 -9.124182283795289e-16 1 
2 -33.750469207759998 -13 38.500011444089999 -0 -0 1 0.86602574048522873 -0.49999941681667126 0 -0.49999941681667126 -0.86602574048522873 -0 2
1 -33.750469207759998 -15 38.500011444089999 0 1 9.124182283795289e-16 -1 0 0 0 -9.124182283795289e-16 1 
1 -38.250450134280001 -15 38.500011444089999 1 0 -2.9935810259305244e-15 0 1 0 2.9935810259305244e-15 -0 1 
1 -25.797136088130884 -5.1235527672351582e-09 38.500011444089985 2.9935810259305244e-15 -9.124182283795289e-16 1 1 0 -2.9935810259305244e-15 2.7313978961901016e-30 1 9.124182283795289e-16 
Triangulations 0

TShapes 189
Ve
0.003
-22.89999961853 0.9999914765358 8
0 0

0101101
*
Ed
 0.003 1 1 0
1  1 0 0 20
0

0101000
+189 0 -189 1 *
Ve
0.00300211437490232
-27.0420798017249 1.0000005873241 8
0 0

0101101
*
Ed
 0.00300211437490232 1 1 0
1  2 0 0 20
2  1 2 0 0 20
0

0101000
+187 0 -187 1 *
Ed
 0.003 1 1 0
1  3 0 0 4.14208221436877
0

0101000
+189 0 -187 0 *
Wi

0101000
+188 0 -186 0 -185 0 +185 1 *
Fa
0  0.003 1 0

0111000
+184 0 *
Ve
0.00300007992593347
-27.0420780949706 -1.00000295803091 8
0 0

0101101
*
Ed
 0.00300007992593347 1 1 0
1  4 0 0 20
2  2 2 0 0 20
0

0101000
+182 0 -182 1 *
Ed
 0.003 1 1 0
1  5 0 0 5.72022571863371
2  3 2 0 0 5.72022571863371
2  4 2 2 0 5.72022571863371
0

0101000
+187 0 -182 0 *
Wi

0101000
+186 0 -181 0 -180 0 +180 1 *
Fa
0  0.003 2 0

0111000
+179 0 *
Ve
0.003
-22.90000152588 -0.9999998807907 8
0 0

0101101
*
Ed
 0.003 1 1 0
1  6 0 0 20
0

0101000
+177 0 -177 1 *
Ed
 0.003 1 1 0
1  7 0 0 4.14207649231116
0

0101000
+182 0 -177 0 *
Wi

0101000
+181 0 -176 0 -175 0 +175 1 *
Fa
0  0.003 3 0

0111000
+174 0 *
Ed
 0.003 1 1 0
1  8 0 0 1.99999135732741
0

0101000
+177 0 -189 0 *
Wi

0101000
+176 0 -188 0 -172 0 +172 1 *
Fa
0  0.003 4 0

0111000
+171 0 *
Wi

0101100
+185 0 +180 0 +175 0 +172 0 *
Fa
0  0.003 5 0

0111100
+169 0 *
Sh

0101000
+183 0 +178 0 +173 0 +170 0 +168 0 -168 1 *
So

1100000
-167 0 *
Ve
0.003
-38.25045013428 15 38.50001144409
0 0

0101101
*
Ed
 0.003 1 1 0
1  9 0 0 11.5
0

0101000
+165 0 -165 3 *
Ve
0.003
-33.75046920776 15 38.50001144409
0 0

0101101
*
Ed
 0.003 1 1 0
1  10 0 0 11.5
2  5 7 0 0 11.5
4 G1 6 0 7 0
0

0101000
+163 0 -163 3 *
Ed
 0.003 1 1 0
1  11 0 0 4.49998092652
0

0101000
+165 0 -163 0 *
Wi

0101000
+164 0 -162 0 -161 0 +161 3 *
Fa
0  0.003 6 0

0111000
+160 0 *
Ve
0.00300021269151456
-32.0184175425948 13.9999989399817 38.50001144409
0 0

0101101
*
Ed
 0.00300021269151456 1 1 0
1  12 0 0 11.5
2  6 7 0 0 11.5
0

0101000
+158 0 -158 3 *
Ed
 0.003 1 1 0
1  13 0 0 1.04719822459855
2  7 7 0 0 1.04719822459855
2  8 7 4 0 1.04719822459855
0

0101000
+163 0 -158 0 *
Wi

0101000
+162 0 -157 0 -156 0 +156 3 *
Fa
0  0.003 7 0

0111000
+155 0 *
Ve
0.00300000003685257
-31.3504638671889 13.9999990462932 38.50001144409
0 0

0101101
*
Ed
 0.00300000003685257 1 1 0
1  14 0 0 11.5
2  9 9 0 0 11.5
4 G1 8 0 9 0
0

0101000
+153 0 -153 3 *
Ed
 0.003 1 1 0
1  15 0 0 0.66795349121
0

0101000
+158 0 -153 0 *
Wi

0101000
+157 0 -152 0 -151 0 +151 3 *
Fa
0  0.003 8 0

0111000
+150 0 *
Ve
0.00300013637595931
-29.6183966409264 13.0000000681905 38.50001144409
0 0

0101101
*
Ed
 0.00300013637595931 1 1 0
1  16 0 0 11.5
2  10 9 0 0 11.5
0

0101000
+148 0 -148 3 *
Ed
 0.003 1 1 0
1  17 0 0 1.04720550492415
2  11 9 0 0 1.04720550492415
2  12 9 4 0 1.04720550492415
0

0101000
+153 0 -148 0 *
Wi

0101000
+152 0 -147 0 -146 0 +146 3 *
Fa
0  0.003 9 0

0111000
+145 0 *
Ve
0.00300000000200018
-20.23610687256 12.999999046328 38.50001144409
0 0

0101101
*
Ed
 0.00300000000200018 1 1 0
1  18 0 0 11.5
2  13 11 0 0 11.5
4 G1 10 0 11 0
0

0101000
+143 0 -143 3 *
Ed
 0.003 1 1 0
1  19 0 0 9.38228988647005
0

0101000
+148 0 -143 0 *
Wi

0101000
+147 0 -142 0 -141 0 +141 3 *
Fa
0  0.003 10 0

0111000
+140 0 *
Ve
0.0030000781706973
-18.3061943389451 12.5651482829633 38.50001144409
0 0

0101101
*
Ed
 0.0030000781706973 1 1 0
1  20 0 0 11.5
2  14 11 0 0 11.5
4 G1 11 0 12 0
0

0101000
+138 0 -138 3 *
Ed
 0.003 1 1 0
1  21 0 0 0.443240913037257
2  15 11 0 0 0.443240913037257
2  16 11 4 0 0.443240913037257
0

0101000
+143 0 -138 0 *
Wi

0101000
+142 0 -137 0 -136 0 +136 3 *
Fa
0  0.003 11 0

0111000
+135 0 *
Ve
0.003
-3.000002861023 5.29860162735 38.50001144409
0 0

0101101
*
Ed
 0.003 1 1 0
1  22 0 0 11.5
0

0101000
+133 0 -133 3 *
Ed
 0.003 1 1 0
1  23 0 0 16.9435001654622
0

0101000
+138 0 -133 0 *
Wi

0101000
+137 0 -132 0 -131 0 +131 3 *
Fa
0  0.003 12 0

0111000
+130 0 *
Ve
0.003
-3.857741832733 3.491868495941 38.50001144409
0 0

0101101
*
Ed
 0.003 1 1 0
1  24 0 0 11.5
0

0101000
+128 0 -128 3 *
Ed
 0.003 1 1 0
1  25 0 0 2.00000018793027
0

0101000
+133 0 -128 0 *
Wi

0101000
+132 0 -127 0 -126 0 +126 3 *
Fa
0  0.003 13 0

0111000
+125 0 *
Ve
0.00300008645618451
-19.1639328373697 10.758415144069 38.50001144409
0 0

0101101
*
Ed
 0.00300008645618451 1 1 0
1  26 0 0 11.5
2  17 15 0 0 11.5
4 G1 14 0 15 0
0

0101000
+123 0 -123 3 *
Ed
 0.003 1 1 0
1  27 0 0 16.9434997347004
0

0101000
+128 0 -123 0 *
Wi

0101000
+127 0 -122 0 -121 0 +121 3 *
Fa
0  0.003 14 0

0111000
+120 0 *
Ve
0.00300000000201904
-20.2361068725597 10.999999046328 38.50001144409
0 0

0101101
*
Ed
 0.00300000000201904 1 1 0
1  28 0 0 11.5
2  18 15 0 0 11.5
4 G1 15 0 16 0
0

0101000
+118 0 -118 3 *
Ed
 0.003 1 1 0
1  29 0 0 0.443241084373787
2  19 15 0 0 0.443241084373787
2  20 15 4 0 0.443241084373787
0

0101000
+123 0 -118 0 *
Wi

0101000
+122 0 -117 0 -116 0 +116 3 *
Fa
0  0.003 15 0

0111000
+115 0 *
Ve
0.00300095366622332
-29.6183967590291 10.9999990463338 38.50001144409
0 0

0101101
*
Ed
 0.00300095366622332 1 1 0
1  30 0 0 11.5
2  21 17 0 0 11.5
4 G1 16 0 17 0
0

0101000
+113 0 -113 3 *
Ed
 0.003 1 1 0
1  31 0 0 9.38228988647005
0

0101000
+118 0 -113 0 *
Wi

0101000
+117 0 -112 0 -111 0 +111 3 *
Fa
0  0.003 16 0

0111000
+110 0 *
Ve
0.00300156689042821
-31.3504556874059 11.9999982628831 38.50001144409
0 0

0101101
*
Ed
 0.00300156689042821 1 1 0
1  32 0 0 11.5
2  22 17 0 0 11.5
0

0101000
+108 0 -108 3 *
Ed
 0.003 1 1 0
1  33 0 0 1.04719991064333
2  23 17 0 0 1.04719991064333
2  24 17 4 0 1.04719991064333
0

0101000
+113 0 -108 0 *
Wi

0101000
+112 0 -107 0 -106 0 +106 3 *
Fa
0  0.003 17 0

0111000
+105 0 *
Ve
0.003
-32.0184173584 11.99999904633 38.50001144409
0 0

0101101
*
Ed
 0.003 1 1 0
1  34 0 0 11.5
2  25 19 0 0 11.5
4 G1 18 0 19 0
0

0101000
+103 0 -103 3 *
Ed
 0.003 1 1 0
1  35 0 0 0.667963027959999
0

0101000
+108 0 -103 0 *
Wi

0101000
+107 0 -102 0 -101 0 +101 3 *
Fa
0  0.003 18 0

0111000
+100 0 *
Ve
0.00300021269151456
-33.7504690235652 13.0000001063483 38.50001144409
0 0

0101101
*
Ed
 0.00300021269151456 1 1 0
1  36 0 0 11.5
2  26 19 0 0 11.5
0

0101000
+98 0 -98 3 *
Ed
 0.003 1 1 0
1  37 0 0 1.04719822459855
2  27 19 0 0 1.04719822459855
2  28 19 4 0 1.04719822459855
0

0101000
+103 0 -98 0 *
Wi

0101000
+102 0 -97 0 -96 0 +96 3 *
Fa
0  0.003 19 0

0111000
+95 0 *
Ve
0.003
-36.25044631958 13 38.50001144409
0 0

0101101
*
Ed
 0.003 1 1 0
1  38 0 0 11.5
0

0101000
+93 0 -93 3 *
Ed
 0.003 1 1 0
1  39 0 0 2.49997711182
0

0101000
+98 0 -93 0 *
Wi

0101000
+97 0 -92 0 -91 0 +91 3 *
Fa
0  0.003 20 0

0111000
+90 0 *
Ve
0.003
-36.25044631958 -13 38.50001144409
0 0

0101101
*
Ed
 0.003 1 1 0
1  40 0 0 11.5
0

0101000
+88 0 -88 3 *
Ed
 0.003 1 1 0
1  41 0 0 26
0

0101000
+93 0 -88 0 *
Wi

0101000
+92 0 -87 0 -86 0 +86 3 *
Fa
0  0.003 21 0

0111000
+85 0 *
Ve
0.00300021269151596
-33.7504690235652 -13.0000001063483 38.50001144409
0 0

0101101
*
Ed
 0.00300021269151596 1 1 0
1  42 0 0 11.5
2  29 23 0 0 11.5
0

0101000
+83 0 -83 3 *
Ed
 0.003 1 1 0
1  43 0 0 2.49997711182
0

0101000
+88 0 -83 0 *
Wi

0101000
+87 0 -82 0 -81 0 +81 3 *
Fa
0  0.003 22 0

0111000
+80 0 *
Ve
0.00300000000001776
-32.0184173584 -11.99999904633 38.50001144409
0 0

0101101
*
Ed
 0.00300000000001776 1 1 0
1  44 0 0 11.5
2  30 23 0 0 11.5
4 G1 23 0 24 0
0

0101000
+78 0 -78 3 *
Ed
 0.003 1 1 0
1  45 0 0 1.04719822459855
2  31 23 0 0 1.04719822459855
2  32 23 4 0 1.04719822459855
0

0101000
+83 0 -78 0 *
Wi

0101000
+82 0 -77 0 -76 0 +76 3 *
Fa
0  0.003 23 0

0111000
+75 0 *
Ve
0.00300156689042988
-31.350455687406 -11.9999982628832 38.50001144409
0 0

0101101
*
Ed
 0.00300156689042988 1 1 0
1  46 0 0 11.5
2  33 25 0 0 11.5
0

0101000
+73 0 -73 3 *
Ed
 0.003 1 1 0
1  47 0 0 0.667963027959999
0

0101000
+78 0 -73 0 *
Wi

0101000
+77 0 -72 0 -71 0 +71 3 *
Fa
0  0.003 24 0

0111000
+70 0 *
Ve
0.00300095366622332
-29.6183967590292 -10.9999990463338 38.50001144409
0 0

0101101
*
Ed
 0.00300095366622332 1 1 0
1  48 0 0 11.5
2  34 25 0 0 11.5
4 G1 25 0 26 0
0

0101000
+68 0 -68 3 *
Ed
 0.003 1 1 0
1  49 0 0 1.04719991064333
2  35 25 0 0 1.04719991064333
2  36 25 4 0 1.04719991064333
0

0101000
+73 0 -68 0 *
Wi

0101000
+72 0 -67 0 -66 0 +66 3 *
Fa
0  0.003 25 0

0111000
+65 0 *
Ve
0.00300000000200018
-20.23610687256 -10.999999046328 38.50001144409
0 0

0101101
*
Ed
 0.00300000000200018 1 1 0
1  50 0 0 11.5
2  37 27 0 0 11.5
4 G1 26 0 27 0
0

0101000
+63 0 -63 3 *
Ed
 0.003 1 1 0
1  51 0 0 9.38228988647005
0

0101000
+68 0 -63 0 *
Wi

0101000
+67 0 -62 0 -61 0 +61 3 *
Fa
0  0.003 26 0

0111000
+60 0 *
Ve
0.00300008645618365
-19.1639328373699 -10.7584151440691 38.50001144409
0 0

0101101
*
Ed
 0.00300008645618365 1 1 0
1  52 0 0 11.5
2  38 27 0 0 11.5
4 G1 27 0 28 0
0

0101000
+58 0 -58 3 *
Ed
 0.003 1 1 0
1  53 0 0 0.443241084373787
2  39 27 0 0 0.443241084373787
2  40 27 4 0 0.443241084373787
0

0101000
+63 0 -58 0 *
Wi

0101000
+62 0 -57 0 -56 0 +56 3 *
Fa
0  0.003 27 0

0111000
+55 0 *
Ve
0.003
-3.857741832733 -3.491868495941 38.50001144409
0 0

0101101
*
Ed
 0.003 1 1 0
1  54 0 0 11.5
0

0101000
+53 0 -53 3 *
Ed
 0.003 1 1 0
1  55 0 0 16.9434997347004
0

0101000
+58 0 -53 0 *
Wi

0101000
+57 0 -52 0 -51 0 +51 3 *
Fa
0  0.003 28 0

0111000
+50 0 *
Ve
0.003
-3.000002861023 -5.29860162735 38.50001144409
0 0

0101101
*
Ed
 0.003 1 1 0
1  56 0 0 11.5
0

0101000
+48 0 -48 3 *
Ed
 0.003 1 1 0
1  57 0 0 2.00000018793027
0

0101000
+53 0 -48 0 *
Wi

0101000
+52 0 -47 0 -46 0 +46 3 *
Fa
0  0.003 29 0

0111000
+45 0 *
Ve
0.00300007817069788
-18.3061943389448 -12.5651482829631 38.50001144409
0 0

0101101
*
Ed
 0.00300007817069788 1 1 0
1  58 0 0 11.5
2  41 31 0 0 11.5
4 G1 30 0 31 0
0

0101000
+43 0 -43 3 *
Ed
 0.003 1 1 0
1  59 0 0 16.9435001654622
0

0101000
+48 0 -43 0 *
Wi

0101000
+47 0 -42 0 -41 0 +41 3 *
Fa
0  0.003 30 0

0111000
+40 0 *
Ve
0.00300000000202258
-20.2361068725597 -12.999999046328 38.50001144409
0 0

0101101
*
Ed
 0.00300000000202258 1 1 0
1  60 0 0 11.5
2  42 31 0 0 11.5
4 G1 31 0 32 0
0

0101000
+38 0 -38 3 *
Ed
 0.003 1 1 0
1  61 0 0 0.443240913037257
2  43 31 0 0 0.443240913037257
2  44 31 4 0 0.443240913037257
0

0101000
+43 0 -38 0 *
Wi

0101000
+42 0 -37 0 -36 0 +36 3 *
Fa
0  0.003 31 0

0111000
+35 0 *
Ve
0.00300013637595956
-29.6183966409262 -13.0000000681902 38.50001144409
0 0

0101101
*
Ed
 0.00300013637595956 1 1 0
1  62 0 0 11.5
2  45 33 0 0 11.5
0

0101000
+33 0 -33 3 *
Ed
 0.003 1 1 0
1  63 0 0 9.38228988647005
0

0101000
+38 0 -33 0 *
Wi

0101000
+37 0 -32 0 -31 0 +31 3 *
Fa
0  0.003 32 0

0111000
+30 0 *
Ve
0.0030000000368627
-31.3504638671886 -13.9999990462932 38.50001144409
0 0

0101101
*
Ed
 0.0030000000368627 1 1 0
1  64 0 0 11.5
2  46 33 0 0 11.5
4 G1 33 0 34 0
0

0101000
+28 0 -28 3 *
Ed
 0.003 1 1 0
1  65 0 0 1.04720550492415
2  47 33 0 0 1.04720550492415
2  48 33 4 0 1.04720550492415
0

0101000
+33 0 -28 0 *
Wi

0101000
+32 0 -27 0 -26 0 +26 3 *
Fa
0  0.003 33 0

0111000
+25 0 *
Ve
0.00300021269151596
-32.0184175425948 -13.9999989399817 38.50001144409
0 0

0101101
*
Ed
 0.00300021269151596 1 1 0
1  66 0 0 11.5
2  49 35 0 0 11.5
0

0101000
+23 0 -23 3 *
Ed
 0.003 1 1 0
1  67 0 0 0.66795349121
0

0101000
+28 0 -23 0 *
Wi

0101000
+27 0 -22 0 -21 0 +21 3 *
Fa
0  0.003 34 0

0111000
+20 0 *
Ve
0.00300000000001776
-33.75046920776 -15 38.50001144409
0 0

0101101
*
Ed
 0.00300000000001776 1 1 0
1  68 0 0 11.5
2  50 35 0 0 11.5
4 G1 35 0 36 0
0

0101000
+18 0 -18 3 *
Ed
 0.003 1 1 0
1  69 0 0 1.04719822459855
2  51 35 0 0 1.04719822459855
2  52 35 4 0 1.04719822459855
0

0101000
+23 0 -18 0 *
Wi

0101000
+22 0 -17 0 -16 0 +16 3 *
Fa
0  0.003 35 0

0111000
+15 0 *
Ve
0.003
-38.25045013428 -15 38.50001144409
0 0

0101101
*
Ed
 0.003 1 1 0
1  70 0 0 11.5
0

0101000
+13 0 -13 3 *
Ed
 0.003 1 1 0
1  71 0 0 4.49998092652
0

0101000
+18 0 -13 0 *
Wi

0101000
+17 0 -12 0 -11 0 +11 3 *
Fa
0  0.003 36 0

0111000
+10 0 *
Ed
 0.003 1 1 0
1  72 0 0 30
0

0101000
+13 0 -165 0 *
Wi

0101000
+12 0 -164 0 -8 0 +8 3 *
Fa
0  0.003 37 0

0111000
+7 0 *
Wi

0101100
+161 0 +156 0 +151 0 +146 0 +141 0 +136 0 +131 0 +126 0 +121 0 +116 0 
+111 0 +106 0 +101 0 +96 0 +91 0 +86 0 +81 0 +76 0 +71 0 +66 0 
+61 0 +56 0 +51 0 +46 0 +41 0 +36 0 +31 0 +26 0 +21 0 +16 0 
+11 0 +8 0 *
Fa
0  0.003 38 0

0111100
-5 0 *
Sh

0101000
-159 0 -154 0 -149 0 -144 0 -139 0 -134 0 -129 0 -124 0 -119 0 -114 0 
-109 0 -104 0 -99 0 -94 0 -89 0 -84 0 -79 0 -74 0 -69 0 -64 0 
-59 0 -54 0 -49 0 -44 0 -39 0 -34 0 -29 0 -24 0 -19 0 -14 0 
-9 0 -6 0 +4 0 -4 3 *
So

1100000
+3 0 *
Co

0100000
+166 0 +2 0 *

+1 0 
0

